<svg width="36" height="37" viewBox="0 0 36 37" fill="none" xmlns="http://www.w3.org/2000/svg">
<g clip-path="url(#clip0_883_2655)">
<path d="M31.4133 19.9282C31.7303 17.1446 31.1735 14.3314 29.8201 11.8785C28.4667 9.42558 26.3837 7.45449 23.8598 6.23846C21.336 5.02243 18.4963 4.62171 15.7345 5.09185C12.9727 5.56199 10.4256 6.8797 8.44624 8.8623C6.46688 10.8449 5.15336 13.3942 4.68776 16.1568C4.22216 18.9193 4.62754 21.7583 5.84771 24.2802C7.06788 26.802 9.04239 28.8818 11.4975 30.2312C13.9527 31.5806 16.7668 32.1328 19.5498 31.8112" stroke="#2B675B" stroke-width="1.5" stroke-linecap="round" stroke-linejoin="round"/>
<path d="M18 10.9014V18.4014L21 21.4014" stroke="#2B675B" stroke-width="1.5" stroke-linecap="round" stroke-linejoin="round"/>
<path d="M25.5 25.9014V33.4014" stroke="#2B675B" stroke-width="1.5" stroke-linecap="round" stroke-linejoin="round"/>
<path d="M31.5 25.9014V33.4014" stroke="#2B675B" stroke-width="1.5" stroke-linecap="round" stroke-linejoin="round"/>
</g>
<defs>
<clipPath id="clip0_883_2655">
<rect width="36" height="36" fill="white" transform="translate(0 0.401367)"/>
</clipPath>
</defs>
</svg>
