<svg width="36" height="36" viewBox="0 0 36 36" fill="none" xmlns="http://www.w3.org/2000/svg">
<g clip-path="url(#clip0_883_2618)">
<path d="M17.1562 12.375C17.6222 12.375 18 11.9972 18 11.5312C18 11.0653 17.6222 10.6875 17.1562 10.6875C16.6903 10.6875 16.3125 11.0653 16.3125 11.5312C16.3125 11.9972 16.6903 12.375 17.1562 12.375Z" fill="#2B675B"/>
<path d="M13.2188 12.375C13.6847 12.375 14.0625 11.9972 14.0625 11.5312C14.0625 11.0653 13.6847 10.6875 13.2188 10.6875C12.7528 10.6875 12.375 11.0653 12.375 11.5312C12.375 11.9972 12.7528 12.375 13.2188 12.375Z" fill="#2B675B"/>
<path d="M6.1875 33.1875H6.75V33.75C6.75 33.8992 6.80926 34.0423 6.91475 34.1477C7.02024 34.2532 7.16332 34.3125 7.3125 34.3125C7.46168 34.3125 7.60476 34.2532 7.71025 34.1477C7.81574 34.0423 7.875 33.8992 7.875 33.75V33.1875H8.4375C8.58668 33.1875 8.72976 33.1282 8.83525 33.0227C8.94074 32.9173 9 32.7742 9 32.625C9 32.4758 8.94074 32.3327 8.83525 32.2273C8.72976 32.1218 8.58668 32.0625 8.4375 32.0625H7.875V31.5C7.875 31.3508 7.81574 31.2077 7.71025 31.1023C7.60476 30.9968 7.46168 30.9375 7.3125 30.9375C7.16332 30.9375 7.02024 30.9968 6.91475 31.1023C6.80926 31.2077 6.75 31.3508 6.75 31.5V32.0625H6.1875C6.03832 32.0625 5.89524 32.1218 5.78975 32.2273C5.68426 32.3327 5.625 32.4758 5.625 32.625C5.625 32.7742 5.68426 32.9173 5.78975 33.0227C5.89524 33.1282 6.03832 33.1875 6.1875 33.1875ZM15.1875 15.1875C15.3367 15.1875 15.4798 15.1282 15.5852 15.0227C15.6907 14.9173 15.75 14.7742 15.75 14.625V12.9375C15.75 12.7883 15.6907 12.6452 15.5852 12.5398C15.4798 12.4343 15.3367 12.375 15.1875 12.375C15.0383 12.375 14.8952 12.4343 14.7898 12.5398C14.6843 12.6452 14.625 12.7883 14.625 12.9375V14.625C14.625 14.7742 14.6843 14.9173 14.7898 15.0227C14.8952 15.1282 15.0383 15.1875 15.1875 15.1875ZM16.4835 15.9081C16.4661 15.9244 16.0414 16.3125 15.1875 16.3125C14.3454 16.3125 13.9213 15.9356 13.8921 15.9092C13.7853 15.8072 13.6427 15.7513 13.4951 15.7535C13.3475 15.7557 13.2067 15.8159 13.103 15.921C12.9993 16.0262 12.9412 16.1678 12.941 16.3155C12.9409 16.4631 12.9988 16.6049 13.1023 16.7102C13.1766 16.785 13.8673 17.4375 15.1875 17.4375C16.5077 17.4375 17.1984 16.785 17.2727 16.7102C17.3765 16.6061 17.4351 16.4652 17.4356 16.3181C17.4361 16.1711 17.3786 16.0298 17.2755 15.9249C17.1719 15.8191 17.0309 15.7581 16.8828 15.7551C16.7348 15.752 16.5914 15.8066 16.4835 15.9081ZM17.4375 3.375C18.1287 3.37751 18.8072 3.56067 19.4057 3.90631C20.0042 4.25195 20.502 4.74806 20.8496 5.34544C20.8859 5.41101 20.9348 5.46868 20.9937 5.51506C21.0525 5.56144 21.12 5.59561 21.1923 5.61554C21.2645 5.63547 21.34 5.64078 21.4143 5.63115C21.4886 5.62151 21.5602 5.59713 21.6249 5.55944C21.6897 5.52174 21.7462 5.47149 21.7913 5.41164C21.8364 5.35178 21.869 5.28353 21.8873 5.21088C21.9057 5.13823 21.9093 5.06266 21.898 4.98859C21.8867 4.91452 21.8608 4.84346 21.8216 4.77956C21.3747 4.01239 20.735 3.37537 19.966 2.93166C19.197 2.48795 18.3253 2.25296 17.4375 2.25C17.2883 2.25 17.1452 2.30926 17.0398 2.41475C16.9343 2.52024 16.875 2.66332 16.875 2.8125C16.875 2.96168 16.9343 3.10476 17.0398 3.21025C17.1452 3.31574 17.2883 3.375 17.4375 3.375Z" fill="#2B675B"/>
<path d="M34.3125 21.3754H32.625V20.8129C32.625 20.6637 32.5657 20.5207 32.4602 20.4152C32.3548 20.3097 32.2117 20.2504 32.0625 20.2504H27.5625C27.4133 20.2504 27.2702 20.3097 27.1648 20.4152C27.0593 20.5207 27 20.6637 27 20.8129V21.3754H25.875C24.8766 21.3754 24.0379 22.033 23.7448 22.9352L20.25 22.0611V18.5174C21.2647 17.368 21.8551 15.9057 21.9229 14.374C22.6642 13.8548 24.75 12.165 24.75 9.56348V7.31348C24.75 3.28148 21.4695 0.000976562 17.4375 0.000976562H12.9375C8.9055 0.000976562 5.625 3.28148 5.625 7.31348V9.56348C5.625 12.1656 7.71075 13.8548 8.45212 14.374C8.5184 15.9062 9.10897 17.3691 10.125 18.5179V22.0617L6.00975 23.0922C2.13469 24.3837 0 26.7704 0 29.8129V35.4379C0 35.5871 0.0592632 35.7302 0.164752 35.8357C0.270242 35.9412 0.413316 36.0004 0.5625 36.0004H33.75C34.9909 36.0004 36 34.9913 36 33.7504V23.0629C36 22.1325 35.2429 21.3754 34.3125 21.3754ZM28.125 21.3754H31.5V22.5004H28.125V21.3754ZM21.4059 29.3044L20.9222 27.3694L22.1164 26.9706C22.2188 26.9363 22.3092 26.8732 22.3768 26.7889L23.625 25.2285V33.7499C23.625 34.1616 23.7442 34.5424 23.9377 34.8749H18.8736L21.4059 29.3044ZM23.2009 23.9584L21.6022 25.957L20.0722 26.4672C19.9379 26.512 19.8255 26.6058 19.7573 26.7298C19.6891 26.8539 19.6702 26.9991 19.7044 27.1365L20.2196 29.1964L17.6383 34.8754H15.9789L20.0503 23.1704L23.2014 23.9579L23.2009 23.9584ZM19.125 22.4059L18.5681 24.0068L15.1875 25.2741L11.8069 24.0068L11.25 22.4059V19.5428C12.0842 20.1374 13.4179 20.8129 15.1875 20.8129C16.6314 20.8129 17.991 20.3674 19.125 19.5467V22.4059ZM14.9901 26.4025C15.0536 26.4261 15.3214 26.4261 15.3849 26.4025L18.0872 25.3889L15.1875 33.7257L12.2878 25.3889L14.9901 26.4025ZM21.9375 12.9137V9.00041C21.9375 8.89635 22.0185 8.7636 22.1428 8.65898C22.3243 8.51489 22.5495 8.43692 22.7812 8.43791C22.9478 8.43791 23.1834 8.47841 23.3589 8.6736C23.5333 8.8671 23.625 9.17479 23.625 9.56291C23.625 11.0699 22.6755 12.2348 21.9375 12.9137ZM12.9375 1.12541H17.4375C20.8491 1.12541 23.625 4.07235 23.625 7.48391C23.625 7.48391 23.085 7.31291 22.7812 7.31291C22.2829 7.31291 21.8025 7.48223 21.4228 7.79385C21.282 7.91512 21.1606 8.0572 21.0628 8.21516L19.3764 7.37198C19.3073 7.33739 19.2317 7.31744 19.1545 7.31338C19.0772 7.30931 19 7.32122 18.9276 7.34835C14.9794 8.82998 13.5006 6.05235 13.4409 5.93591C13.3942 5.84241 13.3224 5.76377 13.2334 5.70883C13.1445 5.65388 13.042 5.6248 12.9375 5.62485C10.8804 5.62485 9.63675 6.91185 9.00225 7.84616C8.98256 7.82816 8.96737 7.80679 8.94656 7.78935C8.56431 7.47878 8.08626 7.31022 7.59375 7.31235C7.29 7.31235 6.75 7.46535 6.75 7.46535C6.75 4.05379 9.52594 1.12485 12.9375 1.12485V1.12541ZM6.75 9.56291C6.75 9.17479 6.84225 8.8671 7.01606 8.6736C7.19156 8.47841 7.42669 8.43791 7.59375 8.43791C7.82888 8.43791 8.06175 8.51891 8.22656 8.65448C8.3565 8.7636 8.4375 8.89691 8.4375 9.00041V12.9132C7.6995 12.2342 6.75 11.0693 6.75 9.56291ZM9.5625 9.1191C9.75769 8.6961 10.6841 6.9321 12.6349 6.76335C13.2328 7.62791 15.2049 9.82898 19.089 8.48629L20.8125 9.34804V14.0629C20.8149 15.4993 20.2654 16.8818 19.2774 17.9245C18.2098 19.0613 16.7574 19.6879 15.1875 19.6879C12.6641 19.6879 11.1741 18.0117 11.0964 17.9234C10.1091 16.8808 9.56001 15.4988 9.5625 14.0629V9.1191ZM10.3253 23.1709L14.3966 34.876H12.7372L10.1559 29.197L10.6712 27.1371C10.7055 26.9997 10.6867 26.8544 10.6185 26.7303C10.5503 26.6062 10.4377 26.5124 10.3033 26.4677L8.77331 25.9575L7.17469 23.959L10.3258 23.1715L10.3253 23.1709ZM1.125 29.8129C1.125 26.5994 4.05675 24.994 5.99569 24.2864L7.99763 26.7889C8.06549 26.8739 8.15654 26.9374 8.25975 26.9717L9.45337 27.37L8.96963 29.305L11.502 34.876H4.50056V31.501C4.50056 31.3518 4.4413 31.2087 4.33581 31.1032C4.23032 30.9977 4.08725 30.9385 3.93806 30.9385C3.78888 30.9385 3.6458 30.9977 3.54031 31.1032C3.43483 31.2087 3.37556 31.3518 3.37556 31.501V34.876H1.125V29.8129ZM34.875 33.7504C34.875 34.3709 34.3704 34.8754 33.75 34.8754H25.875C25.2546 34.8754 24.75 34.3709 24.75 33.7504V23.6254C24.75 23.005 25.2546 22.5004 25.875 22.5004H27V23.0629C27 23.2121 27.0593 23.3552 27.1648 23.4607C27.2702 23.5662 27.4133 23.6254 27.5625 23.6254H32.0625C32.2117 23.6254 32.3548 23.5662 32.4602 23.4607C32.5657 23.3552 32.625 23.2121 32.625 23.0629V22.5004H34.3125C34.6224 22.5004 34.875 22.7524 34.875 23.0629V33.7504Z" fill="#2B675B"/>
<path d="M33.188 24.75H31.5005C30.2596 24.75 29.2505 25.7591 29.2505 27V27.081C28.7212 26.8397 28.0299 26.7008 27.3121 27.0585C26.6692 27.3791 26.2529 28.0164 26.1084 28.9018C25.8839 30.2805 26.3874 32.2442 27.1648 33.0221C28.0788 33.9368 29.1262 33.7629 29.8124 33.336C30.137 33.5385 30.5426 33.6842 30.9768 33.6842C31.46 33.6842 31.9786 33.5042 32.4601 33.0221C33.2381 32.2442 33.7415 30.2805 33.5165 28.9018C33.4451 28.4636 33.3061 28.0873 33.1076 27.7796C33.4698 27.5153 33.7499 27.0872 33.7499 26.4375V25.3125C33.7499 25.1633 33.6907 25.0202 33.5852 24.9148C33.4797 24.8093 33.3372 24.75 33.188 24.75ZM31.5005 25.875H32.6255V26.4375C32.6255 26.8425 32.378 26.9668 32.1451 26.9938C31.4881 26.7328 30.8632 26.8588 30.3755 27.081V27C30.3755 26.3796 30.8801 25.875 31.5005 25.875ZM31.6653 32.2273C31.0021 32.8899 30.3817 32.3921 30.2107 32.2273C30.1587 32.1754 30.0969 32.1342 30.029 32.1062C29.961 32.0783 29.8882 32.064 29.8147 32.0642C29.6718 32.0642 29.5284 32.1182 29.4187 32.2239C29.2438 32.3921 28.6239 32.8905 27.9607 32.2273C27.5264 31.7931 27.0236 30.2816 27.2188 29.0835C27.3037 28.5626 27.5039 28.2206 27.8144 28.0654C28.5524 27.6958 29.3923 28.5002 29.4164 28.5233C29.5219 28.6277 29.6643 28.6863 29.8127 28.6863C29.9612 28.6863 30.1036 28.6277 30.209 28.5233C30.2174 28.5154 31.0674 27.6924 31.8121 28.0654C32.1221 28.2195 32.3223 28.5621 32.4073 29.0829C32.6024 30.2811 32.0996 31.7925 31.6653 32.2273Z" fill="#2B675B"/>
<path d="M28.6875 30.375C28.9982 30.375 29.25 30.1232 29.25 29.8125C29.25 29.5018 28.9982 29.25 28.6875 29.25C28.3768 29.25 28.125 29.5018 28.125 29.8125C28.125 30.1232 28.3768 30.375 28.6875 30.375Z" fill="#2B675B"/>
</g>
<defs>
<clipPath id="clip0_883_2618">
<rect width="36" height="36" fill="white"/>
</clipPath>
</defs>
</svg>
