<svg width="34" height="34" viewBox="0 0 34 34" fill="none" xmlns="http://www.w3.org/2000/svg">
<path d="M29.6027 21.7133C28.3752 22.422 25.3348 23.9051 23.0418 24.7791C23.1223 24.3571 23.0473 23.9169 22.8159 23.5273C22.4744 22.9527 21.8736 22.6231 21.2086 22.6453C18.37 22.6439 16.5323 21.8817 14.9109 21.209C13.4322 20.5957 12.1551 20.0659 10.6418 20.4323C9.11777 20.8012 7.4968 22.0617 5.40726 24.5079C4.86259 24.2527 4.19302 24.3481 3.74378 24.7972L1.75332 26.7878C1.66616 26.8749 1.61719 26.9932 1.61719 27.1164C1.61719 27.2397 1.66616 27.3579 1.75332 27.4451L7.90639 33.5982C7.94956 33.6413 8.0008 33.6756 8.0572 33.699C8.1136 33.7223 8.17405 33.7343 8.2351 33.7343C8.29615 33.7343 8.3566 33.7223 8.413 33.699C8.4694 33.6756 8.52065 33.6413 8.56381 33.5982L10.5543 31.6077C10.9723 31.1896 11.0839 30.5807 10.8919 30.0593C12.1553 29.5348 13.5651 29.4899 15.365 29.5975C15.7717 29.6218 16.1989 29.6562 16.651 29.6926C17.7242 29.7791 18.8338 29.8685 19.9067 29.8448C22.1628 29.795 23.5201 29.1616 25.3332 28.2011C27.18 27.2228 31.1191 24.886 31.8561 23.9173C32.3815 23.2264 32.4111 22.4282 31.9315 21.8836C31.4914 21.3838 30.6006 21.1374 29.6027 21.7134V21.7133ZM9.89692 30.9504L8.2351 32.6121L2.73939 27.1164L4.40114 25.4546C4.61164 25.2441 4.95417 25.2441 5.16474 25.4546L9.89692 30.1868C10.1074 30.3973 10.1074 30.7399 9.89692 30.9504ZM31.1162 23.3544C30.6 24.033 27.2924 26.1113 24.898 27.3796C23.2024 28.2778 21.9374 28.87 19.8861 28.9153C18.861 28.9379 17.7754 28.8505 16.7257 28.766C16.2686 28.7292 15.8369 28.6944 15.4205 28.6695C13.8158 28.5735 11.9811 28.5393 10.32 29.2951L6.12438 25.0995C10.2429 20.2793 11.7863 20.9194 14.5547 22.0677C16.1734 22.7392 18.1881 23.575 21.2167 23.575C21.2225 23.575 21.2283 23.5749 21.2342 23.5747C21.5577 23.5622 21.8502 23.7223 22.0166 24.0023C22.183 24.2822 22.1835 24.6155 22.0181 24.8938C21.714 25.4056 20.6068 25.671 19.0558 25.6031C17.598 25.5394 16.1315 25.1916 15.5561 24.8921C15.4469 24.8376 15.3208 24.8281 15.2048 24.8658C15.0888 24.9034 14.9922 24.9852 14.9359 25.0933C14.8796 25.2015 14.8681 25.3275 14.9038 25.4441C14.9395 25.5608 15.0196 25.6587 15.1269 25.7168C15.9112 26.125 17.5465 26.4677 19.0153 26.5318C19.1792 26.5389 19.3485 26.5431 19.5209 26.5431C20.3032 26.5431 21.1475 26.4571 21.815 26.1766C24.1377 25.5221 28.4709 23.4401 30.0675 22.5184C30.6068 22.207 31.0502 22.2895 31.2338 22.4979C31.4131 22.7015 31.3691 23.0217 31.1162 23.3543V23.3544ZM31.6177 8.72406L30.4543 8.49469L29.6307 6.50662L30.2913 5.52161C30.5434 5.14562 30.494 4.6404 30.1739 4.32039L28.3295 2.47602C28.0094 2.15595 27.5042 2.10661 27.1283 2.35868L26.1433 3.01923L24.1552 2.19559L23.9258 1.03209C23.8382 0.587961 23.4461 0.265625 22.9934 0.265625H20.385C19.9323 0.265625 19.5402 0.587961 19.4526 1.03209L19.2232 2.19552L17.2351 3.01916L16.2501 2.35855C15.8743 2.10654 15.3691 2.15581 15.0489 2.47589L13.2045 4.32026C12.8844 4.6404 12.8351 5.14556 13.0872 5.52148L13.7478 6.50649L12.9241 8.49456L11.7607 8.72392C11.3166 8.81151 10.9942 9.20364 10.9942 9.65627V12.2647C10.9942 12.7246 11.3094 13.1081 11.7607 13.1971L12.9241 13.4265L13.7478 15.4146L13.0872 16.3996C12.835 16.7755 12.8843 17.2807 13.2044 17.6008L15.0488 19.4453C15.3689 19.7654 15.8741 19.8147 16.2501 19.5625L17.2351 18.9019L19.2231 19.7256L19.4526 20.889C19.5401 21.3331 19.9322 21.6555 20.3849 21.6555H22.9934C23.446 21.6555 23.8381 21.3332 23.9258 20.889L24.1551 19.7256L26.1432 18.9019L27.1282 19.5624C27.5043 19.8148 28.0095 19.7653 28.3295 19.4452L30.1739 17.6008C30.4941 17.2806 30.5434 16.7754 30.2913 16.3995L29.6307 15.4145L30.4543 13.4264L31.6178 13.197C32.0619 13.1095 32.3843 12.7173 32.3843 12.2646V9.6562C32.3843 9.20358 32.0619 8.81145 31.6178 8.72386L31.6177 8.72406ZM31.4545 12.2648C31.4545 12.2771 31.4499 12.2828 31.4379 12.2851L30.0302 12.5626C29.9551 12.5774 29.8848 12.6106 29.8256 12.6591C29.7663 12.7076 29.72 12.77 29.6907 12.8407L28.6765 15.2888C28.6472 15.3595 28.6358 15.4364 28.6434 15.5126C28.6509 15.5888 28.6772 15.662 28.7198 15.7256L29.5192 16.9175C29.5259 16.9276 29.5252 16.9349 29.5165 16.9435L27.6721 18.7879C27.6636 18.7965 27.6563 18.7974 27.646 18.7904L26.4541 17.9912C26.3905 17.9486 26.3173 17.9223 26.2411 17.9147C26.1649 17.9072 26.0881 17.9185 26.0173 17.9478L23.5692 18.962C23.4985 18.9913 23.4361 19.0377 23.3876 19.0969C23.339 19.1561 23.3059 19.2264 23.2911 19.3016L23.0136 20.7092C23.0112 20.7212 23.0056 20.7259 22.9934 20.7259H20.3849C20.3727 20.7259 20.3671 20.7212 20.3647 20.7092L20.0871 19.3015C20.0723 19.2264 20.0391 19.1561 19.9906 19.0969C19.9421 19.0376 19.8797 18.9913 19.809 18.962L17.3609 17.9478C17.2902 17.9185 17.2133 17.9071 17.1371 17.9147C17.0608 17.9223 16.9877 17.9486 16.9241 17.9912L15.7323 18.7904C15.7221 18.7973 15.7148 18.7966 15.7062 18.788L13.8618 16.9436C13.8531 16.935 13.8524 16.9277 13.8592 16.9175L14.6585 15.7256C14.7012 15.662 14.7275 15.5888 14.735 15.5126C14.7426 15.4364 14.7312 15.3595 14.7019 15.2888L13.6877 12.8407C13.6584 12.77 13.612 12.7076 13.5528 12.659C13.4936 12.6105 13.4232 12.5774 13.3481 12.5626L11.9405 12.2851C11.9286 12.2827 11.9239 12.2771 11.9239 12.2648V9.6564C11.9239 9.64418 11.9286 9.63854 11.9405 9.63615L13.3481 9.35863C13.4232 9.34381 13.4935 9.31067 13.5528 9.26215C13.612 9.21364 13.6583 9.15125 13.6877 9.08052L14.7019 6.63239C14.7312 6.56164 14.7425 6.48475 14.735 6.40854C14.7274 6.33234 14.7011 6.25918 14.6585 6.19557L13.8592 5.00371C13.8525 4.99362 13.8532 4.98631 13.8618 4.97768L15.7063 3.13331C15.715 3.12468 15.7223 3.12395 15.7324 3.13072L16.9242 3.92999C16.9878 3.97262 17.0609 3.99889 17.1371 4.00645C17.2133 4.01402 17.2902 4.00265 17.361 3.97335L19.809 2.95913C19.8798 2.92983 19.9422 2.8835 19.9907 2.82427C20.0392 2.76503 20.0724 2.69472 20.0872 2.61959L20.3647 1.21191C20.3671 1.19996 20.3728 1.19531 20.385 1.19531H22.9934C23.0056 1.19531 23.0114 1.19996 23.0137 1.21191L23.2912 2.61959C23.306 2.69471 23.3392 2.765 23.3877 2.82423C23.4362 2.88347 23.4986 2.9298 23.5693 2.95913L26.0174 3.97335C26.0881 4.00265 26.165 4.01402 26.2412 4.00645C26.3174 3.99889 26.3906 3.97262 26.4542 3.92999L27.646 3.13072C27.6561 3.12388 27.6634 3.12461 27.6721 3.13331L29.5165 4.97768C29.5251 4.98631 29.5259 4.99362 29.5191 5.00378L28.7198 6.19557C28.6772 6.25917 28.6509 6.33233 28.6433 6.40854C28.6358 6.48475 28.6471 6.56165 28.6765 6.63239L29.6907 9.08052C29.72 9.15127 29.7663 9.21367 29.8256 9.26219C29.8848 9.31071 29.9551 9.34384 30.0302 9.35863L31.4378 9.63615C31.4499 9.63854 31.4545 9.64418 31.4545 9.6564V12.2648ZM29.4648 11.3092C29.542 11.4043 29.5785 11.5259 29.5665 11.6478C29.5544 11.7696 29.4948 11.8818 29.4006 11.9599C29.3063 12.0381 29.185 12.0759 29.0631 12.0651C28.9411 12.0544 28.8283 11.9959 28.7492 11.9025L28.3596 11.4327C28.1167 14.9004 25.2178 17.6475 21.6892 17.6475C19.2651 17.6475 17.0256 16.3308 15.8444 14.2113C15.8136 14.1579 15.7937 14.0989 15.7859 14.0378C15.7781 13.9766 15.7825 13.9145 15.7989 13.8551C15.8153 13.7957 15.8433 13.7401 15.8814 13.6917C15.9195 13.6432 15.9668 13.6028 16.0207 13.5728C16.0745 13.5428 16.1338 13.5238 16.1951 13.5169C16.2563 13.51 16.3183 13.5154 16.3775 13.5327C16.4366 13.55 16.4918 13.5789 16.5397 13.6177C16.5875 13.6565 16.6272 13.7045 16.6564 13.7588C17.6736 15.584 19.602 16.7178 21.6891 16.7178C24.7452 16.7178 27.2526 14.3246 27.4357 11.3138L26.9795 11.8905C26.9416 11.9384 26.8946 11.9783 26.8413 12.0081C26.788 12.0378 26.7294 12.0567 26.6687 12.0638C26.6081 12.0709 26.5467 12.0659 26.4879 12.0492C26.4292 12.0326 26.3744 12.0045 26.3265 11.9666C26.2786 11.9287 26.2387 11.8818 26.2089 11.8285C26.1792 11.7752 26.1603 11.7165 26.1532 11.6559C26.1461 11.5952 26.1511 11.5338 26.1678 11.4751C26.1844 11.4164 26.2125 11.3615 26.2504 11.3136L27.4657 9.77752C27.5087 9.72322 27.5632 9.67921 27.6254 9.64869C27.6875 9.61818 27.7557 9.60193 27.8249 9.60115C27.9653 9.60108 28.0986 9.66131 28.1881 9.76929L29.4648 11.3092ZM15.5534 12.3202H15.5481C15.4797 12.3202 15.4122 12.3051 15.3504 12.276C15.2885 12.2469 15.2338 12.2046 15.1902 12.1519L13.9135 10.612C13.8364 10.5169 13.7998 10.3952 13.8119 10.2734C13.8239 10.1516 13.8835 10.0394 13.9778 9.96126C14.072 9.88312 14.1933 9.84532 14.3153 9.85606C14.4372 9.8668 14.55 9.92523 14.6292 10.0186L15.0187 10.4885C15.2616 7.02073 18.1606 4.27371 21.6891 4.27371C24.1132 4.27371 26.3528 5.59041 27.534 7.7099C27.5637 7.76322 27.5826 7.82187 27.5896 7.8825C27.5967 7.94314 27.5917 8.00456 27.575 8.06327C27.5583 8.12198 27.5302 8.17683 27.4923 8.22468C27.4544 8.27253 27.4074 8.31245 27.3541 8.34215C27.3008 8.37188 27.2422 8.3908 27.1815 8.39786C27.1209 8.40491 27.0594 8.39995 27.0007 8.38325C26.942 8.36656 26.8872 8.33846 26.8393 8.30057C26.7914 8.26267 26.7515 8.21572 26.7218 8.16239C25.7047 6.33722 23.7763 5.20333 21.6891 5.20333C18.6331 5.20333 16.1256 7.59661 15.9425 10.6073L16.3988 10.0307C16.4366 9.98279 16.4836 9.94285 16.5369 9.91312C16.5902 9.88339 16.6488 9.86444 16.7095 9.85738C16.7701 9.85031 16.8315 9.85526 16.8903 9.87193C16.949 9.88861 17.0039 9.91669 17.0517 9.95456C17.0996 9.99244 17.1395 10.0394 17.1693 10.0927C17.199 10.146 17.2179 10.2047 17.225 10.2653C17.2321 10.3259 17.2271 10.3874 17.2105 10.4461C17.1938 10.5048 17.1657 10.5597 17.1278 10.6075L15.9125 12.1436C15.8696 12.1979 15.815 12.242 15.7529 12.2725C15.6907 12.303 15.6225 12.3192 15.5533 12.32L15.5534 12.3202ZM17.8578 10.9606C17.8578 13.0733 19.5766 14.7921 21.6892 14.7921C23.8019 14.7921 25.5206 13.0733 25.5206 10.9606C25.5206 8.84797 23.8019 7.12918 21.6892 7.12918C19.5766 7.12918 17.8578 8.84797 17.8578 10.9606ZM24.591 10.9606C24.591 12.5607 23.2893 13.8624 21.6893 13.8624C20.0893 13.8624 18.7875 12.5607 18.7875 10.9606C18.7875 9.36056 20.0893 8.05886 21.6893 8.05886C23.2893 8.05886 24.591 9.36063 24.591 10.9606ZM21.1807 11.1474L22.64 9.68808C22.7275 9.60234 22.8453 9.55459 22.9677 9.5552C23.0902 9.55581 23.2075 9.60474 23.2941 9.69135C23.3807 9.77795 23.4296 9.89524 23.4302 10.0177C23.4309 10.1402 23.3831 10.258 23.2974 10.3454L21.4096 12.2331C21.3592 12.2835 21.2979 12.3216 21.2304 12.3445C21.1629 12.3675 21.091 12.3745 21.0203 12.3652C20.9496 12.3559 20.882 12.3305 20.8227 12.2909C20.7635 12.2513 20.7141 12.1985 20.6784 12.1368L20.0073 10.9744C19.9763 10.9215 19.956 10.863 19.9477 10.8022C19.9394 10.7415 19.9432 10.6797 19.9589 10.6205C19.9745 10.5612 20.0018 10.5056 20.039 10.4569C20.0763 10.4082 20.1228 10.3674 20.1759 10.3367C20.2289 10.3061 20.2876 10.2862 20.3484 10.2783C20.4092 10.2704 20.4709 10.2746 20.5301 10.2907C20.5892 10.3067 20.6446 10.3343 20.6931 10.3719C20.7415 10.4095 20.7821 10.4562 20.8124 10.5095L21.1807 11.1474Z" fill="#2B675B"/>
</svg>
