<svg width="36" height="37" viewBox="0 0 36 37" fill="none" xmlns="http://www.w3.org/2000/svg">
<g clip-path="url(#clip0_883_2685)">
<path d="M8.03602 3.33398C8.03602 3.48317 7.97675 3.62624 7.87126 3.73173C7.76577 3.83722 7.6227 3.89648 7.47352 3.89648H3.09375V8.27625C3.09375 8.42543 3.03449 8.56851 2.929 8.674C2.82351 8.77949 2.68043 8.83875 2.53125 8.83875C2.38207 8.83875 2.23899 8.77949 2.1335 8.674C2.02801 8.56851 1.96875 8.42543 1.96875 8.27625V3.33398C1.96875 3.1848 2.02801 3.04173 2.1335 2.93624C2.23899 2.83075 2.38207 2.77148 2.53125 2.77148H7.47352C7.6227 2.77148 7.76577 2.83075 7.87126 2.93624C7.97675 3.04173 8.03602 3.1848 8.03602 3.33398ZM7.47352 33.709H3.09375V29.3292C3.09375 29.18 3.03449 29.037 2.929 28.9315C2.82351 28.826 2.68043 28.7667 2.53125 28.7667C2.38207 28.7667 2.23899 28.826 2.1335 28.9315C2.02801 29.037 1.96875 29.18 1.96875 29.3292V34.2715C1.96875 34.4207 2.02801 34.5637 2.1335 34.6692C2.23899 34.7747 2.38207 34.834 2.53125 34.834H7.47352C7.6227 34.834 7.76577 34.7747 7.87126 34.6692C7.97675 34.5637 8.03602 34.4207 8.03602 34.2715C8.03602 34.1223 7.97675 33.9792 7.87126 33.8737C7.76577 33.7682 7.6227 33.709 7.47352 33.709ZM28.5265 3.89648H32.9062V8.27625C32.9062 8.42543 32.9655 8.56851 33.071 8.674C33.1765 8.77949 33.3196 8.83875 33.4688 8.83875C33.6179 8.83875 33.761 8.77949 33.8665 8.674C33.972 8.56851 34.0312 8.42543 34.0312 8.27625V3.33398C34.0312 3.1848 33.972 3.04173 33.8665 2.93624C33.761 2.83075 33.6179 2.77148 33.4688 2.77148H28.5265C28.3773 2.77148 28.2342 2.83075 28.1287 2.93624C28.0232 3.04173 27.964 3.1848 27.964 3.33398C27.964 3.48317 28.0232 3.62624 28.1287 3.73173C28.2342 3.83722 28.3773 3.89648 28.5265 3.89648ZM33.4688 28.7667C33.3196 28.7667 33.1765 28.826 33.071 28.9315C32.9655 29.037 32.9062 29.18 32.9062 29.3292V33.709H28.5265C28.3773 33.709 28.2342 33.7682 28.1287 33.8737C28.0232 33.9792 27.964 34.1223 27.964 34.2715C27.964 34.4207 28.0232 34.5637 28.1287 34.6692C28.2342 34.7747 28.3773 34.834 28.5265 34.834H33.4688C33.6179 34.834 33.761 34.7747 33.8665 34.6692C33.972 34.5637 34.0312 34.4207 34.0312 34.2715V29.3292C34.0312 29.18 33.972 29.037 33.8665 28.9315C33.761 28.826 33.6179 28.7667 33.4688 28.7667ZM18 31.2395C17.8508 31.2395 17.7077 31.2988 17.6023 31.4043C17.4968 31.5098 17.4375 31.6529 17.4375 31.802V35.6777C17.4375 35.8269 17.4968 35.97 17.6023 36.0755C17.7077 36.181 17.8508 36.2402 18 36.2402C18.1492 36.2402 18.2923 36.181 18.3977 36.0755C18.5032 35.97 18.5625 35.8269 18.5625 35.6777V31.802C18.5625 31.6529 18.5032 31.5098 18.3977 31.4043C18.2923 31.2988 18.1492 31.2395 18 31.2395ZM34.875 18.2402H30.9992C30.85 18.2402 30.707 18.2995 30.6015 18.405C30.496 18.5105 30.4367 18.6535 30.4367 18.8027C30.4367 18.9519 30.496 19.095 30.6015 19.2005C30.707 19.306 30.85 19.3652 30.9992 19.3652H34.875C35.0242 19.3652 35.1673 19.306 35.2727 19.2005C35.3782 19.095 35.4375 18.9519 35.4375 18.8027C35.4375 18.6535 35.3782 18.5105 35.2727 18.405C35.1673 18.2995 35.0242 18.2402 34.875 18.2402ZM5.5632 18.8027C5.5632 18.6535 5.50393 18.5105 5.39844 18.405C5.29295 18.2995 5.14988 18.2402 5.0007 18.2402H1.125C0.975816 18.2402 0.832742 18.2995 0.727252 18.405C0.621763 18.5105 0.5625 18.6535 0.5625 18.8027C0.5625 18.9519 0.621763 19.095 0.727252 19.2005C0.832742 19.306 0.975816 19.3652 1.125 19.3652H5.0007C5.14988 19.3652 5.29295 19.306 5.39844 19.2005C5.50393 19.095 5.5632 18.9519 5.5632 18.8027ZM18 6.36593C18.1492 6.36593 18.2923 6.30667 18.3977 6.20118C18.5032 6.09569 18.5625 5.95261 18.5625 5.80343V1.92773C18.5625 1.77855 18.5032 1.63548 18.3977 1.52999C18.2923 1.4245 18.1492 1.36523 18 1.36523C17.8508 1.36523 17.7077 1.4245 17.6023 1.52999C17.4968 1.63548 17.4375 1.77855 17.4375 1.92773V5.80343C17.4375 5.95261 17.4968 6.09569 17.6023 6.20118C17.7077 6.30667 17.8508 6.36593 18 6.36593ZM26.1604 13.7612C26.9177 14.472 27.1117 15.5724 26.6432 16.4992C26.5566 16.6705 26.4786 16.8226 26.4086 16.9591C26.1283 17.5058 25.9875 17.7803 25.9465 18.0128C25.9055 18.2454 25.9438 18.5513 26.0203 19.1608C26.0394 19.3132 26.0607 19.4828 26.0835 19.6734C26.2067 20.7047 25.6482 21.6723 24.6933 22.0811C24.6364 22.1055 24.5821 22.1287 24.529 22.1512L26.3669 26.4183C26.4076 26.5127 26.4216 26.6165 26.4074 26.7183C26.3932 26.8201 26.3514 26.9161 26.2865 26.9958C26.2217 27.0756 26.1362 27.1361 26.0394 27.1707C25.9426 27.2053 25.8381 27.2126 25.7374 27.1919L23.2644 26.6855L21.9334 28.8304C21.8792 28.9177 21.8021 28.9885 21.7104 29.0351C21.6188 29.0818 21.5162 29.1024 21.4137 29.0948C21.3111 29.0871 21.2127 29.0516 21.1289 28.9919C21.0452 28.9322 20.9795 28.8508 20.9388 28.7564L19.3284 25.0177L19.1178 24.9528C18.5308 24.7716 18.2361 24.6807 18 24.6807C17.8185 24.6807 17.6018 24.7346 17.245 24.8417L14.9979 29.6681C14.9545 29.7613 14.8864 29.8407 14.801 29.8979C14.7156 29.9551 14.6161 29.9878 14.5135 29.9924C14.4108 29.9971 14.3088 29.9735 14.2186 29.9243C14.1283 29.8751 14.0533 29.8022 14.0016 29.7133L12.7333 27.5307L10.2466 27.9653C10.1454 27.983 10.0412 27.9726 9.94541 27.9352C9.84963 27.8979 9.76593 27.835 9.70338 27.7534C9.64084 27.6718 9.60186 27.5746 9.59067 27.4724C9.57948 27.3702 9.59651 27.2669 9.63991 27.1737L11.8948 22.3304L11.7822 22.2829C11.6407 22.2232 11.4832 22.1568 11.3067 22.0812C10.3519 21.6723 9.79327 20.7047 9.91652 19.6735C9.93931 19.4829 9.96054 19.3133 9.97966 19.1609C10.0561 18.5514 10.0945 18.2454 10.0535 18.0128C10.0125 17.7803 9.8718 17.5059 9.5914 16.9592C9.52137 16.8227 9.44339 16.6706 9.35684 16.4993C8.88827 15.5724 9.08234 14.472 9.8396 13.7613C9.97959 13.6298 10.1049 13.5136 10.2175 13.4092C10.6679 12.9914 10.8939 12.7817 11.012 12.5772C11.13 12.3728 11.1986 12.0721 11.3353 11.4733C11.3695 11.3236 11.4074 11.1569 11.4512 10.9699C11.6881 9.95869 12.544 9.24052 13.5811 9.18279C13.7728 9.1721 13.9435 9.16366 14.0968 9.15593C14.7104 9.12541 15.0183 9.11009 15.2402 9.0293C15.4621 8.94858 15.7079 8.76232 16.1976 8.39135C16.32 8.29868 16.4562 8.19546 16.6099 8.08043C17.4414 7.45788 18.5587 7.45802 19.3901 8.08043C19.5439 8.19546 19.6801 8.29868 19.8024 8.39135C20.2921 8.76232 20.5379 8.94858 20.7598 9.0293C20.9816 9.11002 21.2896 9.12541 21.9032 9.15593C22.0565 9.16359 22.2272 9.17203 22.4189 9.18279C23.456 9.24045 24.3119 9.95869 24.5488 10.97C24.5926 11.1569 24.6306 11.3236 24.6647 11.4733C24.8013 12.0722 24.87 12.3728 24.988 12.5772C25.1061 12.7817 25.3322 12.9914 25.7825 13.4092C25.8951 13.5135 26.0204 13.6298 26.1604 13.7612ZM15.837 25.2006C15.7937 25.203 15.7505 25.2054 15.7075 25.2054C14.9413 25.2054 14.215 24.8246 13.7758 24.1531C13.6817 24.009 13.588 23.8646 13.4947 23.7199C13.2075 23.2751 13.0435 23.0215 12.8879 22.8626L11.1146 26.6715L12.9258 26.355C13.0391 26.3352 13.1558 26.3507 13.26 26.3992C13.3643 26.4477 13.4512 26.5271 13.509 26.6265L14.4328 28.2162L15.837 25.2006ZM24.9073 25.8736L23.4973 22.5999C23.3642 22.6665 23.2656 22.7266 23.1867 22.7928C23.0058 22.9445 22.8386 23.2036 22.5053 23.7197C22.422 23.8486 22.3293 23.9923 22.2242 24.153C21.849 24.7268 21.264 25.088 20.6238 25.1811L21.5456 27.3214L22.5152 25.7591C22.5758 25.6613 22.6649 25.5845 22.7705 25.539C22.8762 25.4934 22.9933 25.4815 23.106 25.5046L24.9073 25.8736ZM25.3905 14.5815C25.2665 14.4652 25.1422 14.3494 25.0175 14.234C23.947 13.2409 23.8927 13.147 23.568 11.7235C23.5343 11.5757 23.4967 11.4111 23.4535 11.2266C23.3295 10.6975 22.899 10.3362 22.3565 10.306C22.1673 10.2955 21.9987 10.287 21.8474 10.2795C20.3889 10.207 20.2871 10.1698 19.1232 9.28805C19.0024 9.1965 18.8679 9.09455 18.7161 8.98099C18.4986 8.81822 18.2493 8.7368 18.0001 8.7368C17.7508 8.7368 17.5016 8.81815 17.2841 8.98099C17.1323 9.09455 16.9978 9.1965 16.877 9.28805C15.713 10.1698 15.6112 10.2069 14.1528 10.2795C14.0014 10.287 13.8329 10.2955 13.6436 10.306C13.1011 10.3362 12.6705 10.6975 12.5466 11.2265C12.5033 11.4111 12.4658 11.5757 12.4321 11.7235C12.1073 13.147 12.0531 13.2409 10.9826 14.234C10.8715 14.337 10.7478 14.4518 10.6095 14.5815C10.2134 14.9533 10.1158 15.5068 10.3609 15.9917C10.4464 16.1608 10.5234 16.311 10.5925 16.4459C11.2589 17.7453 11.2777 17.852 11.0959 19.3009C11.0771 19.4513 11.0561 19.6188 11.0336 19.8069C10.9691 20.3464 11.2501 20.8332 11.7496 21.0471C11.9239 21.1218 12.0794 21.1872 12.2191 21.2462C13.5647 21.8132 13.6477 21.8829 14.4399 23.1097C14.5221 23.237 14.6136 23.3787 14.7173 23.5373C15.0147 23.9921 15.5431 24.1845 16.0629 24.027C16.2444 23.9722 16.4057 23.9225 16.5504 23.8778C17.9459 23.4474 18.0543 23.4474 19.4495 23.8778C19.5943 23.9225 19.7556 23.9722 19.937 24.027C20.4571 24.1842 20.9853 23.992 21.2826 23.5373C21.3864 23.3786 21.4779 23.2369 21.5602 23.1094C22.3523 21.8828 22.4353 21.8131 23.7811 21.246C23.9207 21.1872 24.0762 21.1216 24.2504 21.0471C24.7498 20.8332 25.0308 20.3464 24.9664 19.8069C24.9439 19.6187 24.9228 19.4512 24.904 19.3009C24.7223 17.852 24.7411 17.7453 25.4074 16.4459C25.4765 16.311 25.5536 16.1608 25.639 15.9917C25.8842 15.5068 25.7866 14.9533 25.3905 14.5815ZM23.4809 16.4091C23.4809 19.4312 21.0222 21.8899 18 21.8899C14.9778 21.8899 12.5191 19.4312 12.5191 16.4091C12.5191 13.387 14.9778 10.9282 18 10.9282C21.0222 10.9282 23.4809 13.387 23.4809 16.4091ZM22.3559 16.4091C22.3559 14.0073 20.4018 12.0532 18 12.0532C15.5981 12.0532 13.6441 14.0073 13.6441 16.4091C13.6441 18.8109 15.5982 20.7649 18 20.7649C20.4019 20.7649 22.3559 18.8109 22.3559 16.4091ZM19.7314 14.6366L17.1399 16.9884L16.2884 16.1369C16.1827 16.0325 16.0399 15.9741 15.8913 15.9746C15.7428 15.975 15.6004 16.0343 15.4953 16.1393C15.3902 16.2444 15.331 16.3868 15.3306 16.5354C15.3301 16.684 15.3885 16.8267 15.4929 16.9324L16.7233 18.1628C16.7755 18.2151 16.8375 18.2566 16.9058 18.2849C16.9741 18.3131 17.0473 18.3277 17.1212 18.3276C17.2609 18.3277 17.3957 18.2757 17.4991 18.1816L20.4874 15.4696C20.5421 15.42 20.5865 15.3601 20.6181 15.2933C20.6496 15.2265 20.6677 15.1541 20.6713 15.0803C20.6748 15.0065 20.6638 14.9328 20.6389 14.8632C20.614 14.7937 20.5756 14.7298 20.5259 14.6751C20.4763 14.6204 20.4164 14.576 20.3496 14.5445C20.2828 14.5129 20.2104 14.4948 20.1366 14.4913C20.0628 14.4877 19.9891 14.4987 19.9196 14.5236C19.85 14.5485 19.7861 14.5869 19.7314 14.6366Z" fill="#2B675B"/>
</g>
<defs>
<clipPath id="clip0_883_2685">
<rect width="36" height="36" fill="white" transform="translate(0 0.802734)"/>
</clipPath>
</defs>
</svg>
