<svg width="200" height="245" viewBox="0 0 200 245" fill="none" xmlns="http://www.w3.org/2000/svg">
<path d="M196.231 172.631C179.821 170.061 167.082 151.041 167.082 127.941C167.082 107.721 176.862 90.6106 190.312 84.9406C191.542 84.4706 192.502 84.1906 193.292 83.9606C183.372 69.3906 166.241 57.1406 145.151 57.1406C127.611 57.1406 121.932 68.2806 102.762 68.9406C83.6015 68.2806 77.9216 57.1406 60.3716 57.1406C-24.6984 57.1406 -16.1684 209.041 63.8516 243.501C75.0316 247.321 81.4415 233.511 102.762 232.821C124.082 233.521 130.491 247.321 141.681 243.501C169.571 231.491 188.782 205.211 198.362 176.061C198.792 174.821 199.111 173.691 199.161 172.881C199.161 172.881 198.391 172.871 196.221 172.621L196.231 172.631Z" fill="black"/>
<path d="M101.902 53.9691C107.362 53.3391 125.212 50.3491 135.842 37.8191C146.462 25.2791 146.482 7.1791 146.212 1.68911C146.172 0.779105 145.372 0.109109 144.472 0.209109C139.012 0.839109 121.162 3.8291 110.532 16.3591C99.912 28.8991 99.8919 46.9991 100.162 52.4891C100.202 53.3991 101.002 54.0691 101.902 53.9691Z" fill="black"/>
</svg>
