<svg width="49" height="48" viewBox="0 0 49 48" fill="none" xmlns="http://www.w3.org/2000/svg">
<g clip-path="url(#clip0_272_1887)">
<path d="M24.5 0C11.2664 0 0.5 10.7664 0.5 24C0.5 37.2336 11.2664 48 24.5 48C37.7336 48 48.5 37.2336 48.5 24C48.5 10.7664 37.7336 0 24.5 0ZM24.5 46.4C12.1488 46.4 2.1 36.3512 2.1 24C2.1 11.6488 12.1488 1.6 24.5 1.6C36.8512 1.6 46.9 11.6488 46.9 24C46.9 36.3512 36.8512 46.4 24.5 46.4Z" fill="#D369D2"/>
<path d="M24.5009 3.19922C13.7929 3.19922 4.6897 11.5488 3.7777 22.2072C3.75048 22.5352 3.79145 22.8654 3.89801 23.1768C4.00457 23.4882 4.17443 23.7742 4.3969 24.0168C4.62315 24.2631 4.89798 24.4599 5.20406 24.5947C5.51015 24.7295 5.84085 24.7994 6.1753 24.8H11.0001C12.2113 24.8 13.2345 23.8784 13.3817 22.656C14.0561 17.0376 18.8361 12.8 24.5009 12.8C26.6673 12.8 28.7249 13.4104 30.5169 14.5648C27.8641 16.5008 24.8401 18.8992 22.3217 21.408C21.1649 22.564 20.9529 24.3568 21.8153 25.6648C22.1206 26.1416 22.5408 26.534 23.0373 26.8058C23.5339 27.0777 24.0908 27.2204 24.6569 27.2208C25.1003 27.221 25.5393 27.1336 25.9487 26.9635C26.3581 26.7934 26.7298 26.544 27.0425 26.2296C29.5721 23.7008 31.9881 20.6568 33.9345 17.988C34.8421 19.3965 35.4184 20.9926 35.6201 22.656C35.7657 23.8776 36.7889 24.8 38.0009 24.8H42.8257C43.4993 24.8 44.1473 24.5152 44.6041 24.0168C44.8269 23.7747 44.9969 23.489 45.1035 23.1778C45.2101 22.8666 45.2509 22.5366 45.2233 22.2088C44.7981 17.3305 42.6658 12.7586 39.2017 9.29762C35.2689 5.36482 30.0489 3.19922 24.5009 3.19922ZM23.7009 4.83842V11.2368C20.8645 11.4101 18.1668 12.524 16.0345 14.4024L11.5297 9.89762C14.8616 6.82665 19.1739 5.03438 23.7009 4.83842ZM11.7921 22.4656C11.7417 22.8912 11.4081 23.2 11.0001 23.2H6.1753C5.9489 23.2 5.7297 23.104 5.5761 22.936C5.50255 22.8573 5.44633 22.7639 5.41105 22.6621C5.37578 22.5603 5.36223 22.4522 5.3713 22.3448C5.7441 17.9952 7.5985 14.0656 10.4009 11.0312L14.9105 15.5408C13.1907 17.4781 12.1028 19.8939 11.7921 22.4656ZM25.3009 11.2328V4.81842C29.8378 4.99703 34.1615 6.79103 37.4921 9.87682L36.1201 11.2488C35.9321 11.2061 35.7373 11.2018 35.5476 11.2363C35.3578 11.2708 35.177 11.3434 35.0161 11.4496C33.964 12.14 32.9239 12.8483 31.8961 13.5744C29.9641 12.1849 27.6773 11.3726 25.3017 11.232L25.3009 11.2328ZM25.9121 25.0984C25.7248 25.2865 25.4977 25.4303 25.2475 25.519C24.9974 25.6078 24.7305 25.6393 24.4665 25.6112C23.9265 25.5544 23.4617 25.264 23.1537 24.7904C22.7041 24.1072 22.8297 23.1616 23.4513 22.5408C27.2841 18.7232 32.3545 15.1376 35.3609 13.14C33.3609 16.1536 29.7569 21.2544 25.9121 25.0984ZM43.4265 22.936C43.2729 23.104 43.0537 23.2 42.8273 23.2H38.0025C37.5945 23.2 37.2609 22.892 37.2113 22.4664C36.955 20.3515 36.1704 18.3351 34.9297 16.6032C35.6541 15.5763 36.3611 14.5372 37.0505 13.4864C37.2737 13.1464 37.3257 12.7536 37.2497 12.3832L38.6129 11.02C41.4873 14.144 43.2705 18.128 43.6313 22.3456C43.6405 22.4528 43.6271 22.5607 43.5918 22.6623C43.5565 22.7639 43.5002 22.8577 43.4265 22.936ZM27.0841 30.42C26.9087 30.3786 26.7245 30.3977 26.5613 30.4741C26.3981 30.5504 26.2655 30.6797 26.1849 30.8408L24.5009 34.2096L22.8169 30.8408C22.7361 30.6799 22.6034 30.5508 22.4403 30.4745C22.2772 30.3981 22.0931 30.3789 21.9177 30.42C21.5569 30.5056 21.3009 30.828 21.3009 31.1992V39.1992C21.3009 39.4114 21.3852 39.6149 21.5352 39.7649C21.6852 39.9149 21.8887 39.9992 22.1009 39.9992C22.3131 39.9992 22.5166 39.9149 22.6666 39.7649C22.8166 39.6149 22.9009 39.4114 22.9009 39.1992V34.588L23.7849 36.3568C24.0569 36.8992 24.9441 36.8992 25.2161 36.3568L26.1001 34.588V39.1992C26.1001 39.4114 26.1844 39.6149 26.3344 39.7649C26.4844 39.9149 26.6879 39.9992 26.9001 39.9992C27.1123 39.9992 27.3158 39.9149 27.4658 39.7649C27.6158 39.6149 27.7001 39.4114 27.7001 39.1992V31.1992C27.7001 30.828 27.4457 30.5064 27.0841 30.42ZM35.7009 31.9992C35.9131 31.9992 36.1166 31.9149 36.2666 31.7649C36.4166 31.6149 36.5009 31.4114 36.5009 31.1992C36.5009 30.987 36.4166 30.7836 36.2666 30.6335C36.1166 30.4835 35.9131 30.3992 35.7009 30.3992H30.9009C30.6887 30.3992 30.4852 30.4835 30.3352 30.6335C30.1852 30.7836 30.1009 30.987 30.1009 31.1992C30.1009 31.4114 30.1852 31.6149 30.3352 31.7649C30.4852 31.9149 30.6887 31.9992 30.9009 31.9992H32.5009V38.3992H30.9009C30.6887 38.3992 30.4852 38.4835 30.3352 38.6335C30.1852 38.7836 30.1009 38.987 30.1009 39.1992C30.1009 39.4114 30.1852 39.6149 30.3352 39.7649C30.4852 39.9149 30.6887 39.9992 30.9009 39.9992H35.7009C35.9131 39.9992 36.1166 39.9149 36.2666 39.7649C36.4166 39.6149 36.5009 39.4114 36.5009 39.1992C36.5009 38.987 36.4166 38.7836 36.2666 38.6335C36.1166 38.4835 35.9131 38.3992 35.7009 38.3992H34.1009V31.9992H35.7009ZM18.9009 33.1992C18.9009 31.6552 17.6449 30.3992 16.1009 30.3992H13.3009C13.0887 30.3992 12.8852 30.4835 12.7352 30.6335C12.5852 30.7836 12.5009 30.987 12.5009 31.1992V39.1992C12.5009 39.4114 12.5852 39.6149 12.7352 39.7649C12.8852 39.9149 13.0887 39.9992 13.3009 39.9992H16.1009C17.6449 39.9992 18.9009 38.7432 18.9009 37.1992C18.9009 36.4152 18.5753 35.708 18.0545 35.1992C18.3222 34.9394 18.5351 34.6286 18.6804 34.285C18.8258 33.9415 18.9008 33.5723 18.9009 33.1992ZM17.3009 37.1992C17.3009 37.8608 16.7625 38.3992 16.1009 38.3992H14.1009V35.9992H16.1009C16.7625 35.9992 17.3009 36.5376 17.3009 37.1992ZM14.1009 34.3992V31.9992H16.1009C16.7625 31.9992 17.3009 32.5376 17.3009 33.1992C17.3009 33.8608 16.7625 34.3992 16.1009 34.3992H14.1009Z" fill="#D369D2"/>
</g>
<defs>
<clipPath id="clip0_272_1887">
<rect width="48" height="48" fill="white" transform="translate(0.5)"/>
</clipPath>
</defs>
</svg>
