<svg width="49" height="48" viewBox="0 0 49 48" fill="none" xmlns="http://www.w3.org/2000/svg">
<path d="M15.5938 19.8169V15.0938C15.5938 12.5054 17.6928 10.4062 20.2812 10.4062H33.4062C35.9947 10.4062 38.0938 12.5054 38.0938 15.0938V27.75C38.0938 29.0458 37.0438 30.0938 35.75 30.0938C34.4553 30.0938 33.4062 29.0447 33.4062 27.75" stroke="#2B675B" stroke-width="1.875" stroke-miterlimit="10" stroke-linecap="round" stroke-linejoin="round"/>
<path d="M33.4062 18.1875V43.6875C33.4062 44.5931 33.0387 45.4144 32.4453 46.0078C31.8519 46.6012 31.0306 46.9688 30.125 46.9688C28.3128 46.9688 26.8438 45.4997 26.8438 43.6875C26.8438 45.501 25.3738 46.9688 23.5625 46.9688C21.7503 46.9688 20.2812 45.4997 20.2812 43.6875V42.7828M20.2812 21.1547V18.1875" stroke="#2B675B" stroke-width="1.875" stroke-miterlimit="10" stroke-linecap="round" stroke-linejoin="round"/>
<path d="M26.8438 10.4062C29.4326 10.4062 31.5312 8.30758 31.5312 5.71875C31.5312 3.12992 29.4326 1.03125 26.8438 1.03125C24.2549 1.03125 22.1562 3.12992 22.1562 5.71875C22.1562 8.30758 24.2549 10.4062 26.8438 10.4062Z" stroke="#2B675B" stroke-width="1.875" stroke-miterlimit="10" stroke-linecap="round" stroke-linejoin="round"/>
<path d="M26.8438 43.6875V31.9688" stroke="#2B675B" stroke-width="1.875" stroke-miterlimit="10" stroke-linecap="round" stroke-linejoin="round"/>
<path d="M14.6562 44.1562C21.3872 44.1562 26.8438 38.6997 26.8438 31.9688C26.8438 25.2378 21.3872 19.7812 14.6562 19.7812C7.92528 19.7812 2.46875 25.2378 2.46875 31.9688C2.46875 38.6997 7.92528 44.1562 14.6562 44.1562Z" stroke="#2B675B" stroke-width="1.875" stroke-miterlimit="10" stroke-linecap="round" stroke-linejoin="round"/>
<path d="M14.6562 40.4062C19.3162 40.4062 23.0938 36.6287 23.0938 31.9688C23.0938 27.3088 19.3162 23.5312 14.6562 23.5312C9.99635 23.5312 6.21875 27.3088 6.21875 31.9688C6.21875 36.6287 9.99635 40.4062 14.6562 40.4062Z" stroke="#2B675B" stroke-width="1.875" stroke-miterlimit="10" stroke-linecap="round" stroke-linejoin="round"/>
<path d="M14.6562 33.8438C15.6918 33.8438 16.5312 33.0043 16.5312 31.9688C16.5312 30.9332 15.6918 30.0938 14.6562 30.0938C13.6207 30.0938 12.7812 30.9332 12.7812 31.9688C12.7812 33.0043 13.6207 33.8438 14.6562 33.8438Z" stroke="#2B675B" stroke-width="1.875" stroke-miterlimit="10" stroke-linecap="round" stroke-linejoin="round"/>
<path d="M16.5312 31.9688H19.3438M46.5312 0.9375V47.0625M42.7812 3.84375H46.5312M42.7812 9.46875H46.5312M42.7812 15.0938H46.5312M42.7812 20.7188H46.5312M42.7812 26.3438H46.5312M42.7812 31.9688H46.5312" stroke="#2B675B" stroke-width="1.875" stroke-miterlimit="10" stroke-linecap="round" stroke-linejoin="round"/>
</svg>
