<svg width="712" height="228" viewBox="0 0 712 228" fill="none" xmlns="http://www.w3.org/2000/svg">
<path d="M208.74 4.03906L149.62 151.969L125.8 26.5591C123.32 13.4891 111.9 4.03906 98.5998 4.03906H5.47977C2.72977 4.03906 0.509766 6.26907 0.509766 9.01907C0.509766 11.5291 2.38978 13.6491 4.87978 13.9491C35.9298 17.7291 52.5298 20.8891 65.5798 44.9691C79.2298 70.1491 89.6998 138.939 112.45 223.179H174.08L268.76 4.03906H208.74Z" fill="#1534CC"/>
<path d="M295.099 4.03906L248.879 223.179H302.539L348.759 4.03906H295.099Z" fill="#1534CC"/>
<path d="M456.699 93.0184C437.809 84.2884 421.269 76.4484 421.269 62.9384C421.269 52.5784 432.589 41.7984 456.059 41.7984C476.779 41.2884 495.189 48.5784 502.529 52.6184L518.589 12.1984C507.659 6.59844 490.289 0.148438 460.319 0.148438C411.079 0.148438 369.129 26.3784 369.129 71.8584C369.129 103.298 395.639 120.408 420.959 131.488C443.019 141.228 453.149 148.938 453.149 160.798C453.149 177.758 435.409 185.368 417.449 185.368C394.229 185.368 373.289 178.348 358.489 169.438L340.959 208.908C353.019 217.888 377.589 227.098 410.859 227.098C461.989 227.098 505.799 202.518 505.799 152.668C505.799 123.548 486.249 106.258 456.689 93.0284L456.699 93.0184Z" fill="#1534CC"/>
<path d="M666.54 4.03906H614.41C604 4.03906 594.62 10.3091 590.63 19.9191L506.33 223.179H564.95L577.48 191.269H652.52L658.62 223.179H711.76L666.53 4.03906H666.54ZM593.56 147.099L625.15 62.0091L642.93 147.099H593.57H593.56Z" fill="#1534CC"/>
</svg>
