<svg width="240" height="245" viewBox="0 0 240 245" fill="none" xmlns="http://www.w3.org/2000/svg">
<path d="M170.719 65.9992C158.959 54.4692 142.999 47.4792 124.139 47.4792C91.4494 47.4792 63.6594 68.4792 53.5294 97.7192L14.1094 67.0192C34.3294 27.3592 75.5594 0.199219 123.129 0.199219C154.629 0.199219 183.359 12.1092 205.039 31.6792L170.719 65.9992Z" fill="#EB4335"/>
<path d="M49.4302 122.18C49.4302 130.51 50.7902 138.52 53.3102 146.01L13.8401 177.32C5.51009 160.88 0.830078 142.26 0.830078 122.5C0.830078 102.74 5.62011 83.6695 14.1101 67.0195L53.5302 97.7195C50.8702 105.39 49.4302 113.62 49.4302 122.19V122.18Z" fill="#FBBC05"/>
<path d="M203.41 214.428C182.47 233.538 154.17 244.158 123.14 244.158C75.3596 244.158 33.9696 217.078 13.8496 177.318L53.3196 146.008C63.2696 175.588 91.2197 196.888 124.15 196.888C140.6 196.528 154.75 192.658 165.85 185.018L203.41 214.438V214.428Z" fill="#34A853"/>
<path d="M203.41 214.429L165.85 185.009C178.16 176.539 186.72 163.429 190.53 145.299H122.93V99.8086H237.39C245.78 149.479 230.95 189.299 203.41 214.419V214.429Z" fill="#4285F4"/>
<path d="M14.231 177.748L13.4609 176.898L14.231 177.748Z" fill="#231F20"/>
</svg>
