<svg width="24" height="24" viewBox="0 0 24 24" fill="none" xmlns="http://www.w3.org/2000/svg">
<g clip-path="url(#clip0_1401_4200)">
<path d="M8.53953 0.269531H15.0095C19.5795 0.269531 23.2895 3.97953 23.2895 8.54953V15.0195C23.2895 19.5895 19.5795 23.2995 15.0095 23.2995H8.53953C3.97953 23.2895 0.269531 19.5795 0.269531 15.0095V8.53953C0.269531 3.97953 3.97953 0.269531 8.53953 0.269531Z" stroke="#024739" stroke-width="0.53" stroke-miterlimit="10"/>
<path d="M16.22 17.0897H17.53C17.66 17.0897 17.9 16.8497 17.93 16.7297C18.13 15.9597 17.08 16.0197 16.61 16.0797L16.21 17.0897H16.22ZM17.95 15.6597V14.5397C17.95 14.3997 17.64 14.1197 17.5 14.1197H10.67L10.62 14.1697V15.5197H11.32V14.9397C11.32 14.8697 11.47 14.7597 11.54 14.7597C11.62 14.7597 11.82 14.8497 11.82 14.9097V15.5297H12.35V14.9497C12.35 14.8797 12.5 14.7697 12.57 14.7697C12.65 14.7697 12.85 14.8597 12.85 14.9197V15.5397H13.38V14.9597C13.38 14.8797 13.54 14.7697 13.63 14.7697C13.72 14.7697 13.88 14.8797 13.88 14.9597V15.5397H14.41V14.9597C14.41 14.8797 14.57 14.7697 14.66 14.7697C14.75 14.7697 14.91 14.8797 14.91 14.9597V15.5397H15.44V14.9597C15.44 14.8797 15.6 14.7697 15.69 14.7697C15.78 14.7697 15.94 14.8797 15.94 14.9597V15.5397H16.47V14.9597C16.47 14.9097 16.6 14.7897 16.66 14.7797C17.07 14.6997 16.96 15.2997 16.97 15.5397C17.31 15.5197 17.62 15.5597 17.94 15.6697M16.29 13.6197C16.1 13.1297 15.8 12.6597 15.37 12.3497C14.34 12.6097 13.31 12.8797 12.24 12.9797C10.77 13.1297 9.39003 12.9597 7.96003 12.6297C7.65003 12.5597 7.23003 12.3897 6.94003 12.3497C6.88003 12.3497 6.86003 12.3297 6.80003 12.3597C6.73003 12.3897 6.35003 12.8197 6.29003 12.9097C5.84003 13.5397 5.67003 14.3797 5.84003 15.1397C7.95003 15.0397 10 16.1197 11.12 17.9097C11.42 17.4097 11.82 16.9897 12.23 16.5897L12.96 16.0397H10.61C10.44 16.0397 10.18 15.7797 10.14 15.6097C10.06 15.3497 10.07 14.2597 10.14 13.9997C10.17 13.9097 10.22 13.8097 10.29 13.7497C10.32 13.7297 10.53 13.5997 10.54 13.5997H16.28L16.29 13.6197ZM7.66003 8.48967H6.01003C6.01003 8.48967 5.79003 8.60967 5.77003 8.62967C5.43003 8.96967 5.70003 9.46967 6.14003 9.51967C6.29003 9.53967 7.53003 9.54967 7.59003 9.50967C7.61003 9.48967 7.62003 9.46967 7.62003 9.43967L7.65003 8.48967H7.66003ZM12.26 7.95967H12.91L12.96 7.90967V6.60967L12.91 6.55967H6.05003C5.95003 6.55967 5.63003 6.83967 5.63003 6.93967V8.08967C5.74003 8.06967 5.94003 7.95967 6.05003 7.95967H6.60003C6.62003 7.70967 6.48003 7.14967 6.88003 7.18967C6.94003 7.18967 7.10003 7.30967 7.10003 7.33967V7.95967H7.63003V7.33967C7.63003 7.28967 7.80003 7.18967 7.88003 7.18967C7.96003 7.18967 8.13003 7.28967 8.13003 7.33967V7.95967H8.66003V7.33967C8.66003 7.28967 8.83003 7.18967 8.91003 7.18967C8.99003 7.18967 9.16003 7.28967 9.16003 7.33967V7.95967H9.69003V7.33967C9.69003 7.28967 9.86003 7.18967 9.94003 7.18967C10.02 7.18967 10.19 7.28967 10.19 7.33967V7.95967H10.72V7.33967C10.72 7.28967 10.89 7.18967 10.97 7.18967C11.05 7.18967 11.22 7.28967 11.22 7.33967V7.95967H11.75V7.33967C11.75 7.28967 11.92 7.18967 12 7.18967C12.08 7.18967 12.25 7.28967 12.25 7.33967V7.95967H12.26ZM10.99 20.6197C10.93 20.5297 10.87 20.5197 10.86 20.4097C10.79 19.8797 10.97 18.9697 10.85 18.4897C10.75 18.1197 9.94003 17.2397 9.63003 16.9697C8.62003 16.0997 7.33003 15.6497 6.00003 15.6497C6.12003 15.9997 6.25003 16.3397 6.38003 16.6797C6.47003 16.9097 6.77003 17.4297 6.79003 17.6297C6.84003 17.9597 6.51003 18.0697 6.33003 17.8197C6.08003 17.4697 5.66003 16.3097 5.52003 15.8697C5.15003 14.7097 5.12003 13.7297 5.82003 12.6897C6.12003 12.2397 6.56003 11.9097 6.87003 11.4497C7.16003 11.0297 7.39003 10.5197 7.49003 10.0197H5.98003C5.66003 10.0197 5.24003 9.56967 5.15003 9.27967C5.04003 8.90967 5.06003 7.53967 5.09003 7.09967C5.14003 6.52967 5.58003 6.01967 6.17003 6.01967H7.65003V5.18967H7.13003C6.72003 5.18967 6.23003 4.87967 6.02003 4.52967C5.88003 4.29967 5.60003 3.51967 6.10003 3.54967C6.36003 3.56967 6.32003 3.92967 6.38003 4.10967C6.46003 4.35967 6.73003 4.56967 6.98003 4.63967L11.89 4.65967C12.04 4.67967 12.17 4.74967 12.18 4.90967C12.18 5.03967 12.06 5.18967 11.93 5.18967H8.15003V6.01967H12.86C12.86 6.01967 13.08 6.06967 13.12 6.08967C13.24 6.13967 13.38 6.29967 13.42 6.41967C13.5 6.66967 13.5 7.83967 13.42 8.08967C13.36 8.27967 13.09 8.48967 12.89 8.48967H8.15003C8.19003 9.39967 8.04003 10.3097 7.65003 11.1297L7.19003 11.9197C7.54003 11.9697 7.88003 12.0897 8.22003 12.1697C9.81003 12.5297 11.3 12.6297 12.92 12.3797C13.63 12.2697 14.31 12.0597 15.01 11.9197C15.06 11.8697 14.11 10.7797 14.63 10.6597C14.97 10.5797 15.04 10.9997 15.18 11.2297C15.62 11.9497 16.28 12.3897 16.65 13.1597C16.71 13.2997 16.75 13.4697 16.82 13.6097C17.59 13.5397 18.27 13.6897 18.48 14.5097V14.5397C18.42 14.5697 18.45 14.6697 18.45 14.7197C18.45 15.3397 18.5 16.0597 18.45 16.6697C18.42 16.9797 18.24 17.2497 17.98 17.4197C17.44 17.7597 16.6 17.5297 15.99 17.6197C15.64 18.2997 15.33 18.9997 14.98 19.6697C14.81 19.9897 14.65 20.3197 14.43 20.5997H14.23C14.12 20.5197 14.02 20.4197 14.08 20.2697C14.81 18.8897 15.52 17.4997 16.1 16.0397H14.09C13.89 16.0397 12.83 16.7697 12.63 16.9397C12.33 17.1997 11.44 18.1497 11.38 18.5197C11.3 19.0597 11.45 19.7997 11.38 20.3497C11.37 20.4697 11.31 20.5097 11.25 20.5997H11.02L10.99 20.6197Z" fill="#024739"/>
<path d="M8.00091 20.6191H7.80091C7.71091 20.5391 7.66091 20.4491 7.60091 20.3391C7.32091 19.8491 7.10091 19.3391 6.83091 18.8491C6.74091 18.5191 7.09091 18.3391 7.30091 18.6391C7.62091 19.1091 7.83091 19.7991 8.16091 20.2791C8.22091 20.4291 8.12091 20.5291 8.01091 20.6091" fill="#024739"/>
<path d="M18.4793 16.6905H18.4493C18.4993 16.0805 18.4493 15.3605 18.4493 14.7405C18.4493 14.6805 18.4293 14.5905 18.4793 14.5605V16.6905Z" fill="#024739"/>
<path d="M13.1107 5.19906C12.7907 5.14906 12.7507 4.72906 13.1107 4.67906C13.6807 4.58906 14.9407 4.80906 15.3907 4.58906C15.5407 4.51906 15.7007 4.34906 15.7707 4.19906C15.8807 3.95906 15.7907 3.54906 16.1407 3.56906C16.5607 3.59906 16.3007 4.33906 16.1607 4.55906C15.9507 4.87906 15.4707 5.20906 15.0807 5.20906H14.5607C14.6007 6.43906 14.5007 7.69906 14.5607 8.91906C14.5707 9.18907 14.6707 9.57906 14.6607 9.81906C14.6607 10.0291 14.4407 10.1191 14.2707 10.0391C14.0707 9.94906 14.1307 9.46906 14.0607 9.27906V5.19906C13.7707 5.16906 13.3907 5.23906 13.1107 5.19906Z" fill="#024739"/>
<path d="M10.9406 11.2208C10.8206 11.1008 10.8106 10.5708 11.0206 10.5008C11.6506 10.3108 11.4006 11.6708 10.9406 11.2208Z" fill="#024739"/>
</g>
<defs>
<clipPath id="clip0_1401_4200">
<rect width="23.56" height="23.55" fill="white"/>
</clipPath>
</defs>
</svg>
