<svg width="24" height="24" viewBox="0 0 24 24" fill="none" xmlns="http://www.w3.org/2000/svg">
<g clip-path="url(#clip0_1401_4119)">
<path d="M8.53953 0.269531H15.0095C19.5795 0.269531 23.2895 3.97953 23.2895 8.54953V15.0195C23.2895 19.5895 19.5795 23.2995 15.0095 23.2995H8.53953C3.97953 23.2895 0.269531 19.5795 0.269531 15.0095V8.53953C0.269531 3.97953 3.97953 0.269531 8.53953 0.269531Z" stroke="#024739" stroke-width="0.53" stroke-miterlimit="10"/>
<path d="M12.1595 16.2892C12.1595 16.2892 11.8895 16.4392 11.8195 16.4792C10.3995 17.2392 8.36952 16.8092 7.08952 15.9692C6.85952 15.8192 6.64952 15.6292 6.42952 15.4692C6.07952 15.5392 4.77952 15.8392 4.62952 16.1292C4.52952 16.3392 5.03952 16.5192 5.19952 16.5792C6.60952 17.1092 8.71952 17.2292 10.2395 17.2792C12.4295 17.3492 15.8795 17.3392 17.9195 16.5792C18.0895 16.5192 18.6095 16.3292 18.4695 16.1092C18.3995 15.9892 17.7795 15.6792 17.6595 15.7492C17.6095 15.7792 17.4395 16.0192 17.3495 16.0892C16.7195 16.6392 15.8195 16.7892 15.0295 16.4692C14.8295 16.3892 14.6695 16.2692 14.4795 16.1692C14.2495 16.3792 14.0795 16.6392 13.7695 16.7692C13.2295 16.9892 12.3895 16.8492 12.1595 16.2792M16.8095 13.8892C16.7195 14.2492 16.5095 14.5492 16.1495 14.7092C16.0195 14.7692 15.7995 14.7892 15.7295 14.8292C15.6395 14.8792 15.2295 15.3792 15.1295 15.4892C15.0695 15.5592 14.7995 15.7692 14.8495 15.8492C14.8795 15.8892 15.1495 16.0292 15.2095 16.0592C16.6295 16.6192 18.0195 15.2392 17.3795 13.9092C17.3295 13.8092 17.1195 13.4592 17.0095 13.4892C16.7895 13.5492 16.8495 13.7192 16.8095 13.8892ZM11.9595 15.7392C10.0295 16.3692 7.63952 15.5792 6.45952 14.0292L6.08952 13.3392C5.77952 14.5892 7.11952 15.5892 8.18952 16.0192C9.19952 16.4292 10.8895 16.6692 11.7895 15.9292C11.8095 15.9092 11.9795 15.7692 11.9495 15.7392M12.2395 15.0492C12.3495 14.8692 12.0895 14.3092 11.9795 14.1392C11.0995 12.7092 8.30952 11.8192 6.75952 12.6392C6.71952 12.6592 6.52952 12.7692 6.52952 12.7792C6.46952 12.9992 6.70952 13.5292 6.83952 13.7192C7.73952 15.0992 10.3795 15.9592 11.9295 15.2292C11.9695 15.2092 12.2295 15.0592 12.2395 15.0392M13.8095 12.5092C13.3195 12.5492 12.9395 12.8192 12.9995 13.3192C13.0495 13.7792 13.6295 13.8292 13.5095 14.4692C13.4295 14.9092 12.9195 15.1092 12.7095 15.4192C12.6895 15.4492 12.5195 15.8192 12.5095 15.8392C12.4795 15.9992 12.6495 16.2292 12.7795 16.3092C13.0195 16.4592 13.5095 16.4392 13.7295 16.2592L15.4695 14.3792C15.9495 14.3692 16.3795 14.0992 16.3195 13.5992C16.3195 13.5092 16.1995 13.3092 16.2495 13.2492C16.2695 13.2292 16.5095 13.1892 16.5695 13.1692C17.1795 12.9592 17.1995 12.1292 16.5895 11.9092C16.4695 11.8692 16.2295 11.8792 16.2295 11.7592C16.2395 11.5392 16.3895 11.4992 16.2595 11.1992C15.9295 10.4192 14.8495 10.6792 14.8595 11.4892C14.5495 11.4392 14.3595 11.3392 14.0595 11.4892C13.6495 11.6792 13.6395 12.1492 13.7895 12.5192M16.8295 11.4892C16.8295 11.4892 16.8895 11.4692 16.9195 11.4492C17.9195 10.7192 18.1295 9.31922 17.0595 8.54922C16.5395 8.17922 15.9595 8.17922 15.3295 8.22922C12.8395 8.43922 10.5095 9.87922 9.35952 11.9792C10.8195 12.3392 12.2795 13.1892 12.6895 14.6492C12.6895 14.6792 12.6795 14.7392 12.7395 14.7092C12.7695 14.7092 12.9295 14.5292 12.9495 14.4992C13.1495 14.1892 12.8695 14.0892 12.7095 13.8792C12.3395 13.3892 12.4395 12.6992 12.9295 12.3292C12.9895 12.2892 13.1995 12.1792 13.2095 12.1692C13.2295 12.1392 13.2095 11.9592 13.2095 11.8892C13.2795 11.4092 13.7395 11.0092 14.2395 10.9392C14.3095 10.9292 14.4795 10.9492 14.5095 10.9392C14.5195 10.9392 14.6195 10.7292 14.6695 10.6692C15.4295 9.78922 16.8195 10.4492 16.8095 11.4992M10.3295 7.29922H7.48952V8.17922C6.90952 8.21922 6.37952 8.52922 6.15952 9.04922C6.11952 9.13922 6.03952 9.39922 6.03952 9.48922V12.5692C6.11952 12.4792 6.47952 12.2892 6.49952 12.1992V9.43922C6.49952 9.43922 6.51952 9.33922 6.53952 9.33922H6.98952V12.0192C7.58952 11.8692 8.21952 11.7992 8.83952 11.9092C9.48952 10.7392 10.4195 9.72922 11.5895 9.00922C11.6395 8.93922 11.5195 8.79922 11.4695 8.73922C11.3195 8.55922 11.0795 8.37922 10.8595 8.29922C10.7695 8.26922 10.3295 8.18922 10.3295 8.13922V7.29922ZM11.3195 6.82922V6.42922L11.2795 6.38922H6.52952V6.82922H11.3195ZM7.48952 5.18922C7.44952 5.37922 7.51952 5.70922 7.48952 5.91922H10.3295V5.15922C10.3295 5.10922 10.1995 5.02922 10.1395 5.03922C9.35952 5.09922 8.46952 4.96922 7.69952 5.03922C7.60952 5.03922 7.50952 5.09922 7.47952 5.18922M18.9795 16.3192C18.6395 16.9692 17.6695 17.1792 16.9795 17.3292C14.8895 17.7792 12.4795 17.8192 10.3495 17.7592C8.80952 17.7092 7.02952 17.6092 5.53952 17.1892C5.01952 17.0492 3.94952 16.6992 4.13952 16.0192C4.28952 15.4892 5.55952 15.1492 6.06952 15.0792C6.08952 15.0592 5.83952 14.6992 5.80952 14.6492C5.69952 14.4492 5.63952 14.2292 5.57952 14.0092C5.58952 12.5592 5.43952 10.9792 5.53952 9.54922C5.59952 8.71922 6.12952 8.02922 6.97952 7.79922V7.29922H6.36952C6.26952 7.29922 6.07952 7.08922 6.05952 6.98922C6.01952 6.85922 6.01952 6.45922 6.03952 6.31922C6.05952 6.15922 6.28952 5.91922 6.45952 5.91922H6.99952C6.99952 5.35922 6.88952 4.66922 7.64952 4.56922C8.45952 4.61922 9.33952 4.50922 10.1495 4.56922C10.3895 4.58922 10.5595 4.66922 10.6995 4.84922C10.9295 5.13922 10.7895 5.57922 10.8295 5.92922H11.3695C11.4995 5.92922 11.7195 6.08922 11.7595 6.21922C11.7995 6.33922 11.8095 6.87922 11.7695 7.00922C11.7495 7.09922 11.5295 7.30922 11.4495 7.30922H10.8695C10.7995 7.30922 10.8295 7.72922 10.8295 7.79922C11.3595 7.93922 11.7895 8.28922 12.0595 8.73922C12.9695 8.26922 14.0095 7.90922 15.0495 7.80922C15.9195 7.71922 16.7195 7.68922 17.4295 8.24922C18.3095 8.93922 18.5295 10.1392 17.9295 11.0692C17.7595 11.3392 17.4895 11.5292 17.2695 11.7692C17.3095 11.8992 17.4095 11.9992 17.4595 12.1292C17.5995 12.4892 17.5595 12.7992 17.3795 13.1392C17.9695 13.6992 18.1695 14.5392 17.8995 15.2892C18.2995 15.4892 18.8195 15.6192 18.9695 16.0792V16.3292L18.9795 16.3192Z" fill="#024739"/>
<path d="M10.2407 18.6904C8.92075 18.6404 5.44075 18.3904 4.44075 17.6204C4.27075 17.4904 4.10075 17.3004 4.12075 17.0804H4.61075C4.61075 17.0804 4.61075 17.1604 4.70075 17.2304C5.23075 17.6904 7.53075 17.9904 8.29075 18.0704C10.1907 18.2604 12.3107 18.2704 14.2107 18.1204C15.0907 18.0504 17.7807 17.7504 18.4107 17.2204C18.4707 17.1704 18.5107 17.0704 18.5107 17.0704C18.6207 17.0404 18.8607 17.0904 18.9907 17.0704V17.2104C18.9407 17.3104 18.8907 17.3904 18.8207 17.4704C18.2307 18.1304 15.9907 18.4104 15.0907 18.5004L12.8107 18.6704C11.9607 18.6504 11.1007 18.7004 10.2507 18.6704" fill="#024739"/>
<path d="M15.1191 15.4906C15.2191 15.3806 15.6291 14.8806 15.7191 14.8306C15.7891 14.7906 16.0091 14.7706 16.1391 14.7106C16.4991 14.5506 16.7191 14.2506 16.7991 13.8906C17.6491 14.9806 16.2591 16.2706 15.1191 15.4906Z" fill="#024739"/>
<path d="M12.3902 12.3207C12.4202 12.3707 12.1902 12.7207 12.1002 12.7007L10.4902 11.6207V11.5407L10.7602 11.2207L12.4002 12.3307L12.3902 12.3207Z" fill="#024739"/>
<path d="M13.1195 11.1905C13.1195 11.1905 12.9395 11.5205 12.8995 11.5505C12.8695 11.5705 12.8595 11.5905 12.8195 11.5805C12.6595 11.4705 11.4295 10.7405 11.4395 10.6605C11.4395 10.6205 11.6695 10.3105 11.7095 10.3105L13.1195 11.1905Z" fill="#024739"/>
<path d="M14.0707 10.2806C14.0707 10.2806 13.8907 10.6106 13.8507 10.6406C13.8207 10.6606 13.8107 10.6806 13.7707 10.6606C13.6207 10.5406 12.3807 9.83062 12.3907 9.74062C12.3907 9.70062 12.6207 9.39062 12.6607 9.39062L14.0707 10.2706V10.2806Z" fill="#024739"/>
<path d="M14.0895 8.74047C14.1595 8.73047 15.1295 9.52047 15.2795 9.62047C15.2995 9.64047 15.2895 9.65047 15.2795 9.67047C15.2795 9.69047 15.0495 9.95047 15.0295 9.96047C15.0195 9.96047 15.0095 9.98047 14.9895 9.96047L13.8195 9.08047C13.7995 9.02047 14.0495 8.73047 14.0895 8.73047" fill="#024739"/>
<path d="M15.8808 13.0105H15.3908C15.3908 13.0105 15.3908 12.7005 15.0608 12.8005C14.8808 12.8505 14.9308 13.1005 14.9208 13.2405C14.7408 13.2205 14.4508 13.2205 14.4308 13.4505C14.4108 13.6505 14.6908 13.6905 14.6908 13.7205V14.1505C14.0108 14.1505 13.6608 13.3605 14.2108 12.9405C14.2808 12.8805 14.4008 12.8505 14.4408 12.8005C14.4908 12.7605 14.5208 12.6605 14.5708 12.5905C15.0108 12.0605 15.8608 12.3505 15.8808 13.0205" fill="#024739"/>
<path d="M8.96014 13.0199C10.4201 12.8199 10.4601 14.8299 9.16014 14.8299C7.98014 14.8299 7.89014 13.1699 8.96014 13.0199Z" fill="#024739"/>
</g>
<defs>
<clipPath id="clip0_1401_4119">
<rect width="23.56" height="23.55" fill="white"/>
</clipPath>
</defs>
</svg>
