<svg width="24" height="24" viewBox="0 0 24 24" fill="none" xmlns="http://www.w3.org/2000/svg">
<g clip-path="url(#clip0_1401_4140)">
<path d="M8.53953 0.269531H15.0095C19.5795 0.269531 23.2895 3.97953 23.2895 8.54953V15.0195C23.2895 19.5895 19.5795 23.2995 15.0095 23.2995H8.53953C3.97953 23.2895 0.269531 19.5795 0.269531 15.0095V8.53953C0.269531 3.97953 3.97953 0.269531 8.53953 0.269531Z" stroke="#024739" stroke-width="0.53" stroke-miterlimit="10"/>
<path d="M10.5798 3.92992C8.32984 4.09992 7.00984 6.59992 8.18984 8.54992C9.47984 10.6799 12.6998 10.4399 13.6298 8.12992C14.4798 6.02992 12.8298 3.75992 10.5798 3.92992ZM11.1798 3.42992L12.0298 3.62992C13.3998 4.13992 14.3498 5.44992 14.3698 6.91992C15.0498 7.41992 15.5198 8.25992 15.8598 9.01992C16.5398 10.5299 17.2198 12.3699 17.7798 13.9499C18.0598 14.7499 18.1398 15.2899 17.3998 15.8599C16.8898 16.2499 16.4498 16.2799 15.8898 16.4599C15.2198 16.6899 14.6098 17.0099 13.8898 17.1999C13.6898 17.2499 13.1998 17.4499 13.1198 17.1799C12.9898 16.7799 13.6398 16.7599 13.9198 16.6699C14.7098 16.4199 15.4698 16.0999 16.2598 15.8499C16.7998 15.6799 17.6098 15.3299 17.4998 14.6299C16.7898 12.8899 16.2098 11.0499 15.4598 9.32992C15.1798 8.68992 14.8298 8.01992 14.3298 7.52992C14.2898 7.76992 14.2298 7.99992 14.1398 8.21992C14.0898 8.36992 13.7598 8.93992 13.7598 8.97992C13.7598 9.03992 13.9998 9.33992 14.0498 9.43992C14.4798 10.3099 14.0998 11.2599 14.2998 12.2299C14.3698 12.5599 14.7998 13.3499 14.1498 13.2199C13.0498 12.0199 11.4698 11.7599 9.96984 12.3599C9.54984 12.5299 9.18984 12.8699 8.74984 13.0699C8.52984 13.1699 7.86984 13.4899 7.79984 13.1199C7.71984 12.7399 8.41984 12.7299 8.63984 12.5699L9.22984 12.1899C8.35984 11.9899 7.47984 11.8799 6.58984 12.0399C6.25984 12.0999 5.74984 12.3999 5.58984 12.0299V11.9299C5.67984 11.7299 5.91984 11.6799 6.11984 11.6299C7.04984 11.3699 8.17984 11.4499 9.10984 11.6499C9.29984 11.6899 9.69984 11.8599 9.84984 11.8599C9.95984 11.8599 10.4198 11.6899 10.5898 11.6599C11.7398 11.4099 12.8598 11.5399 13.8098 12.2599C13.7998 12.1199 13.7498 11.9899 13.7398 11.8499C13.7098 11.2999 13.8198 10.6799 13.7698 10.1599C13.7398 9.88992 13.5898 9.60992 13.4298 9.38992C11.8698 11.0299 9.17984 10.8399 7.88984 8.95992C6.59984 7.06992 7.42984 4.48992 9.51984 3.65992L10.3698 3.41992H11.1798V3.42992Z" fill="#024739"/>
<path d="M5.57055 19.9294V19.8294C5.75055 19.5894 6.05055 19.4394 6.29055 19.2294C6.74055 18.8294 7.74055 17.8294 8.00055 17.3194C8.12055 17.0794 8.13055 16.7794 8.36055 16.6094C8.77055 16.2994 9.28055 16.7194 9.66055 16.8694C10.3105 17.1194 11.0605 17.1094 11.7505 17.0994C11.9305 17.0994 12.2405 16.9694 12.3505 17.1794C12.4405 17.3394 12.3605 17.4994 12.2005 17.5494C12.0805 17.5894 11.7005 17.6094 11.5505 17.6194C10.9005 17.6494 10.1205 17.5694 9.50055 17.3494C9.35055 17.2994 8.76055 16.9794 8.68055 16.9994C8.63055 17.0194 8.46055 17.4994 8.40055 17.6094C8.03055 18.2594 6.88055 19.4294 6.27055 19.8794C6.03055 20.0594 5.75055 20.3094 5.56055 19.9294" fill="#024739"/>
<path d="M6.90043 13.8007C7.13043 13.7507 7.32043 13.9507 7.20043 14.1607C6.85043 14.4807 6.54043 14.7607 6.28043 15.1607C6.21043 15.2707 6.13043 15.5207 6.03043 15.5907C5.86043 15.7307 5.59043 15.5907 5.61043 15.3707C5.63043 15.1607 6.06043 14.5807 6.21043 14.4107C6.31043 14.3007 6.79043 13.8207 6.90043 13.8007Z" fill="#024739"/>
<path d="M15.5907 14.7899C15.6807 14.7099 16.0607 14.6499 16.1207 14.5499C16.2107 14.3999 15.9507 14.1399 16.1707 13.9799C16.5907 13.6699 16.8307 14.5699 16.4507 14.9399C16.3507 15.0399 15.8707 15.2499 15.7407 15.2299C15.5307 15.2099 15.4507 14.9199 15.6007 14.7799" fill="#024739"/>
<path d="M9.10988 5.79044C9.27988 5.96044 9.01988 6.34044 8.96988 6.56044C8.55988 8.48044 11.0099 9.67044 12.2499 8.17044C13.4499 6.72044 12.0199 4.61044 10.2099 5.19044C9.98988 5.26044 9.63988 5.57044 9.45988 5.32044C9.20988 4.97044 9.96988 4.73044 10.2099 4.67044C12.3699 4.14044 14.0299 6.54044 12.7299 8.36044C11.3299 10.3204 8.18988 9.14044 8.43988 6.67044C8.45988 6.43044 8.71988 5.39044 9.10988 5.78044" fill="#024739"/>
<path d="M11.2299 7.39952C11.3299 7.29952 11.4099 7.11952 11.4099 6.96952C11.3899 6.19952 10.1699 6.16952 10.2299 7.03952C10.2699 7.53952 10.8799 7.72952 11.2299 7.39952ZM10.6799 5.87952C12.1399 5.71952 12.3299 7.88952 10.9599 8.04952C9.4799 8.21952 9.2799 6.02952 10.6799 5.87952Z" fill="#024739"/>
</g>
<defs>
<clipPath id="clip0_1401_4140">
<rect width="23.56" height="23.55" fill="white"/>
</clipPath>
</defs>
</svg>
