<svg width="24" height="24" viewBox="0 0 24 24" fill="none" xmlns="http://www.w3.org/2000/svg">
<g clip-path="url(#clip0_1401_4149)">
<path d="M8.53953 0.269531H15.0095C19.5795 0.269531 23.2895 3.97953 23.2895 8.54953V15.0195C23.2895 19.5895 19.5795 23.2995 15.0095 23.2995H8.53953C3.97953 23.2895 0.269531 19.5795 0.269531 15.0095V8.53953C0.269531 3.97953 3.97953 0.269531 8.53953 0.269531Z" stroke="#024739" stroke-width="0.53" stroke-miterlimit="10"/>
<path d="M10.7298 16.9808C10.7198 16.3408 10.7898 15.7108 10.9298 15.0908C10.9698 14.9208 11.1598 14.3308 11.1498 14.2308C11.1298 14.0508 10.7398 13.4408 10.6198 13.2608C9.25983 11.4108 7.34983 11.9308 5.51983 11.0608C5.29983 10.9608 5.05983 10.7608 4.85983 10.6808C4.81983 10.6608 4.78983 10.6508 4.74983 10.6608C3.85983 13.3208 5.19983 16.6208 7.95983 17.4808C8.76983 17.7308 9.62983 17.7808 10.4598 17.6208C9.76983 16.3708 8.64983 15.3308 7.52983 14.4608C7.36983 14.3408 6.85983 14.0508 6.82983 13.8808C6.79983 13.7108 6.93983 13.5408 7.10983 13.5608C7.24983 13.5708 7.88983 14.0708 8.03983 14.1908C9.06983 14.9808 9.98983 15.9108 10.7298 16.9808ZM3.95983 11.7608C3.98983 11.4408 4.24983 10.3108 4.42983 10.0808C4.47983 10.0108 4.56983 9.96081 4.65983 9.97081C4.99983 10.1408 5.29983 10.3708 5.64983 10.5408C6.97983 11.1908 8.43983 11.0508 9.72983 11.7708C10.4698 12.1808 11.0698 12.8308 11.4498 13.5908C12.2098 12.3308 13.4798 11.7108 14.8798 11.4008C16.2098 11.1108 16.9998 11.0508 18.2098 10.3308C18.4298 10.2008 18.7998 9.81081 19.0398 10.0308C19.1898 10.1708 19.4498 11.1908 19.4898 11.4408C20.2198 15.5108 17.5598 19.3308 13.3598 19.6008H12.0798C11.9198 19.5508 11.6998 19.5808 11.6598 19.3608C11.6198 19.1708 11.9398 18.5808 12.0498 18.3808C12.7998 17.0008 13.9598 15.7108 15.1898 14.7408C15.3398 14.6308 15.8398 14.2208 15.9698 14.1708C16.2498 14.0708 16.4298 14.3408 16.2898 14.5808C14.6398 15.7308 13.1998 17.2408 12.3398 19.0708C13.4098 19.1108 14.4598 18.9808 15.4498 18.5608C18.4698 17.2908 19.7198 13.6708 18.7498 10.6408C18.7098 10.6108 18.2698 10.9108 18.1898 10.9508C18.0198 11.0408 17.8298 11.1408 17.6598 11.2208C15.9498 11.9908 14.0598 11.7008 12.5798 13.0408C11.2398 14.2508 11.3298 16.2208 11.2498 17.8808C11.1898 18.0608 10.7198 18.1208 10.5398 18.1408C7.33983 18.6508 4.68983 16.7108 4.06983 13.5708C4.02983 13.3708 4.02983 13.1608 3.95983 12.9608C3.98983 12.5608 3.92983 12.1308 3.95983 11.7408" fill="#024739"/>
<path d="M9.80903 4.50991C8.02903 4.61991 7.27903 6.70991 8.42903 8.03991C8.97903 8.67991 9.75903 9.38991 10.369 10.0099C10.829 10.4799 11.299 10.9599 11.789 11.3999L15.109 8.05991C16.769 6.14991 14.499 3.57991 12.469 4.86991C12.259 4.99991 12.099 5.23991 11.939 5.33991C11.659 5.50991 11.479 5.15991 11.299 5.00991C10.899 4.67991 10.349 4.47991 9.82903 4.51991M9.74903 3.98991C10.489 3.93991 11.229 4.21991 11.759 4.73991C11.889 4.64991 11.999 4.52991 12.129 4.43991C14.609 2.67991 17.689 5.96991 15.409 8.50991C14.629 9.37991 13.679 10.2299 12.839 11.0699C12.569 11.3399 12.289 11.7199 11.989 11.9599C11.809 12.0999 11.739 12.0999 11.559 11.9599C10.479 10.7299 9.09903 9.62991 8.02903 8.39991C6.58903 6.73991 7.54903 4.13991 9.74903 3.97991" fill="#024739"/>
<path d="M8.91909 5.42065C9.10909 5.36065 9.29909 5.47065 9.29909 5.67065C9.29909 5.79065 9.06909 6.00065 9.00909 6.14065C8.90909 6.38065 8.87909 6.65065 8.94909 6.90065C9.00909 7.11065 9.31909 7.39065 9.07909 7.59065C8.69909 7.90065 8.40909 7.05065 8.37909 6.79065C8.33909 6.39065 8.44909 5.92065 8.70909 5.60065C8.73909 5.56065 8.86909 5.42065 8.90909 5.41065" fill="#024739"/>
<path d="M10.42 5.11959C10.54 5.24959 10.48 5.50959 10.32 5.55959C10.18 5.59959 9.76002 5.55959 9.71002 5.38959C9.57002 4.92959 10.26 4.92959 10.43 5.11959" fill="#024739"/>
</g>
<defs>
<clipPath id="clip0_1401_4149">
<rect width="23.56" height="23.55" fill="white"/>
</clipPath>
</defs>
</svg>
