<svg width="24" height="24" viewBox="0 0 24 24" fill="none" xmlns="http://www.w3.org/2000/svg">
<g clip-path="url(#clip0_1401_4156)">
<path d="M8.53953 0.269531H15.0095C19.5795 0.269531 23.2895 3.97953 23.2895 8.54953V15.0195C23.2895 19.5895 19.5795 23.2995 15.0095 23.2995H8.53953C3.97953 23.2895 0.269531 19.5795 0.269531 15.0095V8.53953C0.269531 3.97953 3.97953 0.269531 8.53953 0.269531Z" stroke="#024739" stroke-width="0.53" stroke-miterlimit="10"/>
<path d="M5.63937 12.6308C5.72937 11.3908 6.17937 11.0008 6.62937 9.99085C7.23937 8.64085 6.70937 7.23085 7.09937 5.85085C7.52937 4.30085 8.99937 3.10085 10.6094 2.99085C12.7294 2.85085 14.7994 2.88085 16.0394 4.85085C16.8994 6.21085 16.5494 7.28085 16.6394 8.75085C16.7194 10.0108 17.5094 10.6108 17.7894 11.7208C18.0194 12.6308 17.9394 13.6308 17.5594 14.4808C17.4794 14.6608 17.2294 15.1508 17.0794 15.2408C16.9294 15.3308 16.6994 15.2508 16.6494 15.0908C16.5794 14.8708 16.9194 14.4508 17.0194 14.2208C17.3994 13.3408 17.4194 12.3408 17.0594 11.4508C16.8794 11.0008 16.5594 10.6008 16.3594 10.1508C15.6594 8.54085 16.4794 6.81085 15.5794 5.26085C14.5494 3.48085 12.6494 3.46085 10.7994 3.57085C9.13938 3.67085 7.74938 4.87085 7.54938 6.55085C7.39938 7.80085 7.71937 8.92085 7.20937 10.1308C7.01937 10.5908 6.67937 10.9808 6.49937 11.4508C6.00937 12.6908 6.23937 14.1008 7.09937 15.1108C7.18937 15.2108 7.67937 15.7008 7.76937 15.7108C7.84937 15.7208 8.35937 15.5608 8.52937 15.5408C8.64937 15.5308 8.77937 15.5408 8.89937 15.5408C9.60937 15.4608 10.0894 14.9708 10.0794 14.2408C9.19937 13.8308 8.43938 13.0308 8.09938 12.1108C7.67938 10.9908 7.90937 9.78085 7.84937 8.61085C7.84937 8.28085 8.35938 8.26085 8.42938 8.55085C8.49938 10.0008 8.16938 11.3708 9.05938 12.6308C10.3794 14.5008 13.1494 14.4908 14.4794 12.6308C15.2994 11.4808 15.0794 10.2708 15.0994 8.94085C14.3194 8.94085 13.7894 8.36085 13.5394 7.67085C12.5094 8.30085 11.3794 8.79085 10.1894 9.03085C9.99937 9.07085 9.50938 9.18085 9.34938 9.11085C9.07938 8.98085 9.16937 8.63085 9.44937 8.54085C9.82937 8.43085 10.2994 8.39085 10.6994 8.28085C11.5994 8.03085 12.3994 7.65085 13.1994 7.17085C13.4094 7.05085 13.6394 6.78085 13.8894 6.86085C14.1094 6.93085 14.0794 7.36085 14.1494 7.57085C14.2594 7.92085 14.5194 8.22085 14.8794 8.32085C15.1194 8.39085 15.5894 8.29085 15.6594 8.53085C15.6294 9.60085 15.8194 10.8008 15.5194 11.8408C14.9194 13.8908 12.7094 15.0808 10.6594 14.4908C10.6194 14.9808 10.3694 15.4208 10.0094 15.7508L11.7494 17.1008C11.8394 17.1108 12.6094 16.4308 12.7594 16.3308C13.1694 16.0808 13.4494 16.4708 13.1694 16.7808C12.9994 16.9708 12.2394 17.5308 12.0094 17.6808C11.8694 17.7708 11.8094 17.8308 11.6294 17.7608L9.42938 16.0708C8.62938 16.1608 7.93937 16.1508 7.28937 16.7008C6.67937 17.2108 6.43937 17.8408 6.39937 18.6308C6.36937 19.1608 6.47937 19.8908 6.39937 20.3808C6.37937 20.5008 6.30937 20.5408 6.22937 20.6108H5.98937C5.90937 20.5008 5.83938 20.4708 5.81938 20.3208C5.74938 19.7708 5.77937 18.3908 5.90937 17.8608C6.01937 17.3908 6.28938 16.8908 6.60938 16.5308C6.77938 16.3408 7.00937 16.2108 7.15937 16.0208C6.38937 15.3908 5.85937 14.4808 5.68937 13.5008C5.65937 13.3208 5.65938 13.1208 5.60938 12.9408C5.60938 12.8408 5.60938 12.7308 5.60938 12.6308" fill="#024739"/>
<path d="M17.3306 20.6098C17.2506 20.5398 17.1806 20.4998 17.1606 20.3798C17.0806 19.8998 17.1906 19.1798 17.1606 18.6598C17.1106 17.6498 16.6406 16.7398 15.6706 16.3298C14.9206 16.0198 14.2506 16.2898 13.5506 15.7298C13.3506 15.5698 12.9506 15.1498 13.1806 14.8998C13.4806 14.5698 13.7506 15.1098 13.9406 15.2698C14.4006 15.6398 14.9006 15.4998 15.4406 15.6298C16.5106 15.8798 17.4006 16.7898 17.6506 17.8598C17.7706 18.3998 17.8006 19.7598 17.7406 20.3198C17.7206 20.4598 17.6706 20.5298 17.5706 20.6098H17.3306Z" fill="#024739"/>
</g>
<defs>
<clipPath id="clip0_1401_4156">
<rect width="23.56" height="23.55" fill="white"/>
</clipPath>
</defs>
</svg>
