<svg width="24" height="24" viewBox="0 0 24 24" fill="none" xmlns="http://www.w3.org/2000/svg">
<g clip-path="url(#clip0_1401_4175)">
<path d="M8.53953 0.269531H15.0095C19.5795 0.269531 23.2895 3.97953 23.2895 8.54953V15.0195C23.2895 19.5895 19.5795 23.2995 15.0095 23.2995H8.53953C3.97953 23.2895 0.269531 19.5795 0.269531 15.0095V8.53953C0.269531 3.97953 3.97953 0.269531 8.53953 0.269531Z" stroke="#024739" stroke-width="0.53" stroke-miterlimit="10"/>
<path d="M15.5396 17.6005C15.3596 17.6205 15.1596 17.5905 14.9796 17.6005C14.9996 17.9905 14.9796 18.3605 14.8296 18.7205C15.3596 18.4505 15.8696 17.9905 16.0996 17.4305C15.9196 17.4805 15.7296 17.5805 15.5396 17.6005ZM14.5696 4.46055H12.7496C12.7496 4.46055 12.5896 4.39055 12.5696 4.37055C12.3796 4.24055 12.4096 4.09055 12.3396 3.92055C12.1296 3.46055 11.4496 3.46055 11.2396 3.92055C11.1596 4.09055 11.1996 4.24055 11.0096 4.37055C10.9796 4.39055 10.8396 4.46055 10.8196 4.46055H8.99961V5.69055H9.59961C9.59961 5.69055 9.72961 5.81055 9.73961 5.83055C9.79961 5.96055 9.68961 6.20055 9.56961 6.20055H9.00961C9.00961 6.30055 8.96961 6.50055 9.07961 6.56055H14.4996C14.6396 6.53055 14.5796 6.32055 14.5896 6.20055H10.6296C10.6296 6.20055 10.4896 6.11055 10.4696 6.08055C10.3996 5.96055 10.4596 5.69055 10.5896 5.69055H14.5896V4.46055H14.5696ZM11.9796 3.06055C12.4396 3.17055 12.7496 3.46055 12.8796 3.91055C13.4396 3.95055 14.0696 3.85055 14.6096 3.91055C14.8596 3.93055 14.9396 4.10055 15.0896 4.12055C15.7996 4.21055 16.7196 4.02055 17.4396 4.12055C17.7296 4.16055 17.9096 4.42055 17.8996 4.71055V19.8905C17.8996 20.1905 17.7296 20.4705 17.4096 20.4905C13.5996 20.4705 9.77961 20.5305 5.97961 20.4605C5.82961 20.3905 5.69961 20.2605 5.68961 20.0805V16.1005C5.68961 15.9905 5.84961 15.9005 5.94961 15.9005C6.02961 15.9005 6.19961 16.0505 6.19961 16.1205V19.9805H17.3596V4.66055H15.1196V4.97055H16.5996C16.5996 4.97055 16.8596 5.10055 16.8996 5.14055C16.9796 5.23055 17.0396 5.38055 17.0496 5.50055C17.1696 6.48055 16.9696 7.66055 17.0496 8.66055C17.0496 8.89055 16.8796 9.06055 16.6496 8.96055C16.6096 8.94055 16.5096 8.83055 16.5096 8.80055V5.52055H15.1096V6.52055C15.1096 6.52055 15.0396 6.73055 15.0096 6.77055C14.8996 6.97055 14.6996 7.07055 14.4796 7.09055C12.7196 7.23055 10.7796 6.98055 8.99961 7.09055C8.76961 7.09055 8.43961 6.75055 8.43961 6.53055V5.53055H7.03961V19.1505H13.3796C13.8096 19.1505 14.4496 18.5805 14.4496 18.1505V17.6605H10.1796C9.99961 17.6605 9.86961 17.2005 10.2196 17.1505C11.7796 17.1105 13.3596 17.2105 14.9096 17.1105C15.7496 17.0605 16.3396 16.9805 16.4896 16.0005V9.91055C16.5396 9.62055 16.9596 9.60055 17.0196 9.91055C16.9596 11.9005 17.1296 13.9805 17.0196 15.9605C16.9196 17.9105 15.5496 19.4305 13.5996 19.6505C11.3396 19.6305 9.07961 19.6905 6.81961 19.6205C6.60961 19.5305 6.48961 19.3105 6.46961 19.0905V5.60055C6.42961 5.37055 6.69961 4.97055 6.92961 4.97055H8.40961V4.66055H6.15961V15.0205C6.15961 15.0205 6.08961 15.1605 6.07961 15.1605C5.93961 15.2905 5.67961 15.2305 5.64961 15.0305V4.56055C5.62961 4.34055 5.86961 4.15055 6.07961 4.12055C6.78961 4.02055 7.71961 4.21055 8.42961 4.12055C8.56961 4.10055 8.65961 3.94055 8.89961 3.91055C9.43961 3.85055 10.0796 3.95055 10.6296 3.91055C10.7696 3.47055 11.0596 3.20055 11.4996 3.06055H11.9396H11.9796Z" fill="#024739"/>
<path d="M5.68039 4.56055H5.65039V15.0405H5.68039V4.56055Z" fill="#024739"/>
<path d="M5.68039 16.0996H5.65039V20.0796H5.68039V16.0996Z" fill="#024739"/>
<path d="M12.0804 7.93068H11.4704V8.73068C11.4704 8.80068 11.2804 9.02068 11.2104 9.02068H10.3804V9.67068H11.1804C11.2904 9.67068 11.4704 9.90068 11.4704 9.99068V10.7607H12.0804V9.99068C12.0804 9.89068 12.2604 9.67068 12.3704 9.67068H13.1704V9.02068H12.3404C12.2804 9.02068 12.0904 8.80068 12.0904 8.73068V7.93068H12.0804ZM12.6304 8.51068H13.4604C13.6004 8.51068 13.7004 8.78068 13.7204 8.90068C13.7404 9.11068 13.7504 9.68068 13.7204 9.88068C13.7104 9.96068 13.5804 10.1807 13.5104 10.1807H12.6404V10.9807C12.6404 10.9807 12.5304 11.1907 12.4804 11.2207C12.2704 11.3307 11.4004 11.3307 11.1704 11.2507C11.0804 11.2207 10.9404 11.0607 10.9404 10.9707V10.1707H10.0704C9.99037 10.1707 9.87037 9.95068 9.86037 9.87068C9.82037 9.67068 9.83037 9.10068 9.86037 8.89068C9.87037 8.77068 9.98037 8.50068 10.1204 8.50068H10.9504V7.70068C10.9504 7.64068 11.1104 7.45068 11.1904 7.43068C11.3004 7.40068 12.2704 7.39068 12.3904 7.43068C12.4804 7.45068 12.6504 7.64068 12.6504 7.71068V8.51068H12.6304Z" fill="#024739"/>
<path d="M15.4709 15.2005C15.4709 15.2005 15.2909 15.2805 15.2309 15.2805H10.3009C9.91089 15.2405 9.94089 14.7805 10.3009 14.7305H15.2709C15.5009 14.7405 15.6509 15.0205 15.4809 15.2005" fill="#024739"/>
<path d="M10.2005 12.3906H15.3005C15.6205 12.4106 15.6405 12.8706 15.3005 12.8906H10.2705C9.97047 12.8706 9.94047 12.4906 10.2105 12.3906" fill="#024739"/>
<path d="M9.09045 17.0208H8.55045V17.6008H9.09045V17.0208ZM8.30045 16.5108C8.46045 16.4808 9.10045 16.4808 9.27045 16.5108C9.44045 16.5308 9.58045 16.6608 9.60045 16.8308C9.63045 17.0308 9.63045 17.5808 9.60045 17.7808C9.58045 17.9708 9.47045 18.0808 9.28045 18.1008C9.12045 18.1208 8.33045 18.1208 8.22045 18.0708C8.11045 18.0308 8.02045 17.8608 8.01045 17.7408C7.98045 17.5308 7.98045 16.7608 8.11045 16.6208C8.15045 16.5808 8.25045 16.5208 8.31045 16.5108" fill="#024739"/>
<path d="M9.08979 14.7006H8.54979V15.2806H9.08979V14.7006ZM9.51979 15.6806C9.51979 15.6806 9.38979 15.7706 9.35979 15.7806C9.21979 15.8206 8.51979 15.8206 8.35979 15.8006C8.20979 15.7806 8.11979 15.7406 8.04979 15.6006C7.97979 15.4306 7.97979 14.8006 7.99979 14.6006C8.01979 14.4306 8.09979 14.2706 8.26979 14.2206C8.42979 14.1806 9.05979 14.1806 9.23979 14.2006C9.36979 14.2106 9.51979 14.2906 9.56979 14.4106C9.61979 14.5206 9.60979 15.3106 9.59979 15.4706C9.59979 15.5306 9.55979 15.6306 9.51979 15.6806Z" fill="#024739"/>
<path d="M9.08975 12.3899H8.54975V12.9699H9.08975V12.3899ZM8.29975 11.8799C8.44975 11.8499 9.14975 11.8499 9.30975 11.8799C9.44975 11.8999 9.57975 12.0599 9.59975 12.1999C9.61975 12.3899 9.62975 12.9999 9.59975 13.1899C9.57975 13.3399 9.41975 13.4699 9.27975 13.4799C9.07975 13.4999 8.55975 13.4999 8.35975 13.4799C8.26975 13.4699 8.14975 13.4199 8.08975 13.3399C7.96975 13.1899 7.97975 12.4399 8.00975 12.2399C8.02975 12.0699 8.12975 11.9199 8.29975 11.8899" fill="#024739"/>
<path d="M11.73 3.91999C11.94 3.87999 12.15 4.14999 11.96 4.35999C11.63 4.71999 11.27 3.99999 11.73 3.91999Z" fill="#024739"/>
</g>
<defs>
<clipPath id="clip0_1401_4175">
<rect width="23.56" height="23.55" fill="white"/>
</clipPath>
</defs>
</svg>
