<svg width="24" height="24" viewBox="0 0 24 24" fill="none" xmlns="http://www.w3.org/2000/svg">
<g clip-path="url(#clip0_1401_4176)">
<path d="M8.53953 0.269531H15.0095C19.5795 0.269531 23.2895 3.97953 23.2895 8.54953V15.0195C23.2895 19.5895 19.5795 23.2995 15.0095 23.2995H8.53953C3.97953 23.2895 0.269531 19.5795 0.269531 15.0095V8.53953C0.269531 3.97953 3.97953 0.269531 8.53953 0.269531Z" stroke="#024739" stroke-width="0.53" stroke-miterlimit="10"/>
<path d="M16.56 17.0904L16 17.4604C15.77 17.5604 15.53 17.6204 15.28 17.6504C15.23 17.8204 15.21 17.9904 15.16 18.1604C14.98 18.7504 14.49 19.0604 14.11 19.5104C14.6 19.2604 15.13 18.9904 15.59 18.6904C16.17 18.3204 16.58 17.8104 16.57 17.0804M14.94 14.1704C13.18 14.3704 13.28 16.9304 14.89 17.1004C17.17 17.3304 17.02 13.9304 14.94 14.1704ZM6.58 13.8404C6.52 14.2704 6.62 14.8104 6.58 15.2504H8.08V14.2004C8.08 14.2004 8.17 14.0404 8.19 14.0204C8.36 13.8804 8.64 13.9904 8.66 14.2104L8.69 16.9004L10.09 17.7104C10.26 17.7304 10.44 17.3004 10.67 17.3004C10.85 17.3004 10.97 17.4704 10.94 17.6404C10.91 17.7804 10.62 17.9404 10.67 18.0304L12.82 19.3004C12.94 19.4204 13.03 19.5804 13.04 19.7604C13.62 19.1004 14.62 18.5504 14.69 17.5904C14.12 17.5204 13.57 17.0804 13.3 16.5704C13.25 16.4704 13.13 16.0604 13.09 16.0504C12.84 15.9604 12.34 16.3104 12.16 16.4704C12.07 16.5504 11.81 16.8604 11.73 16.8804C11.48 16.9604 11.28 16.7604 11.36 16.5104C11.37 16.4704 11.87 15.9704 11.94 15.9104C12.26 15.6504 12.66 15.5004 13.07 15.4504C13.24 13.7204 15.3 12.9504 16.56 14.1704C16.63 13.4304 16.05 12.7204 15.32 12.6104C15.16 12.5904 14.55 12.5604 14.43 12.6104C14.32 12.6404 13.5 13.5604 13.31 13.7204C12.55 14.3504 11.46 14.5004 10.55 14.1304C9.8 13.8304 9.34 13.1404 8.76 12.6204C8.15 12.5604 7.55 12.5604 7.07 12.9904C6.88 13.1604 6.63 13.5804 6.59 13.8404M12.82 11.7304C12.02 12.2204 11.13 12.2104 10.33 11.7304C10.39 12.2904 10.15 12.6504 9.56 12.6304C10.62 14.1504 12.53 14.1504 13.59 12.6304C13 12.6504 12.76 12.3004 12.82 11.7304ZM8.34 7.84035C8.05 7.84035 8.1 8.22035 8.15 8.42035C8.21 8.65035 8.46 8.93035 8.71 8.94035C8.64 8.74035 8.71 8.44035 8.64 8.26035C8.58 8.13035 8.31 8.06035 8.34 7.84035ZM14.43 8.94035C15.03 8.88035 15.38 7.66035 14.5 7.80035L14.43 8.94035ZM13.95 7.91035C12.58 8.21035 11.18 7.71035 10.25 6.70035C10.04 7.25035 9.65 7.71035 9.23 8.12035C9.27 8.74035 9.2 9.57035 9.47 10.1404C9.76 10.7604 10.76 11.4804 11.44 11.5404C12.38 11.6204 13.78 10.5304 13.83 9.54035L13.94 7.91035H13.95ZM12.49 3.95035C12.56 2.56035 10.55 2.62035 10.69 3.99035C11.27 3.77035 11.89 3.81035 12.49 3.95035ZM6 13.8604C6.12 12.9504 7.06 12.0204 8 12.0204H9.74V11.3404C9.74 11.3404 9.4 11.0004 9.34 10.9404C9.01 10.5404 8.76 10.0604 8.75 9.53035C7.85 9.51035 7.14 8.16035 7.8 7.49035C7.94 7.35035 8.26 7.27035 8.27 7.25035C8.29 7.22035 8.3 6.68035 8.32 6.55035C8.44 5.84035 9.12 4.27035 10.07 4.69035C10.07 4.59035 10.2 4.49035 10.21 4.41035C10.21 4.35035 10.12 4.11035 10.11 4.01035C9.91 1.99035 13.02 1.80035 13.08 3.83035C13.08 3.93035 13.02 4.12035 13.06 4.18035C13.08 4.21035 13.61 4.53035 13.72 4.62035C13.81 4.70035 14.08 4.95035 14.1 5.05035C14.16 5.32035 13.95 5.45035 13.7 5.37035C13.6 5.34035 13.2 4.92035 13.02 4.81035C12.33 4.39035 10.78 4.03035 10.5 5.10035C10.45 5.31035 10.5 5.62035 10.2 5.64035C9.85 5.66035 9.96 5.15035 9.73 5.17035C9.61 5.18035 9.35 5.52035 9.28 5.63035C8.88 6.25035 8.79 6.96035 8.86 7.69035C9.22 7.38035 9.49 6.97035 9.72 6.55035C9.83 6.34035 9.93 5.82035 10.23 5.86035C10.42 5.89035 10.67 6.33035 10.82 6.48035C11.48 7.14035 12.49 7.50035 13.42 7.43035C13.57 7.43035 14.15 7.33035 14.23 7.25035C14.52 6.97035 13.88 6.07035 14.42 5.97035C14.87 5.89035 14.87 6.96035 14.87 7.24035C16.18 7.58035 15.53 9.46035 14.39 9.52035C14.37 10.0404 14.13 10.5404 13.8 10.9304C13.74 11.0004 13.4 11.3104 13.4 11.3304V12.0104H15.14C16.18 12.0104 17.07 13.0204 17.14 14.0104C17.2 14.8804 17.2 16.2204 17.14 17.1004C17.09 17.8404 16.76 18.4804 16.2 18.9504C15.06 19.5304 13.87 20.4704 12.73 20.9804C12.59 21.0404 12.29 21.1404 12.15 21.1604H10.9C10.64 21.0804 10.41 20.9704 10.17 20.8504C9.81 20.6704 9.08 20.2704 8.78 20.0404C8.47 19.8004 8.67 19.4404 9 19.5304C9.94 19.9404 11 21.1204 12.06 20.3504C12.19 20.2504 12.56 19.9104 12.45 19.7504L8.3 17.3304C8.23 17.2904 8.09 17.1304 8.09 17.0604V15.8304H6.59V17.3504C6.59 17.7004 7.05 18.3104 7.33 18.5204C7.56 18.7004 8.19 18.8804 8.04 19.2404C7.9 19.5704 7.45 19.2604 7.26 19.1504C6.57 18.7304 6.18 18.1304 6.01 17.3404V13.9604C6.01 13.9604 6.01 13.8904 6.01 13.8504" fill="#024739"/>
<path d="M15.4496 15.0799C15.6596 15.0399 15.8696 15.3299 15.9196 15.5099C16.0996 16.2299 15.4296 16.8399 14.7396 16.5499C14.4996 16.4499 14.2496 16.1299 14.5496 15.9399C14.8396 15.7599 15.0396 16.2599 15.3196 15.9799C15.5796 15.7099 15.0796 15.4599 15.2996 15.1899C15.3296 15.1499 15.4096 15.0999 15.4596 15.0899" fill="#024739"/>
</g>
<defs>
<clipPath id="clip0_1401_4176">
<rect width="23.56" height="23.55" fill="white"/>
</clipPath>
</defs>
</svg>
