<svg width="24" height="24" viewBox="0 0 24 24" fill="none" xmlns="http://www.w3.org/2000/svg">
<g clip-path="url(#clip0_1401_4181)">
<path d="M15.0095 0.269531H8.54953C3.97661 0.269531 0.269531 3.97661 0.269531 8.54953V15.0095C0.269531 19.5824 3.97661 23.2895 8.54953 23.2895H15.0095C19.5824 23.2895 23.2895 19.5824 23.2895 15.0095V8.54953C23.2895 3.97661 19.5824 0.269531 15.0095 0.269531Z" stroke="#024739" stroke-width="0.53" stroke-miterlimit="10"/>
<path d="M8.87977 14.8497C8.66977 14.8597 8.34977 14.5797 8.17977 14.6397C7.98977 14.7097 7.19977 15.7697 7.28977 15.8497C7.77977 15.8097 8.21977 15.6197 8.56977 15.2897L8.87977 14.8397V14.8497ZM14.9698 15.9297C14.7698 15.3897 14.3798 14.9597 13.9598 14.5697C13.8798 14.5297 13.3298 14.8697 13.1798 14.8497C13.4898 15.5697 14.2698 15.7797 14.9598 15.9297M15.7898 17.5297C15.6398 17.1997 15.4498 16.9097 15.1498 16.6997C14.6498 16.3297 14.0498 16.3797 13.5098 16.0397C12.8698 15.6397 12.6998 14.9497 11.9298 14.6797C11.4398 14.5097 10.6498 14.5097 10.1498 14.6797C9.32977 14.9497 9.14977 15.6997 8.44977 16.0997C7.97977 16.3697 7.44977 16.3597 7.00977 16.6297C6.67977 16.8297 6.38977 17.1797 6.26977 17.5497H12.4598C12.6398 17.5497 12.7598 18.0497 12.3798 18.1097H5.60977C5.30977 18.1097 5.08977 18.3797 5.14977 18.6797C5.17977 18.8097 5.42977 19.2997 5.50977 19.4397C5.93977 20.1797 6.63977 20.5897 7.49977 20.6497C9.80977 20.5197 12.2798 20.8097 14.5698 20.6497C15.3798 20.5897 16.0698 20.1697 16.4898 19.4797C16.5898 19.3197 16.8498 18.7997 16.8798 18.6397C16.9198 18.3897 16.7198 18.1397 16.4698 18.1197H13.3898C13.2198 18.0597 13.1298 17.8997 13.2098 17.7197C13.2198 17.6897 13.3298 17.5597 13.3498 17.5597H15.7898V17.5297ZM15.7498 13.2097H17.5198C17.7198 13.2097 18.0298 12.9797 18.1298 12.8097C18.3998 12.3397 17.8998 11.5897 17.8898 11.0897C17.5398 11.2997 17.1598 11.3897 16.7598 11.4097L16.3998 12.2397L15.7598 13.2197L15.7498 13.2097ZM4.53977 13.2097C5.07977 13.2797 5.74977 13.1597 6.30977 13.2097L5.86977 12.5897C5.64977 12.2097 5.40977 11.8297 5.29977 11.3897C4.88977 11.3997 4.50977 11.3097 4.16977 11.0897C4.10977 11.6797 3.52977 12.4997 4.05977 12.9897C4.16977 13.0897 4.39977 13.1897 4.54977 13.2097M16.9398 10.7997C18.4798 10.7397 18.4798 8.43972 16.9398 8.37972C17.1098 9.17972 17.0698 9.99972 16.9398 10.7997ZM5.07977 8.37972C3.53977 8.48972 3.55977 10.6797 5.09977 10.8397C5.13977 10.8397 5.00977 10.1197 5.00977 10.0397C4.97977 9.48972 5.02977 8.92972 5.08977 8.37972M7.89977 5.25972C7.31977 5.31972 6.69977 6.15972 6.40977 6.62972C4.69977 9.37972 5.63977 12.9097 8.66977 14.1797C8.80977 14.2397 9.18977 14.3997 9.30977 14.3997C9.42977 14.3997 9.82977 14.1597 10.0098 14.0997C10.5398 13.9297 11.5198 13.9297 12.0598 14.0997C12.2698 14.1697 12.6198 14.4197 12.7898 14.3897C13.0598 14.3497 13.6698 14.0597 13.9198 13.9197C15.8898 12.8397 16.8598 10.6097 16.3698 8.40972C16.1098 7.23972 15.4298 7.47972 14.4698 7.36972C12.8498 7.18972 11.2498 6.80972 9.77977 6.10972C9.35977 5.90972 8.40977 5.25972 8.03977 5.24972C7.98977 5.24972 7.94977 5.24972 7.89977 5.25972ZM17.2298 5.71972C17.1098 5.83972 16.8998 5.85972 16.9598 6.06972C16.9898 6.16972 17.2298 6.53972 17.3098 6.60972C17.6798 6.94972 18.0198 6.53972 18.2298 6.22972C18.8498 5.32972 18.4198 5.13972 17.4898 5.05972C17.4898 5.27972 17.3598 5.55972 17.2198 5.71972M15.9998 4.32972C15.8498 4.35972 15.7098 4.57972 15.6798 4.71972C15.5998 5.22972 16.5298 5.76972 16.8598 5.25972C17.0498 4.95972 16.9198 4.71972 16.6798 4.52972C16.4798 4.35972 16.2798 4.26972 15.9998 4.32972ZM15.1198 4.68972C15.1598 4.29972 15.3998 4.02972 15.7098 3.81972C15.6398 3.57972 15.2998 3.01972 15.0298 3.01972C14.6498 3.01972 13.9798 4.01972 14.1398 4.38972C14.2298 4.59972 14.8998 4.71972 15.1198 4.67972M3.25977 12.1697C3.41977 11.7397 3.61977 11.1597 3.62977 10.6997C3.62977 10.4397 3.41977 10.1797 3.37977 9.86972C3.28977 9.16972 3.49977 9.10972 3.65977 8.56972C3.75977 8.23972 3.77977 7.84972 3.87977 7.48972C4.09977 6.69972 4.94977 4.93972 5.61977 4.46972C5.85977 4.29972 6.13977 4.52972 6.06977 4.76972C6.02977 4.89972 5.57977 5.36972 5.45977 5.53972C4.94977 6.23972 4.53977 7.10972 4.37977 7.96972C4.64977 7.82972 4.95977 7.76972 5.26977 7.77972C5.47977 7.00972 5.89977 6.26972 6.40977 5.65972C6.53977 5.49972 6.71977 5.29972 6.86977 5.15972C8.08977 4.05972 9.10977 5.18972 10.2698 5.70972C12.0898 6.52972 13.5398 6.64972 15.4798 6.85972C16.0298 6.91972 16.5598 7.25972 16.7698 7.77972C17.0898 7.75972 17.3898 7.84972 17.6898 7.94972C17.6398 7.85972 17.5498 7.33972 17.4998 7.30972C17.4698 7.28972 17.3798 7.30972 17.3198 7.28972C16.9698 7.15972 16.6998 6.76972 16.5198 6.44972C16.4798 6.36972 16.3698 6.05972 16.3498 6.04972C16.3198 6.02972 16.1998 6.04972 16.1398 6.01972C15.9598 5.95972 15.6798 5.77972 15.5398 5.65972C15.4698 5.59972 15.2698 5.33972 15.2398 5.31972C15.1298 5.26972 14.6298 5.24972 14.4298 5.19972C13.4198 4.93972 13.3298 4.14972 13.8598 3.34972C11.5998 2.20972 8.70977 2.61972 6.75977 4.19972C6.42977 4.32972 6.21977 3.96972 6.39977 3.74972C6.44977 3.68972 6.86977 3.39972 6.96977 3.33972C9.08977 1.92972 11.9098 1.74972 14.2098 2.84972C15.0198 2.15972 15.6198 2.48972 16.0898 3.30972C16.1398 3.38972 16.2598 3.70972 16.2798 3.73972C16.3198 3.77972 16.5498 3.80972 16.6298 3.84972C16.8098 3.92972 17.0998 4.13972 17.2398 4.27972C17.2898 4.33972 17.3798 4.50972 17.3898 4.51972C17.4398 4.54972 17.6498 4.51972 17.7398 4.51972C19.1398 4.67972 19.4898 5.50972 18.6398 6.64972C18.4698 6.87972 18.2998 7.04972 18.0598 7.20972C18.2598 7.62972 18.2498 8.19972 18.3898 8.61972C18.5898 9.18972 18.7798 9.33972 18.6198 10.0297C18.5798 10.1897 18.3798 10.5397 18.3798 10.6097C18.3298 11.3097 18.9098 12.0697 18.7298 12.7897C18.3598 14.3097 16.2798 13.6497 15.1598 13.7897C14.9098 13.8997 14.7298 14.1597 14.4698 14.2297C14.4498 14.2897 14.4798 14.2897 14.5098 14.3197C14.6098 14.4697 14.8398 14.6497 14.9698 14.8197C15.4298 15.4297 15.4798 15.8897 15.7798 16.4997C15.8398 16.6097 15.9998 16.7697 16.0898 16.8997C16.1598 17.0197 16.3598 17.4297 16.4298 17.4897C16.4998 17.5397 16.7298 17.5497 16.8498 17.5997C17.4198 17.8297 17.5598 18.4697 17.3498 19.0097C17.0398 19.7997 16.5398 20.4997 15.7698 20.8897L14.8498 21.1797H7.11977C5.92977 20.9397 5.09977 20.1397 4.67977 19.0197C4.44977 18.3897 4.64977 17.7397 5.32977 17.5497C5.40977 17.5297 5.53977 17.5497 5.57977 17.5297C5.61977 17.5097 5.94977 16.8697 6.03977 16.7397C6.14977 16.5897 6.36977 16.4197 6.43977 16.3197C6.53977 16.1797 6.63977 15.7697 6.73977 15.5697C6.96977 15.0997 7.29977 14.6997 7.63977 14.3097L6.87977 13.7697C6.10977 13.7197 5.25977 13.8397 4.49977 13.7697C3.86977 13.7097 3.41977 13.2797 3.25977 12.6897V12.1697Z" fill="#024739"/>
<path d="M10.2399 9.43045C10.4799 9.36045 10.5499 9.57045 10.7099 9.65045C10.8799 9.74045 11.0899 9.74045 11.2699 9.68045C11.4699 9.61045 11.7099 9.22045 11.9399 9.54045C12.2099 9.92045 11.4499 10.2805 11.1499 10.3105C10.7899 10.3505 9.92995 10.0805 10.0699 9.60045C10.0799 9.56045 10.1899 9.45045 10.2399 9.43045Z" fill="#024739"/>
<path d="M13.8505 9.9301C13.6905 10.0901 13.3905 10.0001 13.3505 9.7601C13.3005 9.4601 13.2805 8.7501 13.7805 8.9601C14.0005 9.0601 13.9905 9.7901 13.8505 9.9301Z" fill="#024739"/>
<path d="M8.34049 8.94038C8.49049 8.91038 8.65049 8.98038 8.68049 9.14038C8.70049 9.24038 8.70049 9.70038 8.68049 9.80038C8.61049 10.0904 8.18049 10.0704 8.13049 9.77038C8.10049 9.55038 8.06049 9.00038 8.34049 8.94038Z" fill="#024739"/>
</g>
<defs>
<clipPath id="clip0_1401_4181">
<rect width="23.56" height="23.56" fill="white"/>
</clipPath>
</defs>
</svg>
