<svg width="24" height="24" viewBox="0 0 24 24" fill="none" xmlns="http://www.w3.org/2000/svg">
<g clip-path="url(#clip0_1401_4188)">
<path d="M15.2995 0.269531H8.70953C4.04825 0.269531 0.269531 4.04825 0.269531 8.70953V15.2995C0.269531 19.9608 4.04825 23.7395 8.70953 23.7395H15.2995C19.9608 23.7395 23.7395 19.9608 23.7395 15.2995V8.70953C23.7395 4.04825 19.9608 0.269531 15.2995 0.269531Z" stroke="#024739" stroke-width="0.54" stroke-miterlimit="10"/>
<path d="M11.7393 4.21064C5.85926 4.43064 2.28926 10.8506 5.29926 15.9506C8.26926 21.0006 15.5693 21.0506 18.6493 16.0706C21.9093 10.8006 17.9093 3.97064 11.7493 4.21064M20.3493 11.3406V12.6806L20.1093 14.0506C19.3693 16.9906 16.9993 19.3606 14.0593 20.1006L12.6193 20.3406C12.1893 20.3206 11.7393 20.3706 11.3093 20.3406C4.20926 19.8206 1.02926 10.9006 6.20926 5.96064C11.2893 1.10064 19.8693 4.39064 20.3493 11.3406Z" fill="#024739"/>
<path d="M14.3703 16.6197C14.5203 16.4797 14.4403 16.2797 14.4403 16.1297C14.4403 14.6297 14.2803 13.1297 14.2503 11.6297C14.2703 11.3697 14.5903 11.3397 14.7503 11.1897C15.2603 10.7297 15.0103 9.28972 14.7103 8.74972C14.4403 8.26972 13.7003 8.27972 13.4503 8.76972C13.1703 9.32972 12.9003 10.7197 13.4203 11.1897C13.5903 11.3497 13.9203 11.3697 13.9303 11.6597L13.7103 16.3497C13.6803 16.6997 14.1603 16.8297 14.3803 16.6297M13.8903 7.82972C14.6103 7.72972 15.1103 8.12972 15.3403 8.76972C15.6203 9.52972 15.8303 10.7397 15.3003 11.4197C15.1703 11.5897 14.9703 11.6897 14.8403 11.8397C14.8703 12.4197 14.8803 12.9897 14.9003 13.5697C14.9303 14.2997 14.9703 15.0197 15.0003 15.7597C15.0103 16.1197 15.1103 16.4497 14.9303 16.7997C14.5903 17.4297 13.6103 17.4497 13.2603 16.8197C13.0603 16.4697 13.1603 16.1597 13.1803 15.7997C13.2303 14.4797 13.2803 13.1697 13.3403 11.8497C13.2203 11.7097 13.0403 11.6097 12.9203 11.4597C12.3403 10.7697 12.5603 9.55972 12.8503 8.76972C13.0303 8.28972 13.3503 7.89972 13.8903 7.82972Z" fill="#024739"/>
<path d="M8.86087 7.90072C8.86087 7.90072 8.93087 8.01072 8.94087 8.07072V10.4807C9.11087 10.7307 9.74087 11.1607 9.79087 11.4307L9.54087 16.3207C9.57087 16.8507 10.2309 16.8207 10.2809 16.4207C10.3209 16.1307 10.2509 15.8207 10.2509 15.5407C10.2009 14.1707 10.1209 12.8007 10.0609 11.4307C10.1009 11.1507 10.7309 10.7307 10.9009 10.4807V8.02072C11.0309 7.74072 11.4209 7.77072 11.4609 8.08072V10.6807C11.4409 10.7407 11.4009 10.8007 11.3609 10.8507C11.2109 11.0607 10.7809 11.3507 10.6709 11.5307C10.6509 11.5607 10.6309 11.5907 10.6409 11.6307C10.7009 13.0507 10.7909 14.4607 10.8409 15.8707C10.8409 16.0607 10.9009 16.2407 10.8709 16.4507C10.7409 17.5607 9.12087 17.5607 8.98087 16.4507C8.96087 16.2407 9.00087 16.0607 9.01087 15.8707C9.06087 14.4507 9.15087 13.0207 9.20087 11.6007C9.02087 11.2807 8.42087 10.9707 8.38087 10.5907C8.30087 9.80072 8.44087 8.88072 8.38087 8.08072C8.41087 7.85072 8.69087 7.74072 8.86087 7.91072" fill="#024739"/>
<path d="M15.97 8.31941C16.25 8.25941 16.54 8.75941 16.68 8.96941C17.87 10.7994 17.87 13.1994 16.68 15.0294C16.56 15.2094 16.01 15.9494 15.85 15.9994C15.6 16.0794 15.4 15.8994 15.46 15.6494C15.68 15.3594 15.94 15.1094 16.14 14.7994C17.18 13.2594 17.27 11.1894 16.37 9.56941C16.26 9.36941 15.78 8.77941 15.76 8.64941C15.74 8.51941 15.83 8.35941 15.97 8.32941" fill="#024739"/>
<path d="M7.6608 8.60961C7.9408 8.54961 8.0808 8.79961 7.9608 9.04961C7.8308 9.32961 7.5808 9.60961 7.4408 9.92961C6.7308 11.5096 6.8908 13.3596 7.8508 14.7896C8.0608 15.0996 8.3208 15.3496 8.5308 15.6496C8.5808 15.8796 8.3808 16.0696 8.1508 15.9896C8.0008 15.9396 7.5008 15.2796 7.3908 15.1196C6.1908 13.3596 6.1108 10.9696 7.2108 9.13961C7.2908 8.99961 7.5008 8.63961 7.6508 8.59961" fill="#024739"/>
<path d="M13.431 6.62051C13.621 6.77051 13.541 7.10051 13.291 7.13051C13.101 7.15051 12.671 7.02051 12.441 7.00051C11.941 6.97051 11.381 7.00051 10.891 7.11051C10.701 7.15051 10.271 7.33051 10.121 7.32051C9.81096 7.31051 9.72096 6.91051 10.071 6.75051C10.591 6.51051 11.661 6.38051 12.241 6.41051C12.421 6.41051 13.311 6.53051 13.421 6.62051" fill="#024739"/>
<path d="M9.41987 7.83031C9.65987 7.78031 9.76987 7.95031 9.78987 8.16031C9.84987 8.85031 9.73987 9.64031 9.78987 10.3403C9.72987 10.7003 9.24987 10.7203 9.19987 10.2103C9.15987 9.70031 9.14987 8.69031 9.19987 8.19031C9.20987 8.05031 9.25987 7.86031 9.41987 7.82031" fill="#024739"/>
<path d="M10.2708 7.82997C10.5508 7.76997 10.6208 7.99997 10.6408 8.22997C10.6808 8.72997 10.6908 9.75997 10.6408 10.25C10.5908 10.7 10.1408 10.74 10.0508 10.32C10.1108 9.62997 9.97079 8.80997 10.0508 8.12997C10.0708 7.99997 10.1308 7.85997 10.2708 7.82997Z" fill="#024739"/>
<path d="M11.3794 16.9606C11.4594 16.9606 11.5394 16.9906 11.6294 16.9906C11.8894 16.9906 12.1494 16.9906 12.4094 16.9906C12.4994 16.9906 12.5694 16.9506 12.6594 16.9606C12.9794 17.0206 13.0194 17.4706 12.6294 17.5406C12.2894 17.6006 11.6694 17.6006 11.3394 17.5406C11.0094 17.4806 10.9994 17.0106 11.3694 16.9706" fill="#024739"/>
</g>
<defs>
<clipPath id="clip0_1401_4188">
<rect width="24.01" height="24.01" fill="white"/>
</clipPath>
</defs>
</svg>
