<svg width="24" height="24" viewBox="0 0 24 24" fill="none" xmlns="http://www.w3.org/2000/svg">
<g clip-path="url(#clip0_1424_2640)">
<rect width="24" height="24" rx="12" fill="#024739"/>
<path d="M6.23297 6.64591C4.84979 8.10279 4.10138 10.0054 4.12557 12.0043C4.13822 12.3727 4.68497 12.3688 4.68807 11.9975C4.66529 10.1194 5.34057 8.40288 6.64501 7.02898C9.52501 3.86379 14.0017 4.21338 16.6659 6.38013C16.7238 6.4272 16.798 6.44935 16.8722 6.4417C16.9465 6.43405 17.0146 6.39723 17.0617 6.33935C17.1087 6.28147 17.1309 6.20726 17.1232 6.13305C17.1156 6.05883 17.0788 5.9907 17.0209 5.94363C14.1533 3.61151 9.33263 3.23829 6.23297 6.64619V6.64591ZM4.82841 13.3444C4.75444 12.9859 4.21051 13.0863 4.2766 13.4527C4.8661 16.47 7.33126 19.6318 11.4774 19.8703C11.8338 19.8652 11.8543 19.3359 11.4943 19.3084C7.65188 19.0755 5.37741 16.1451 4.82841 13.3444ZM16.6854 17.627C16.3524 17.8225 16.2261 18.2911 16.5208 18.5588L17.2709 19.3078H12.8834C12.5169 19.3114 12.5113 19.8652 12.8834 19.8703H17.2709C17.7575 19.8872 18.0249 19.2389 17.6666 18.9093L16.916 18.1789C20.3163 15.4997 20.8833 10.2484 18.0654 6.96541C17.8267 6.68923 17.3994 7.04135 17.6351 7.32738C20.1917 10.2819 19.7529 15.1636 16.6854 17.6268V17.627Z" fill="white"/>
<path d="M11.9111 5.53906C10.1252 5.53906 8.4762 6.27031 7.26767 7.59725C7.21743 7.65241 7.19116 7.72527 7.19464 7.7998C7.19812 7.87433 7.23107 7.94442 7.28623 7.99466C7.34139 8.04489 7.41425 8.07116 7.48878 8.06768C7.56331 8.0642 7.6334 8.03125 7.68364 7.97609C8.78417 6.76728 10.2855 6.10156 11.9111 6.10156C12.279 6.09622 12.2824 5.54525 11.9111 5.53906ZM10.7344 9.04934C10.7878 10.7222 13.213 10.7217 13.2659 9.04934C13.2124 7.37703 10.7869 7.37731 10.7344 9.04934ZM12.7034 9.04934C12.6792 9.97662 11.3213 9.97634 11.2971 9.04934C11.3213 8.12234 12.6792 8.12262 12.7034 9.04934ZM13.6878 15.3778C13.6876 15.2033 13.6335 15.0331 13.5327 14.8906C13.432 14.7481 13.2897 14.6402 13.1253 14.5818V12.7984C14.0033 12.4843 13.7907 11.1672 12.844 11.1587H11.1565C10.2101 11.168 9.99607 12.4828 10.8753 12.7984V14.5821C9.99692 14.8962 10.2095 16.2133 11.1565 16.2215H12.844C13.3092 16.2215 13.6878 15.8429 13.6878 15.3778ZM10.8753 15.3778C10.8753 15.2225 11.0013 15.0965 11.1565 15.0965C11.2311 15.0965 11.3026 15.0669 11.3554 15.0141C11.4081 14.9614 11.4378 14.8898 11.4378 14.8153V12.5653C11.4378 12.4907 11.4081 12.4191 11.3554 12.3664C11.3026 12.3136 11.2311 12.284 11.1565 12.284C10.7875 12.2784 10.7864 11.7277 11.1565 11.7215H12.844C13.2133 11.7288 13.2139 12.277 12.844 12.284C12.7694 12.284 12.6979 12.3136 12.6451 12.3664C12.5924 12.4191 12.5628 12.4907 12.5628 12.5653V14.8153C12.5628 14.8898 12.5924 14.9614 12.6451 15.0141C12.6979 15.0669 12.7694 15.0965 12.844 15.0965C13.2127 15.1021 13.2141 15.6528 12.844 15.659H11.1565C11.0013 15.659 10.8753 15.533 10.8753 15.3778Z" fill="#C8D02D"/>
</g>
<defs>
<clipPath id="clip0_1424_2640">
<rect width="24" height="24" fill="white"/>
</clipPath>
</defs>
</svg>
