<svg width="24" height="24" viewBox="0 0 24 24" fill="none" xmlns="http://www.w3.org/2000/svg">
<g clip-path="url(#clip0_1432_6290)">
<rect width="24" height="24" rx="12" fill="#024739"/>
<g clip-path="url(#clip1_1432_6290)">
<path d="M13.8471 8.16311H12.5705C12.6157 7.60196 12.4245 7.02518 11.9962 6.59684C11.2213 5.82192 9.96034 5.82192 9.18537 6.59684L8.7892 6.99301L8.39303 6.59684C7.61805 5.82187 6.3571 5.82189 5.58216 6.59687C5.20676 6.97224 5 7.4714 5 8.00229C5 8.53318 5.20673 9.03231 5.58216 9.40771L6.54271 10.3683C6.225 10.9658 6.05805 11.6329 6.05805 12.3161C6.05805 14.606 7.92106 16.469 10.211 16.469H10.8317L13.5382 18.9879V16.469H13.8471C16.137 16.469 18 14.606 18 12.3161C18 10.0261 16.137 8.16311 13.8471 8.16311ZM6.12122 7.13591C6.3601 6.89704 6.6738 6.77762 6.98758 6.77762C7.30128 6.77762 7.61511 6.89709 7.85393 7.13591L8.78917 8.07115L9.72441 7.13591C10.2021 6.65824 10.9794 6.65821 11.4571 7.13594C11.6886 7.36735 11.816 7.675 11.816 8.00229C11.816 8.32955 11.6886 8.63723 11.4571 8.86864L8.7892 11.5366L6.12122 8.86864C5.64353 8.39092 5.64353 7.61363 6.12122 7.13591ZM13.8471 15.7066H12.7758V17.2369L11.1316 15.7066H10.211C8.34143 15.7066 6.82043 14.1856 6.82043 12.3161C6.82043 11.8377 6.9206 11.3692 7.11247 10.938L8.78922 12.6148L11.9963 9.40771C12.1383 9.26587 12.258 9.10327 12.3512 8.92547H13.8471C15.7166 8.92547 17.2377 10.4465 17.2377 12.3161C17.2377 14.1856 15.7166 15.7066 13.8471 15.7066Z" fill="white"/>
<path d="M9.9502 12.0977H10.7559V12.86H9.9502V12.0977ZM11.7292 12.0977H12.5349V12.86H11.7292V12.0977ZM13.5082 12.0977H14.3139V12.86H13.5082V12.0977Z" fill="#C8D02D"/>
</g>
</g>
<defs>
<clipPath id="clip0_1432_6290">
<rect width="24" height="24" fill="white"/>
</clipPath>
<clipPath id="clip1_1432_6290">
<rect width="13" height="13" fill="white" transform="translate(5 6)"/>
</clipPath>
</defs>
</svg>
