<svg width="24" height="24" viewBox="0 0 24 24" fill="none" xmlns="http://www.w3.org/2000/svg">
<g clip-path="url(#clip0_1424_2620)">
<rect width="24" height="24" rx="12" fill="#024739"/>
<path d="M18.7257 17.4642L16.6316 13.8372C16.7121 13.709 16.8358 13.6097 16.9912 13.5559C17.488 13.3839 17.8928 12.9484 18.0739 12.3908C18.2551 11.8333 18.1837 11.243 17.8828 10.8118C17.713 10.5685 17.713 10.2663 17.8828 10.023C18.1836 9.59184 18.2551 9.00153 18.0739 8.44397C17.8928 7.88641 17.488 7.45084 16.9912 7.27881C16.7109 7.18175 16.5332 6.93725 16.5275 6.64072C16.5175 6.11506 16.2284 5.5955 15.7541 5.25087C15.2798 4.90628 14.6963 4.79178 14.1932 4.94466C13.9094 5.03094 13.622 4.93753 13.4431 4.70094C13.126 4.28163 12.5867 4.03125 12.0004 4.03125C11.4142 4.03125 10.8748 4.28159 10.5576 4.70097C10.3787 4.93759 10.0913 5.031 9.80754 4.94475C9.30451 4.79184 8.72098 4.90631 8.24666 5.25087C7.77235 5.59547 7.4832 6.115 7.47313 6.64069C7.46745 6.93728 7.28982 7.18178 7.00957 7.27881C6.51276 7.45078 6.10795 7.88634 5.92679 8.44391C5.74563 9.00147 5.81704 9.59178 6.11788 10.023C6.28763 10.2663 6.28763 10.5685 6.11791 10.8117C5.81704 11.2429 5.74557 11.8332 5.92673 12.3907C6.10788 12.9483 6.51266 13.3839 7.00951 13.5559C7.16491 13.6098 7.28857 13.709 7.36907 13.8372L5.27501 17.4642C5.19491 17.6029 5.20229 17.7705 5.29429 17.9016C5.38629 18.0326 5.54148 18.0965 5.69923 18.0682L7.80079 17.6912L8.5252 19.6997C8.5796 19.8505 8.71245 19.9529 8.87195 19.9671C8.88445 19.9682 8.89688 19.9688 8.90919 19.9688C9.05432 19.9688 9.18651 19.893 9.26032 19.7651L11.0963 16.5851C11.3631 16.7259 11.6744 16.8035 12.0004 16.8035C12.3263 16.8035 12.6376 16.7259 12.9044 16.5851L14.7404 19.7651C14.8142 19.893 14.9464 19.9688 15.0915 19.9688C15.1039 19.9688 15.1163 19.9682 15.1288 19.9671C15.2883 19.9529 15.4211 19.8505 15.4755 19.6997L16.1999 17.6913L18.3015 18.0682C18.4592 18.0964 18.6144 18.0326 18.7064 17.9015C18.7984 17.7705 18.8058 17.6029 18.7257 17.4642ZM8.92751 19.3416L8.19951 17.3231C8.17947 17.2676 8.14044 17.221 8.08932 17.1915C8.0382 17.1619 7.97829 17.1515 7.9202 17.1619L5.80823 17.5406L7.52657 14.5644C7.63113 14.956 7.88476 15.3209 8.24663 15.5838C8.72095 15.9284 9.30445 16.0429 9.80748 15.89C10.0913 15.8038 10.3788 15.8972 10.5576 16.1337C10.5986 16.1878 10.6432 16.239 10.691 16.2871L8.92751 19.3416ZM12.0004 16.3035C11.5699 16.3035 11.1796 16.1273 10.9564 15.8322C10.7261 15.5275 10.3785 15.3589 10.0138 15.3589C9.89723 15.3589 9.77885 15.3762 9.66207 15.4117C9.30804 15.5192 8.88876 15.4324 8.54051 15.1793C8.19226 14.9263 7.9801 14.5544 7.97304 14.1845C7.96341 13.6805 7.64941 13.2483 7.17307 13.0835C6.82345 12.9624 6.53526 12.6457 6.40226 12.2363C6.26923 11.8268 6.31623 11.4013 6.52795 11.0978C6.81635 10.6845 6.81635 10.1503 6.52791 9.73691C6.31623 9.43344 6.26926 9.00784 6.40229 8.59844C6.53532 8.18903 6.82351 7.87234 7.17313 7.75131C7.64941 7.58644 7.96341 7.15425 7.97304 6.65025C7.98013 6.28034 8.19226 5.90841 8.54054 5.65541C8.88882 5.40234 9.3081 5.31553 9.66213 5.42316C10.1444 5.56969 10.6524 5.40463 10.9564 5.00256C11.1796 4.70744 11.5699 4.53125 12.0004 4.53128C12.4309 4.53128 12.8211 4.7075 13.0442 5.00259C13.3482 5.40466 13.8563 5.56969 14.3386 5.42316C14.6925 5.31559 15.1119 5.40237 15.4602 5.65547C15.8084 5.9085 16.0205 6.28044 16.0276 6.65034C16.0372 7.15425 16.3512 7.58644 16.8276 7.75134C17.1772 7.87241 17.4654 8.18909 17.5984 8.5985C17.7314 9.00794 17.6844 9.43353 17.4727 9.73694C17.1843 10.1503 17.1843 10.6845 17.4727 11.0979C17.6844 11.4013 17.7314 11.8269 17.5984 12.2363C17.4654 12.6457 17.1772 12.9624 16.8276 13.0835C16.3513 13.2484 16.0372 13.6805 16.0276 14.1845C16.0205 14.5544 15.8084 14.9263 15.4601 15.1794C15.1118 15.4324 14.6925 15.5192 14.3385 15.4117C13.8563 15.2651 13.3482 15.4302 13.0442 15.8322C12.8211 16.1273 12.4308 16.3035 12.0004 16.3035ZM16.0805 17.1619C16.0224 17.1515 15.9625 17.1619 15.9113 17.1914C15.8602 17.2209 15.8212 17.2676 15.8012 17.3231L15.0732 19.3415L13.3097 16.2871C13.3575 16.2391 13.4021 16.1878 13.4431 16.1338C13.6219 15.8972 13.9094 15.8039 14.1932 15.8901C14.6962 16.043 15.2798 15.9285 15.754 15.5839C16.1159 15.321 16.3695 14.9561 16.4741 14.5644L18.1924 17.5407L16.0805 17.1619ZM16.1687 10.4174C16.1687 8.11894 14.2988 6.249 12.0004 6.249C9.70191 6.249 7.83201 8.11891 7.83201 10.4174C7.83201 12.7158 9.70191 14.5857 12.0004 14.5857C14.2988 14.5857 16.1687 12.7158 16.1687 10.4174ZM12.0004 14.0857C9.9776 14.0857 8.33201 12.4401 8.33201 10.4174C8.33201 8.39463 9.9776 6.749 12.0004 6.749C14.0231 6.749 15.6687 8.39463 15.6687 10.4174C15.6687 12.4401 14.0231 14.0857 12.0004 14.0857ZM14.6231 9.49219C14.6079 9.44538 14.5792 9.4041 14.5406 9.37352C14.502 9.34295 14.4553 9.32444 14.4062 9.32031L12.8399 9.18878L12.2308 7.73978C12.2117 7.6944 12.1797 7.65567 12.1387 7.62842C12.0977 7.60118 12.0496 7.58665 12.0004 7.58665C11.9511 7.58665 11.903 7.60118 11.862 7.62842C11.821 7.65567 11.789 7.6944 11.7699 7.73978L11.1608 9.18878L9.59445 9.32031C9.54539 9.32443 9.49865 9.34294 9.46007 9.37351C9.4215 9.40409 9.39281 9.44537 9.3776 9.49218C9.36239 9.539 9.36133 9.58926 9.37457 9.63667C9.38781 9.68408 9.41475 9.72652 9.45201 9.75869L10.6419 10.7858L10.2829 12.3161C10.2717 12.364 10.2749 12.4141 10.2921 12.4602C10.3092 12.5064 10.3396 12.5464 10.3794 12.5753C10.4193 12.6042 10.4667 12.6208 10.5159 12.6229C10.565 12.6249 10.6137 12.6125 10.6558 12.587L12.0004 11.7727L13.3448 12.587C13.3869 12.6125 13.4356 12.625 13.4848 12.6229C13.534 12.6209 13.5815 12.6043 13.6213 12.5754C13.6611 12.5464 13.6915 12.5064 13.7087 12.4603C13.7258 12.4141 13.729 12.364 13.7177 12.316L13.3588 10.7857L14.5487 9.75866C14.5859 9.7265 14.6129 9.68405 14.6261 9.63665C14.6393 9.58925 14.6383 9.539 14.6231 9.49219ZM12.9175 10.5062C12.8829 10.536 12.8572 10.5748 12.8431 10.6182C12.829 10.6616 12.827 10.708 12.8374 10.7525L13.0951 11.8512L12.1299 11.2666C12.0908 11.2429 12.046 11.2304 12.0004 11.2304C11.9547 11.2304 11.9099 11.2429 11.8709 11.2666L10.9055 11.8512L11.1632 10.7525C11.1736 10.708 11.1717 10.6616 11.1576 10.6182C11.1435 10.5748 11.1178 10.536 11.0832 10.5062L10.2289 9.76878L11.3535 9.67434C11.399 9.67053 11.4426 9.65432 11.4795 9.62748C11.5165 9.60064 11.5453 9.56419 11.563 9.52209L12.0004 8.48178L12.4377 9.52212C12.4554 9.56422 12.4842 9.60067 12.5212 9.62751C12.5581 9.65435 12.6017 9.67056 12.6472 9.67438L13.7718 9.76881L12.9175 10.5062Z" fill="white"/>
<path d="M16.1687 10.4184C16.1687 8.11994 14.2988 6.25 12.0004 6.25C9.70194 6.25 7.83203 8.11991 7.83203 10.4184C7.83203 12.7168 9.70194 14.5868 12.0004 14.5868C14.2988 14.5868 16.1687 12.7168 16.1687 10.4184ZM12.0004 14.0868C9.97763 14.0868 8.33203 12.4411 8.33203 10.4184C8.33203 8.39563 9.97763 6.75 12.0004 6.75C14.0231 6.75 15.6687 8.39563 15.6687 10.4184C15.6687 12.4411 14.0231 14.0868 12.0004 14.0868ZM14.6231 9.49319C14.6079 9.44638 14.5792 9.4051 14.5406 9.37452C14.502 9.34395 14.4553 9.32544 14.4062 9.32131L12.84 9.18978L12.2308 7.74078C12.2118 7.6954 12.1797 7.65667 12.1387 7.62943C12.0977 7.60218 12.0496 7.58765 12.0004 7.58765C11.9512 7.58765 11.903 7.60218 11.862 7.62943C11.821 7.65667 11.789 7.6954 11.7699 7.74078L11.1608 9.18978L9.59447 9.32131C9.54542 9.32543 9.49867 9.34394 9.4601 9.37451C9.42152 9.40509 9.39283 9.44637 9.37762 9.49318C9.36241 9.54 9.36136 9.59026 9.37459 9.63767C9.38783 9.68508 9.41477 9.72752 9.45203 9.75969L10.6419 10.7868L10.283 12.3171C10.2718 12.365 10.2749 12.4151 10.2921 12.4612C10.3093 12.5074 10.3397 12.5474 10.3795 12.5763C10.4193 12.6052 10.4667 12.6218 10.5159 12.6239C10.5651 12.6259 10.6137 12.6135 10.6558 12.588L12.0004 11.7738L13.3448 12.588C13.3869 12.6135 13.4356 12.626 13.4848 12.6239C13.534 12.6219 13.5815 12.6053 13.6213 12.5764C13.6611 12.5474 13.6915 12.5074 13.7087 12.4613C13.7258 12.4151 13.729 12.365 13.7177 12.317L13.3588 10.7868L14.5487 9.75966C14.5859 9.7275 14.6129 9.68505 14.6261 9.63765C14.6393 9.59025 14.6383 9.54 14.6231 9.49319ZM12.9175 10.5072C12.8829 10.537 12.8572 10.5758 12.8431 10.6192C12.829 10.6626 12.827 10.7091 12.8375 10.7535L13.0952 11.8522L12.1299 11.2676C12.0908 11.2439 12.046 11.2314 12.0004 11.2314C11.9547 11.2314 11.9099 11.2439 11.8709 11.2676L10.9056 11.8522L11.1633 10.7535C11.1737 10.7091 11.1717 10.6626 11.1576 10.6192C11.1435 10.5758 11.1178 10.537 11.0832 10.5072L10.2289 9.76978L11.3535 9.67534C11.399 9.67153 11.4426 9.65532 11.4795 9.62848C11.5165 9.60164 11.5454 9.56519 11.5631 9.52309L12.0004 8.48278L12.4377 9.52312C12.4554 9.56522 12.4843 9.60167 12.5212 9.62851C12.5582 9.65535 12.6017 9.67156 12.6473 9.67538L13.7718 9.76981L12.9175 10.5072Z" fill="#C8D02D"/>
</g>
<defs>
<clipPath id="clip0_1424_2620">
<rect width="24" height="24" fill="white"/>
</clipPath>
</defs>
</svg>
