<svg width="24" height="24" viewBox="0 0 24 24" fill="none" xmlns="http://www.w3.org/2000/svg">
<g clip-path="url(#clip0_1424_2603)">
<rect width="24" height="24" rx="12" fill="#024739"/>
<g clip-path="url(#clip1_1424_2603)">
<path d="M7.81833 19.8839H15.9057C16.4933 19.8831 17.0567 19.6493 17.4723 19.2338C17.8878 18.8182 18.1216 18.2549 18.1223 17.6672V8.33385C18.1216 7.74619 17.8878 7.1828 17.4723 6.76725C17.0567 6.35171 16.4933 6.11793 15.9057 6.11719H7.81833C7.47804 6.11743 7.15177 6.25272 6.91115 6.49334C6.67053 6.73396 6.53524 7.06024 6.535 7.40052V8.11779C6.34993 8.15485 6.18338 8.2548 6.06361 8.40067C5.94385 8.54655 5.87824 8.72938 5.87793 8.91812V9.21725C5.87815 9.40602 5.94373 9.58889 6.06351 9.73479C6.18329 9.88068 6.34989 9.98061 6.535 10.0176V12.0504C6.34989 12.0875 6.18333 12.1876 6.06357 12.3335C5.94381 12.4795 5.87822 12.6624 5.87793 12.8512V13.1499C5.87822 13.3387 5.94381 13.5215 6.06357 13.6675C6.18333 13.8135 6.34989 13.9135 6.535 13.9507V15.983C6.34993 16.02 6.18338 16.12 6.06361 16.2659C5.94385 16.4118 5.87824 16.5946 5.87793 16.7833V17.0825C5.87815 17.2712 5.94373 17.4541 6.06351 17.6C6.18329 17.7459 6.34989 17.8458 6.535 17.8828V18.6005C6.53524 18.9408 6.67053 19.2671 6.91115 19.5077C7.15177 19.7483 7.47804 19.8836 7.81833 19.8839ZM6.57793 16.7833C6.57805 16.7524 6.59038 16.7228 6.61224 16.701C6.63409 16.6791 6.66369 16.6668 6.6946 16.6667H7.0754C7.1063 16.6668 7.1359 16.6791 7.15776 16.701C7.17961 16.7228 7.19194 16.7524 7.19206 16.7833V17.0825C7.19206 17.1134 7.17977 17.1431 7.15789 17.1649C7.13601 17.1868 7.10634 17.1991 7.0754 17.1991H6.6946C6.66365 17.1991 6.63398 17.1868 6.6121 17.1649C6.59022 17.1431 6.57793 17.1134 6.57793 17.0825V16.7833ZM6.6946 13.2665C6.66365 13.2665 6.63398 13.2542 6.6121 13.2323C6.59022 13.2105 6.57793 13.1808 6.57793 13.1499V12.8512C6.57793 12.8202 6.59022 12.7906 6.6121 12.7687C6.63398 12.7468 6.66365 12.7345 6.6946 12.7345H7.0754C7.10634 12.7345 7.13601 12.7468 7.15789 12.7687C7.17977 12.7906 7.19206 12.8202 7.19206 12.8512V13.1499C7.19206 13.1808 7.17977 13.2105 7.15789 13.2323C7.13601 13.2542 7.10634 13.2665 7.0754 13.2665H6.6946ZM6.885 9.33252H6.6946C6.66365 9.33252 6.63398 9.32023 6.6121 9.29835C6.59022 9.27647 6.57793 9.2468 6.57793 9.21585V8.91812C6.57787 8.90274 6.58084 8.88749 6.58667 8.87326C6.5925 8.85903 6.60107 8.84608 6.61191 8.83516C6.62274 8.82424 6.63562 8.81556 6.64981 8.80962C6.66399 8.80367 6.67921 8.80058 6.6946 8.80052H7.0754C7.1063 8.80064 7.1359 8.81297 7.15776 8.83483C7.17961 8.85668 7.19194 8.88628 7.19206 8.91719V9.21632C7.19206 9.24726 7.17977 9.27694 7.15789 9.29882C7.13601 9.3207 7.10634 9.33299 7.0754 9.33299H6.89293C6.89013 9.33392 6.8878 9.33252 6.885 9.33252ZM7.81833 6.81719H15.9057C16.3078 6.81768 16.6932 6.97763 16.9776 7.26195C17.2619 7.54628 17.4218 7.93176 17.4223 8.33385V17.6672C17.4218 18.0693 17.2619 18.4548 16.9776 18.7391C16.6932 19.0234 16.3078 19.1834 15.9057 19.1839H7.81833C7.6637 19.1836 7.51547 19.1221 7.40612 19.0127C7.29678 18.9034 7.23524 18.7552 7.235 18.6005V17.8828C7.42036 17.8461 7.58729 17.7463 7.70734 17.6004C7.8274 17.4544 7.89317 17.2714 7.89346 17.0825V16.7833C7.89315 16.5946 7.82755 16.4118 7.70778 16.2659C7.58802 16.12 7.42147 16.02 7.2364 15.983V13.9507C7.4215 13.9135 7.58806 13.8135 7.70782 13.6675C7.82758 13.5215 7.89317 13.3387 7.89346 13.1499V12.8512C7.89317 12.6624 7.82758 12.4795 7.70782 12.3335C7.58806 12.1876 7.4215 12.0875 7.2364 12.0504V10.0176C7.42151 9.98061 7.58811 9.88068 7.70789 9.73479C7.82767 9.58889 7.89324 9.40602 7.89346 9.21725V8.91812C7.89309 8.72918 7.82728 8.5462 7.70724 8.40029C7.5872 8.25439 7.42032 8.15456 7.235 8.11779V7.40052C7.23524 7.24589 7.29678 7.09766 7.40612 6.98831C7.51547 6.87897 7.6637 6.81743 7.81833 6.81719Z" fill="white"/>
<path d="M9.51113 13.4058H15.148C15.2408 13.4058 15.3298 13.3689 15.3955 13.3033C15.4611 13.2377 15.498 13.1486 15.498 13.0558C15.498 12.963 15.4611 12.874 15.3955 12.8083C15.3298 12.7427 15.2408 12.7058 15.148 12.7058H15.1013C15.0874 12.0689 14.8543 11.4562 14.4414 10.9711C14.0284 10.4859 13.4608 10.158 12.8343 10.0426C12.7801 10.0323 12.7302 10.0272 12.6789 10.0202V9.77422H12.7983C12.8912 9.77422 12.9802 9.73734 13.0458 9.67171C13.1115 9.60607 13.1483 9.51704 13.1483 9.42422C13.1483 9.33139 13.1115 9.24237 13.0458 9.17673C12.9802 9.11109 12.8912 9.07422 12.7983 9.07422H11.8603C11.7675 9.07422 11.6785 9.11109 11.6128 9.17673C11.5472 9.24237 11.5103 9.33139 11.5103 9.42422C11.5103 9.51704 11.5472 9.60607 11.6128 9.67171C11.6785 9.73734 11.7675 9.77422 11.8603 9.77422H11.9798V10.0202C11.9289 10.0272 11.879 10.0323 11.8253 10.0426C11.1987 10.1578 10.631 10.4857 10.218 10.9709C9.80504 11.4561 9.57202 12.0688 9.55827 12.7058H9.5116C9.41877 12.7058 9.32975 12.7427 9.26411 12.8083C9.19847 12.874 9.1616 12.963 9.1616 13.0558C9.1616 13.1486 9.19847 13.2377 9.26411 13.3033C9.32975 13.3689 9.41831 13.4058 9.51113 13.4058ZM11.9537 10.7309C12.2036 10.68 12.4612 10.68 12.7111 10.7309C13.1766 10.8168 13.5986 11.0597 13.9066 11.4191C14.2147 11.7785 14.3903 12.2326 14.4041 12.7058H10.2601C10.2739 12.2326 10.4495 11.7783 10.7577 11.4189C11.0659 11.0595 11.488 10.8166 11.9537 10.7309ZM9.51113 15.3178H9.90033C9.99316 15.3178 10.0822 15.2809 10.1478 15.2152C10.2135 15.1496 10.2503 15.0606 10.2503 14.9678C10.2503 14.8749 10.2135 14.7859 10.1478 14.7203C10.0822 14.6546 9.99316 14.6178 9.90033 14.6178H9.51113C9.41831 14.6178 9.32928 14.6546 9.26365 14.7203C9.19801 14.7859 9.16113 14.8749 9.16113 14.9678C9.16113 15.0606 9.19801 15.1496 9.26365 15.2152C9.32928 15.2809 9.41831 15.3178 9.51113 15.3178ZM15.148 14.6178H10.9699C10.8771 14.6178 10.7881 14.6546 10.7224 14.7203C10.6568 14.7859 10.6199 14.8749 10.6199 14.9678C10.6199 15.0606 10.6568 15.1496 10.7224 15.2152C10.7881 15.2809 10.8771 15.3178 10.9699 15.3178H15.148C15.2408 15.3178 15.3298 15.2809 15.3955 15.2152C15.4611 15.1496 15.498 15.0606 15.498 14.9678C15.498 14.8749 15.4611 14.7859 15.3955 14.7203C15.3298 14.6546 15.2408 14.6178 15.148 14.6178ZM9.51113 16.9273H9.90033C9.99316 16.9273 10.0822 16.8904 10.1478 16.8248C10.2135 16.7591 10.2503 16.6701 10.2503 16.5773C10.2503 16.4845 10.2135 16.3954 10.1478 16.3298C10.0822 16.2642 9.99316 16.2273 9.90033 16.2273H9.51113C9.41831 16.2273 9.32928 16.2642 9.26365 16.3298C9.19801 16.3954 9.16113 16.4845 9.16113 16.5773C9.16113 16.6701 9.19801 16.7591 9.26365 16.8248C9.32928 16.8904 9.41831 16.9273 9.51113 16.9273ZM15.148 16.2273H10.9699C10.8771 16.2273 10.7881 16.2642 10.7224 16.3298C10.6568 16.3954 10.6199 16.4845 10.6199 16.5773C10.6199 16.6701 10.6568 16.7591 10.7224 16.8248C10.7881 16.8904 10.8771 16.9273 10.9699 16.9273H15.148C15.2408 16.9273 15.3298 16.8904 15.3955 16.8248C15.4611 16.7591 15.498 16.6701 15.498 16.5773C15.498 16.4845 15.4611 16.3954 15.3955 16.3298C15.3298 16.2642 15.2408 16.2273 15.148 16.2273Z" fill="#C8D02D"/>
</g>
</g>
<defs>
<clipPath id="clip0_1424_2603">
<rect width="24" height="24" fill="white"/>
</clipPath>
<clipPath id="clip1_1424_2603">
<rect width="14" height="14" fill="white" transform="translate(5 6)"/>
</clipPath>
</defs>
</svg>
