<svg width="24" height="24" viewBox="0 0 24 24" fill="none" xmlns="http://www.w3.org/2000/svg">
<g clip-path="url(#clip0_1432_6257)">
<rect width="24" height="24" rx="12" fill="#024739"/>
<path d="M15.1643 19.0013C15.0553 19.0013 14.9474 18.9798 14.8468 18.9381C14.7461 18.8963 14.6546 18.8351 14.5777 18.758L12.7807 16.961C12.5924 16.7742 12.3382 16.6692 12.073 16.6686H6.66667C5.74767 16.6686 5 15.921 5 15.002V10.5713C5 10.4829 5.03512 10.3981 5.09763 10.3356C5.16014 10.2731 5.24493 10.238 5.33333 10.238C5.42174 10.238 5.50652 10.2731 5.56904 10.3356C5.63155 10.3981 5.66667 10.4829 5.66667 10.5713V15.002C5.66667 15.5533 6.11533 16.002 6.66667 16.002H12.0733C12.5127 16.002 12.9423 16.1796 13.2523 16.4896L15.0493 18.2866C15.1193 18.3563 15.1993 18.334 15.2303 18.3213C15.2613 18.3086 15.3337 18.268 15.3337 18.169V16.6686C15.3337 16.301 15.6327 16.002 16.0003 16.002H17.3337C17.885 16.002 18.3337 15.5533 18.3337 15.002V8.33464C18.3337 7.7833 17.885 7.33464 17.3337 7.33464H12.9037C12.8153 7.33464 12.7305 7.29952 12.668 7.237C12.6055 7.17449 12.5703 7.08971 12.5703 7.0013C12.5703 6.9129 12.6055 6.82811 12.668 6.7656C12.7305 6.70309 12.8153 6.66797 12.9037 6.66797H17.3337C18.2527 6.66797 19.0003 7.41564 19.0003 8.33464V15.0016C19.0003 15.9206 18.2527 16.6683 17.3337 16.6683H16.0003V18.1686C16.0005 18.3334 15.9516 18.4944 15.8599 18.6313C15.7682 18.7681 15.6378 18.8745 15.4853 18.937C15.3837 18.9791 15.2747 19.0009 15.1647 19.001L15.1643 19.0013Z" fill="white"/>
<path d="M16.3333 10.0019H12.58C12.4916 10.0019 12.4068 9.9668 12.3443 9.90429C12.2818 9.84178 12.2467 9.75699 12.2467 9.66859C12.2467 9.58018 12.2818 9.4954 12.3443 9.43288C12.4068 9.37037 12.4916 9.33525 12.58 9.33525H16.3333C16.4217 9.33525 16.5065 9.37037 16.569 9.43288C16.6315 9.4954 16.6667 9.58018 16.6667 9.66859C16.6667 9.75699 16.6315 9.84178 16.569 9.90429C16.5065 9.9668 16.4217 10.0019 16.3333 10.0019ZM16.3333 12.0019H7.66667C7.57826 12.0019 7.49348 11.9668 7.43096 11.9043C7.36845 11.8418 7.33333 11.757 7.33333 11.6686C7.33333 11.5802 7.36845 11.4954 7.43096 11.4329C7.49348 11.3704 7.57826 11.3353 7.66667 11.3353H16.3333C16.4217 11.3353 16.5065 11.3704 16.569 11.4329C16.6315 11.4954 16.6667 11.5802 16.6667 11.6686C16.6667 11.757 16.6315 11.8418 16.569 11.9043C16.5065 11.9668 16.4217 12.0019 16.3333 12.0019ZM16.3333 14.0019H7.66667C7.57826 14.0019 7.49348 13.9668 7.43096 13.9043C7.36845 13.8418 7.33333 13.757 7.33333 13.6686C7.33333 13.5802 7.36845 13.4954 7.43096 13.4329C7.49348 13.3704 7.57826 13.3353 7.66667 13.3353H16.3333C16.4217 13.3353 16.5065 13.3704 16.569 13.4329C16.6315 13.4954 16.6667 13.5802 16.6667 13.6686C16.6667 13.757 16.6315 13.8418 16.569 13.9043C16.5065 13.9668 16.4217 14.0019 16.3333 14.0019ZM7 9.33525H6C5.44867 9.33525 5 8.88659 5 8.33525V7.55592C5 7.13325 5.115 6.71792 5.33267 6.35525L5.93133 5.35725C6.01734 5.21521 6.14903 5.10657 6.30484 5.04914C6.46065 4.99171 6.63134 4.98888 6.78897 5.04113C6.94659 5.09337 7.0818 5.19759 7.17246 5.33671C7.26313 5.47584 7.30386 5.64162 7.288 5.80692L7.19967 6.68859C7.42546 6.73491 7.62836 6.8577 7.77416 7.03622C7.91995 7.21475 7.99972 7.43809 8 7.66859V8.33525C8 8.88659 7.55133 9.33525 7 9.33525ZM6.55933 5.66859C6.54801 5.66856 6.53687 5.67146 6.527 5.67701C6.51713 5.68256 6.50886 5.69056 6.503 5.70025L5.90433 6.69859C5.74876 6.95761 5.6666 7.25409 5.66667 7.55625V8.33559C5.66667 8.51925 5.816 8.66892 6 8.66892H7C7.184 8.66892 7.33333 8.51925 7.33333 8.33559V7.66892C7.33333 7.48525 7.184 7.33559 7 7.33559H6.83333C6.78675 7.33559 6.74068 7.32582 6.6981 7.30692C6.65552 7.28802 6.61737 7.26041 6.58612 7.22586C6.55487 7.19131 6.53121 7.1506 6.51666 7.10634C6.50212 7.06208 6.49701 7.01527 6.50167 6.96892L6.62433 5.74092C6.62534 5.73177 6.62437 5.72252 6.6215 5.71378C6.61862 5.70504 6.61391 5.69701 6.60767 5.69025C6.60157 5.6834 6.59407 5.67795 6.58567 5.67427C6.57727 5.67058 6.56817 5.66876 6.559 5.66892L6.55933 5.66859ZM10.6667 9.33525H9.66667C9.11533 9.33525 8.66667 8.88659 8.66667 8.33525V7.55592C8.66667 7.13325 8.78167 6.71792 8.99933 6.35525L9.598 5.35725C9.68401 5.21521 9.8157 5.10657 9.97151 5.04914C10.1273 4.99171 10.298 4.98888 10.4556 5.04113C10.6133 5.09337 10.7485 5.19759 10.8391 5.33671C10.9298 5.47584 10.9705 5.64162 10.9547 5.80692L10.8663 6.68859C11.0921 6.73491 11.295 6.8577 11.4408 7.03622C11.5866 7.21475 11.6664 7.43809 11.6667 7.66859V8.33525C11.6667 8.88659 11.218 9.33525 10.6667 9.33525ZM10.226 5.66859C10.2147 5.66856 10.2035 5.67146 10.1937 5.67701C10.1838 5.68256 10.1755 5.69056 10.1697 5.70025L9.571 6.69859C9.41542 6.95761 9.33326 7.25409 9.33333 7.55625V8.33559C9.33333 8.51925 9.48267 8.66892 9.66667 8.66892H10.6667C10.8507 8.66892 11 8.51925 11 8.33559V7.66892C11 7.48525 10.8507 7.33559 10.6667 7.33559H10.5C10.4534 7.33559 10.4073 7.32582 10.3648 7.30692C10.3222 7.28802 10.284 7.26041 10.2528 7.22586C10.2215 7.19131 10.1979 7.1506 10.1833 7.10634C10.1688 7.06208 10.1637 7.01527 10.1683 6.96892L10.291 5.74092C10.292 5.73177 10.291 5.72252 10.2882 5.71378C10.2853 5.70504 10.2806 5.69701 10.2743 5.69025C10.2682 5.6834 10.2607 5.67795 10.2523 5.67427C10.2439 5.67058 10.2348 5.66876 10.2257 5.66892L10.226 5.66859Z" fill="#C8D02D"/>
</g>
<defs>
<clipPath id="clip0_1432_6257">
<rect width="24" height="24" fill="white"/>
</clipPath>
</defs>
</svg>
