<svg width="24" height="24" viewBox="0 0 24 24" fill="none" xmlns="http://www.w3.org/2000/svg">
<g clip-path="url(#clip0_1424_2534)">
<rect width="24" height="24" rx="12" fill="#024739"/>
<g clip-path="url(#clip1_1424_2534)">
<path d="M18.1294 14.8949L17.377 14.63V14.3814H17.3885C18.1074 14.3814 18.6922 13.797 18.6922 13.0785V11.5831C18.6922 10.651 18.0346 9.84259 17.1246 9.65009C15.7916 8.8092 13.9005 9.89275 13.9555 11.4695V13.0785C13.9555 13.7814 14.5154 14.3557 15.2129 14.3803V14.6333L14.5604 14.8837C14.4063 14.943 14.2649 15.0311 14.1438 15.1433C13.9897 14.9921 13.8036 14.8774 13.5992 14.8079L12.56 14.4538V13.7621C12.7198 13.6654 12.8664 13.5486 12.9963 13.4144C13.3865 13.0116 13.6151 12.4752 13.6433 11.9003C13.6471 11.8865 13.6493 11.0193 13.6493 11.0193C13.6493 10.1737 13.0529 9.44013 12.227 9.26439C11.0169 8.50359 9.30096 9.48644 9.35067 10.917C9.35067 10.917 9.35333 11.9044 9.35753 11.9187C9.39853 12.6439 9.75349 13.2717 10.2787 13.6565V14.4569L9.365 14.7953C9.16287 14.8703 8.98025 14.9899 8.83071 15.1453C8.70612 15.0357 8.56202 14.95 8.40538 14.8949L7.65301 14.63V14.3814H7.66449C8.38337 14.3814 8.96824 13.797 8.96824 13.0785V11.5831C8.96824 10.651 8.31064 9.84259 7.40058 9.65009C6.06763 8.80926 4.17654 9.89275 4.23147 11.4695V13.0785C4.23147 13.7814 4.79141 14.3558 5.48885 14.3803V14.6333L4.83638 14.8837C4.33612 15.0757 4 15.5645 4 16.1V18.164C4 18.2065 4.01688 18.2472 4.04694 18.2773C4.07699 18.3073 4.11775 18.3242 4.16026 18.3242H8.42404V18.8403C8.42404 18.8828 8.44092 18.9236 8.47098 18.9536C8.50103 18.9837 8.54179 19.0005 8.5843 19.0005H14.4157C14.4582 19.0005 14.499 18.9837 14.5291 18.9536C14.5591 18.9236 14.576 18.8828 14.576 18.8403V18.3242H18.8397C18.8822 18.3242 18.923 18.3073 18.9531 18.2773C18.9831 18.2472 19 18.2064 19 18.1639V16.1237C19 15.572 18.6501 15.0782 18.1294 14.8949ZM16.362 13.9082C15.6773 13.9082 15.1203 13.2634 15.1203 12.4708C15.1203 12.2748 15.1539 12.0858 15.2197 11.9078C15.713 11.7059 16.1497 11.3868 16.4918 10.9781C16.8366 11.3723 17.1949 11.7544 17.5661 12.1237C17.5909 12.2377 17.6035 12.3541 17.6037 12.4708C17.6037 13.2634 17.0467 13.9082 16.362 13.9082ZM17.0579 14.7607L16.3629 15.821L15.5334 14.6901V13.96C15.962 14.2786 16.5949 14.3177 17.0565 14.0448V14.7435C17.0565 14.7493 17.0572 14.755 17.0579 14.7607ZM18.3717 13.0785C18.3717 13.6202 17.9306 14.0609 17.3885 14.0609H17.377V13.8054C17.7113 13.4831 17.9238 13.0052 17.9242 12.4723C18.0715 12.6128 18.2207 12.7513 18.3717 12.8878V13.0785ZM14.276 11.4695C14.5372 9.35695 16.4449 9.5108 16.9837 9.9391C16.9982 9.95064 17.017 9.95538 17.0352 9.95897C17.8096 10.1114 18.3717 10.7944 18.3717 11.5831V12.4529C17.7508 11.8779 17.1579 11.2633 16.6075 10.6223C16.5449 10.5452 16.4145 10.5495 16.3572 10.6313C16.0185 11.0883 15.5627 11.4333 15.0409 11.6344C14.8036 11.7295 14.5304 11.7843 14.276 11.8269V11.4695H14.276ZM14.276 13.0785V12.1526C14.4469 12.1211 14.6843 12.0827 14.8487 12.0347C14.8161 12.1778 14.7997 12.324 14.7998 12.4708C14.7998 12.9291 14.9566 13.3469 15.2129 13.6602V14.0598C14.6921 14.0355 14.276 13.6047 14.276 13.0785ZM12.0862 9.5534C12.1021 9.56295 12.1195 9.56965 12.1377 9.57324C12.8279 9.70891 13.3288 10.3171 13.3288 11.0192V11.6C12.7892 11.316 12.3661 10.852 12.133 10.2886C12.0916 10.1795 11.9345 10.1551 11.862 10.247L11.6375 10.5154C11.4386 10.7531 11.1246 10.87 10.8181 10.8202C10.3769 10.7488 9.93737 10.928 9.67115 11.2738V10.917C9.62978 9.71586 11.0787 8.89987 12.0862 9.5534ZM9.6776 11.9028L9.84904 11.5865C10.0275 11.2574 10.3965 11.0767 10.7669 11.1366C11.1845 11.2043 11.6123 11.045 11.8833 10.7211L11.9463 10.6458C12.2444 11.219 12.728 11.6791 13.3193 11.9532C13.2375 12.9623 12.4562 13.7384 11.5 13.7384C10.5298 13.7384 9.73705 12.9354 9.6776 11.9028ZM12.2395 13.9199V14.5283L11.5114 15.8898L10.5993 14.52V13.8508C11.0902 14.0977 11.7226 14.1279 12.2395 13.9199ZM6.63801 13.9082C5.95333 13.9082 5.39631 13.2634 5.39631 12.4708C5.39631 12.2748 5.4299 12.0858 5.49574 11.9078C5.98904 11.7059 6.42568 11.3868 6.76779 10.9781C7.11255 11.3723 7.47088 11.7543 7.84215 12.1237C7.8669 12.2377 7.87951 12.354 7.87974 12.4707C7.87971 13.2634 7.32266 13.9082 6.63801 13.9082ZM7.33388 14.7607L6.63888 15.821L5.80942 14.6901V13.9601C6.23804 14.2786 6.8709 14.3178 7.33253 14.0448V14.7435C7.33253 14.7493 7.33327 14.755 7.33388 14.7607ZM8.64776 13.0785C8.64776 13.6202 8.20667 14.0609 7.66452 14.0609H7.65305V13.8054C7.98731 13.4831 8.19978 13.0052 8.20019 12.4723C8.34748 12.6128 8.49669 12.7513 8.64776 12.8878V13.0785ZM4.55202 11.4695C4.73718 9.49542 6.69103 9.46465 7.25968 9.9391C7.27394 9.95099 7.29304 9.95538 7.31125 9.95897C8.08567 10.1114 8.64776 10.7944 8.64776 11.5831V12.4528C8.02679 11.8778 7.43394 11.2633 6.88359 10.6223C6.82029 10.5451 6.69067 10.5496 6.63324 10.6312C6.29462 11.0882 5.83885 11.4331 5.31724 11.6342C5.07987 11.7294 4.80651 11.7842 4.55202 11.8269V11.4695ZM4.55202 13.0785V12.1526C4.72292 12.1211 4.96029 12.0828 5.12468 12.0347C5.09216 12.1778 5.07577 12.324 5.0758 12.4708C5.0758 12.9291 5.23263 13.3469 5.48891 13.6602V14.0597C4.96821 14.0355 4.55202 13.6047 4.55202 13.0785ZM4.32051 18.0037V16.1C4.32051 15.6962 4.57397 15.3277 4.95125 15.1829L5.59282 14.9367L6.48596 16.1544L6.48506 17.0231C6.48504 17.0442 6.48917 17.065 6.4972 17.0844C6.50524 17.1039 6.51702 17.1216 6.53189 17.1365C6.54676 17.1514 6.56441 17.1632 6.58385 17.1713C6.60328 17.1793 6.62412 17.1835 6.64516 17.1835H6.64532C6.6878 17.1835 6.72853 17.1667 6.75858 17.1366C6.78863 17.1066 6.80553 17.0659 6.80558 17.0234L6.80647 16.1499L7.59375 14.9489L8.29901 15.1972C8.4234 15.2412 8.53764 15.3099 8.63487 15.399C8.50026 15.6201 8.42404 15.8774 8.42404 16.1462V18.0037L4.32051 18.0037ZM14.2555 18.68H13.1026V17.1702C13.1026 17.0817 13.0308 17.0099 12.9423 17.0099C12.8538 17.0099 12.7821 17.0817 12.7821 17.1702V18.68H10.2179V17.1702C10.2179 17.1277 10.2011 17.0869 10.171 17.0569C10.141 17.0268 10.1002 17.0099 10.0577 17.0099C10.0152 17.0099 9.97443 17.0268 9.94437 17.0569C9.91432 17.0869 9.89744 17.1277 9.89744 17.1702V18.68H8.74455V16.1462C8.74455 15.68 9.03862 15.2579 9.47635 15.0958L10.3758 14.7628L11.3403 16.2111L11.3392 16.9135C11.3391 16.9346 11.3433 16.9554 11.3513 16.9749C11.3593 16.9943 11.3711 17.012 11.386 17.0269C11.4009 17.0418 11.4185 17.0536 11.438 17.0617C11.4574 17.0698 11.4782 17.0739 11.4993 17.0739H11.4994C11.5419 17.0739 11.5826 17.0571 11.6127 17.0271C11.6427 16.997 11.6596 16.9563 11.6597 16.9138L11.6608 16.2884C11.6632 16.2847 11.6657 16.281 11.6678 16.2771L12.477 14.764L13.4959 15.1112C13.9503 15.266 14.2555 15.692 14.2555 16.1714L14.2555 18.68ZM18.6795 18.0037H14.576V16.1714C14.5761 15.895 14.4964 15.6245 14.3466 15.3921C14.4411 15.3012 14.5529 15.23 14.6753 15.1829L15.3169 14.9367L16.21 16.1543L16.2091 17.023C16.2091 17.0441 16.2132 17.0649 16.2212 17.0844C16.2292 17.1038 16.241 17.1215 16.2559 17.1364C16.2708 17.1513 16.2884 17.1631 16.3079 17.1712C16.3273 17.1793 16.3481 17.1834 16.3692 17.1835H16.3693C16.4118 17.1835 16.4525 17.1666 16.4826 17.1366C16.5126 17.1066 16.5295 17.0658 16.5296 17.0234L16.5305 16.1499L17.3178 14.9489L18.023 15.1972C18.4157 15.3354 18.6795 15.7078 18.6795 16.1237V18.0037Z" fill="white"/>
<path d="M13.8994 10.064C13.7621 10.0688 13.6838 9.8851 13.7864 9.79006L14.079 9.4993L13.7267 8.9224C13.7118 8.89808 13.7037 8.87024 13.7032 8.84174C13.7027 8.81325 13.7098 8.78513 13.7238 8.76029C13.819 8.59116 13.8942 8.41157 13.948 8.2251C13.9559 8.19793 13.9707 8.17332 13.9911 8.15375C14.0115 8.13418 14.0367 8.12036 14.0642 8.11369L14.7265 7.95272V7.10939L14.0664 6.94897C14.0389 6.94228 14.0136 6.92841 13.9932 6.90876C13.9728 6.88912 13.9579 6.8644 13.9502 6.83715C13.8969 6.6505 13.8221 6.47065 13.7274 6.30122C13.7136 6.27641 13.7066 6.24836 13.7071 6.21994C13.7077 6.19153 13.7158 6.16377 13.7306 6.13952L14.0841 5.56071L13.4834 4.96359L12.9016 5.31478C12.8774 5.32935 12.8499 5.33729 12.8216 5.33779C12.7934 5.33829 12.7656 5.33134 12.7409 5.31763C12.5705 5.22282 12.3897 5.14795 12.2021 5.09452C12.1749 5.08678 12.1502 5.07199 12.1306 5.05164C12.111 5.03129 12.0971 5.00611 12.0903 4.97865L11.9285 4.32051H11.0779L10.9166 4.97641C10.9099 5.00394 10.8959 5.02918 10.8762 5.04955C10.8565 5.06993 10.8317 5.08472 10.8044 5.0924C10.6167 5.14533 10.4357 5.21966 10.2649 5.31394C10.2403 5.32755 10.2125 5.33443 10.1844 5.33389C10.1562 5.33335 10.1287 5.32541 10.1046 5.31087L9.52087 4.95853L8.92023 5.55564L9.27253 6.13253C9.28739 6.15685 9.29549 6.1847 9.29601 6.21319C9.29652 6.24169 9.28942 6.26981 9.27545 6.29465C9.18023 6.46378 9.10496 6.64339 9.05115 6.82987C9.04333 6.85703 9.02847 6.88164 9.00807 6.9012C8.98767 6.92076 8.96246 6.93458 8.935 6.94125L8.27266 7.10221V7.94558L8.93273 8.10599C8.96027 8.11268 8.98554 8.12656 9.00597 8.1462C9.0264 8.16585 9.04125 8.19056 9.04901 8.21782C9.10226 8.40448 9.177 8.58433 9.27173 8.75375C9.28559 8.77856 9.2926 8.80661 9.29205 8.83502C9.2915 8.86344 9.2834 8.89119 9.26859 8.91545L8.9151 9.49426L9.17282 9.75048C9.2028 9.78048 9.21967 9.82114 9.21973 9.86355C9.21979 9.90597 9.20303 9.94667 9.17313 9.97675C9.14323 10.0068 9.10262 10.0238 9.06021 10.024C9.0178 10.0242 8.97704 10.0076 8.94686 9.97779L8.59939 9.63237C8.57383 9.60697 8.55757 9.57369 8.55326 9.53791C8.54894 9.50213 8.55682 9.46594 8.57561 9.43519L8.94718 8.82683C8.87573 8.68836 8.81584 8.54422 8.76811 8.3959L8.07455 8.22734C8.03965 8.21886 8.00861 8.1989 7.98642 8.17066C7.96422 8.14242 7.95215 8.10755 7.95215 8.07163V6.97622C7.95215 6.9403 7.96422 6.90543 7.98642 6.87719C8.00861 6.84896 8.03965 6.829 8.07455 6.82051L8.77064 6.65135C8.81881 6.50317 8.87911 6.35922 8.95093 6.22096L8.58074 5.61474C8.56196 5.58399 8.55409 5.5478 8.5584 5.51203C8.56272 5.47625 8.57896 5.44297 8.60452 5.41756L9.38362 4.64308C9.40897 4.6179 9.44199 4.60191 9.47746 4.59764C9.51292 4.59337 9.5488 4.60107 9.57939 4.61952L10.1925 4.98958C10.3323 4.91823 10.4777 4.85848 10.6272 4.81096L10.7967 4.12202C10.8052 4.08721 10.8252 4.05627 10.8534 4.03415C10.8816 4.01203 10.9164 4 10.9523 4H12.0541C12.0899 4 12.1247 4.01201 12.1529 4.03413C12.1811 4.05624 12.2011 4.08718 12.2097 4.12199L12.3797 4.81346C12.5291 4.8614 12.6744 4.92155 12.8139 4.9933L13.4248 4.62455C13.4554 4.60609 13.4913 4.59838 13.5268 4.60264C13.5623 4.60691 13.5953 4.62292 13.6206 4.64811L14.3998 5.4226C14.4253 5.44801 14.4416 5.48128 14.4459 5.51706C14.4502 5.55283 14.4423 5.58902 14.4236 5.61978L14.052 6.22821C14.1234 6.36668 14.1833 6.51081 14.2311 6.65913L14.9246 6.82769C14.9595 6.83618 14.9906 6.85614 15.0128 6.88437C15.0349 6.91261 15.047 6.94748 15.047 6.9834V8.07872C15.047 8.11463 15.0349 8.14951 15.0128 8.17774C14.9906 8.20598 14.9595 8.22594 14.9246 8.23442L14.2285 8.40359C14.1804 8.55176 14.1201 8.69571 14.0482 8.83397L14.4185 9.44019C14.4373 9.47095 14.4451 9.50713 14.4408 9.54291C14.4365 9.57868 14.4203 9.61196 14.3947 9.63737L14.0124 10.0174C13.9824 10.0473 13.9418 10.064 13.8994 10.064Z" fill="#C8D02D"/>
<path d="M11.5 8.87328C10.7569 8.87328 10.1523 8.26911 10.1523 7.52648C10.1523 6.78385 10.7569 6.17969 11.5 6.17969C12.2431 6.17969 12.8477 6.78389 12.8477 7.52651C12.8477 8.26914 12.2431 8.87328 11.5 8.87328ZM11.5 6.5002C10.9336 6.5002 10.4729 6.96058 10.4729 7.52651C10.4729 8.09238 10.9336 8.5528 11.5 8.5528C12.0664 8.5528 12.5272 8.09241 12.5272 7.52651C12.5272 6.96058 12.0664 6.5002 11.5 6.5002Z" fill="#C8D02D"/>
<path d="M11.5003 17.7643C11.6154 17.7643 11.7087 17.671 11.7087 17.556C11.7087 17.4409 11.6154 17.3477 11.5003 17.3477C11.3853 17.3477 11.292 17.4409 11.292 17.556C11.292 17.671 11.3853 17.7643 11.5003 17.7643Z" fill="white"/>
</g>
</g>
<defs>
<clipPath id="clip0_1424_2534">
<rect width="24" height="24" fill="white"/>
</clipPath>
<clipPath id="clip1_1424_2534">
<rect width="15" height="15" fill="white" transform="translate(4 4)"/>
</clipPath>
</defs>
</svg>
