<svg width="24" height="24" viewBox="0 0 24 24" fill="none" xmlns="http://www.w3.org/2000/svg">
<g clip-path="url(#clip0_1424_2484)">
<rect width="24" height="24" rx="12" fill="#024739"/>
<mask id="mask0_1424_2484" style="mask-type:luminance" maskUnits="userSpaceOnUse" x="0" y="0" width="25" height="25">
<path d="M24.01 0H0V24.01H24.01V0Z" fill="white"/>
</mask>
<g mask="url(#mask0_1424_2484)">
<path d="M11.7393 4.20869C5.85926 4.42869 2.28926 10.8487 5.29926 15.9487C8.26926 20.9987 15.5693 21.0487 18.6493 16.0687C21.9093 10.7987 17.9093 3.96869 11.7493 4.20869M20.3493 11.3387V12.6787L20.1093 14.0487C19.3693 16.9887 16.9993 19.3587 14.0593 20.0987L12.6193 20.3387C12.1893 20.3187 11.7393 20.3687 11.3093 20.3387C4.20926 19.8187 1.02926 10.8987 6.20926 5.95869C11.2893 1.09869 19.8693 4.38869 20.3493 11.3387Z" fill="white"/>
<path d="M14.3703 16.6178C14.5203 16.4778 14.4403 16.2778 14.4403 16.1278C14.4403 14.6278 14.2803 13.1278 14.2503 11.6278C14.2703 11.3678 14.5903 11.3378 14.7503 11.1878C15.2603 10.7278 15.0103 9.28777 14.7103 8.74777C14.4403 8.26777 13.7003 8.27777 13.4503 8.76777C13.1703 9.32777 12.9003 10.7178 13.4203 11.1878C13.5903 11.3478 13.9203 11.3678 13.9303 11.6578L13.7103 16.3478C13.6803 16.6978 14.1603 16.8278 14.3803 16.6278M13.8903 7.82777C14.6103 7.72777 15.1103 8.12777 15.3403 8.76777C15.6203 9.52777 15.8303 10.7378 15.3003 11.4178C15.1703 11.5878 14.9703 11.6878 14.8403 11.8378C14.8703 12.4178 14.8803 12.9878 14.9003 13.5678C14.9303 14.2978 14.9703 15.0178 15.0003 15.7578C15.0103 16.1178 15.1103 16.4478 14.9303 16.7978C14.5903 17.4278 13.6103 17.4478 13.2603 16.8178C13.0603 16.4678 13.1603 16.1578 13.1803 15.7978C13.2303 14.4778 13.2803 13.1678 13.3403 11.8478C13.2203 11.7078 13.0403 11.6078 12.9203 11.4578C12.3403 10.7678 12.5603 9.55777 12.8503 8.76777C13.0303 8.28777 13.3503 7.89777 13.8903 7.82777Z" fill="white"/>
<path d="M8.86087 7.90072C8.86087 7.90072 8.93087 8.01072 8.94087 8.07072V10.4807C9.11087 10.7307 9.74087 11.1607 9.79087 11.4307L9.54087 16.3207C9.57087 16.8507 10.2309 16.8207 10.2809 16.4207C10.3209 16.1307 10.2509 15.8207 10.2509 15.5407C10.2009 14.1707 10.1209 12.8007 10.0609 11.4307C10.1009 11.1507 10.7309 10.7307 10.9009 10.4807V8.02072C11.0309 7.74072 11.4209 7.77072 11.4609 8.08072V10.6807C11.4409 10.7407 11.4009 10.8007 11.3609 10.8507C11.2109 11.0607 10.7809 11.3507 10.6709 11.5307C10.6509 11.5607 10.6309 11.5907 10.6409 11.6307C10.7009 13.0507 10.7909 14.4607 10.8409 15.8707C10.8409 16.0607 10.9009 16.2407 10.8709 16.4507C10.7409 17.5607 9.12087 17.5607 8.98087 16.4507C8.96087 16.2407 9.00087 16.0607 9.01087 15.8707C9.06087 14.4507 9.15087 13.0207 9.20087 11.6007C9.02087 11.2807 8.42087 10.9707 8.38087 10.5907C8.30087 9.80072 8.44087 8.88072 8.38087 8.08072C8.41087 7.85072 8.69087 7.74072 8.86087 7.91072" fill="white"/>
<path d="M15.97 8.31746C16.25 8.25746 16.54 8.75746 16.68 8.96746C17.87 10.7975 17.87 13.1975 16.68 15.0275C16.56 15.2075 16.01 15.9475 15.85 15.9975C15.6 16.0775 15.4 15.8975 15.46 15.6475C15.68 15.3575 15.94 15.1075 16.14 14.7975C17.18 13.2575 17.27 11.1875 16.37 9.56746C16.26 9.36746 15.78 8.77746 15.76 8.64746C15.74 8.51746 15.83 8.35746 15.97 8.32746" fill="#C8D02D"/>
<path d="M7.6608 8.61156C7.9408 8.55156 8.0808 8.80156 7.9608 9.05156C7.8308 9.33156 7.5808 9.61156 7.4408 9.93156C6.7308 11.5116 6.8908 13.3616 7.8508 14.7916C8.0608 15.1016 8.3208 15.3516 8.5308 15.6516C8.5808 15.8816 8.3808 16.0716 8.1508 15.9916C8.0008 15.9416 7.5008 15.2816 7.3908 15.1216C6.1908 13.3616 6.1108 10.9716 7.2108 9.14156C7.2908 9.00156 7.5008 8.64156 7.6508 8.60156" fill="#C8D02D"/>
<path d="M13.431 6.62051C13.621 6.77051 13.541 7.10051 13.291 7.13051C13.101 7.15051 12.671 7.02051 12.441 7.00051C11.941 6.97051 11.381 7.00051 10.891 7.11051C10.701 7.15051 10.271 7.33051 10.121 7.32051C9.81095 7.31051 9.72094 6.91051 10.071 6.75051C10.591 6.51051 11.661 6.38051 12.241 6.41051C12.421 6.41051 13.311 6.53051 13.421 6.62051" fill="#C8D02D"/>
<path d="M9.41987 7.83031C9.65987 7.78031 9.76987 7.95031 9.78987 8.16031C9.84987 8.85031 9.73987 9.64031 9.78987 10.3403C9.72987 10.7003 9.24987 10.7203 9.19987 10.2103C9.15987 9.70031 9.14987 8.69031 9.19987 8.19031C9.20987 8.05031 9.25987 7.86031 9.41987 7.82031" fill="white"/>
<path d="M10.2708 7.82997C10.5508 7.76997 10.6208 7.99997 10.6408 8.22997C10.6808 8.72997 10.6908 9.75997 10.6408 10.25C10.5908 10.7 10.1408 10.74 10.0508 10.32C10.1108 9.62997 9.97079 8.80997 10.0508 8.12997C10.0708 7.99997 10.1308 7.85997 10.2708 7.82997Z" fill="white"/>
<path d="M11.3794 16.9625C11.4594 16.9625 11.5394 16.9925 11.6294 16.9925C11.8894 16.9925 12.1494 16.9925 12.4094 16.9925C12.4994 16.9925 12.5694 16.9525 12.6594 16.9625C12.9794 17.0225 13.0194 17.4725 12.6294 17.5425C12.2894 17.6025 11.6694 17.6025 11.3394 17.5425C11.0094 17.4825 10.9994 17.0125 11.3694 16.9725" fill="#C8D02D"/>
</g>
</g>
<defs>
<clipPath id="clip0_1424_2484">
<rect width="24" height="24" fill="white"/>
</clipPath>
</defs>
</svg>
