<svg width="24" height="24" viewBox="0 0 24 24" fill="none" xmlns="http://www.w3.org/2000/svg">
<g clip-path="url(#clip0_1424_2458)">
<rect width="24" height="24" rx="12" fill="#024739"/>
<mask id="mask0_1424_2458" style="mask-type:luminance" maskUnits="userSpaceOnUse" x="0" y="0" width="24" height="24">
<path d="M24 0H0V24H24V0Z" fill="white"/>
</mask>
<g mask="url(#mask0_1424_2458)">
<path d="M10.9306 17.3063C10.9204 16.654 10.9917 16.012 11.1344 15.3802C11.1751 15.2069 11.3686 14.6056 11.3585 14.5037C11.3381 14.3203 10.9408 13.6986 10.8186 13.5152C9.43319 11.6298 7.48752 12.1598 5.62335 11.2732C5.39924 11.1712 5.15476 10.9674 4.95102 10.8859C4.91027 10.8655 4.87971 10.8553 4.83897 10.8655C3.93234 13.5763 5.29737 16.9394 8.10891 17.8158C8.93404 18.0706 9.8101 18.1216 10.6556 17.9585C9.95272 16.6846 8.8118 15.6247 7.67088 14.7381C7.5079 14.6158 6.98837 14.3203 6.95781 14.147C6.92725 13.9738 7.06987 13.8005 7.24304 13.8209C7.38566 13.8311 8.03761 14.3407 8.19041 14.463C9.23965 15.2681 10.1768 16.2158 10.9306 17.3063ZM4.03421 11.9865C4.06477 11.6604 4.32963 10.5088 4.51299 10.2744C4.56392 10.2031 4.6556 10.1521 4.74729 10.1623C5.09364 10.3356 5.39924 10.57 5.75577 10.7432C7.11061 11.4056 8.59788 11.263 9.91197 11.9967C10.6658 12.4146 11.277 13.077 11.6641 13.8515C12.4383 12.5674 13.732 11.9356 15.1581 11.6196C16.513 11.3241 17.3177 11.263 18.5503 10.5292C18.7744 10.3967 19.1513 9.99928 19.3958 10.2235C19.5486 10.3661 19.8135 11.4056 19.8542 11.6604C20.5978 15.8082 17.8882 19.7012 13.6097 19.9763H12.3058C12.1428 19.9254 11.9187 19.956 11.878 19.7317C11.8372 19.5381 12.1632 18.9368 12.2753 18.733C13.0393 17.3267 14.2209 16.012 15.4739 15.0235C15.6267 14.9114 16.136 14.4935 16.2685 14.4426C16.5537 14.3407 16.7371 14.6158 16.5945 14.8604C14.9136 16.0324 13.4467 17.5712 12.5707 19.4362C13.6607 19.477 14.7303 19.3445 15.7388 18.9165C18.8152 17.6222 20.0885 13.933 19.1004 10.8451C19.0596 10.8146 18.6114 11.1203 18.5299 11.161C18.3568 11.2528 18.1632 11.3547 17.99 11.4362C16.2481 12.2209 14.3228 11.9254 12.8152 13.291C11.4501 14.5241 11.5418 16.5317 11.4603 18.2235C11.3992 18.4069 10.9204 18.4681 10.7371 18.4884C7.47734 19.0082 4.77785 17.0311 4.14627 13.8311C4.10552 13.6273 4.10552 13.4133 4.03421 13.2095C4.06477 12.8018 4.00365 12.3636 4.03421 11.9661" fill="white"/>
<path d="M9.99175 4.59691C8.17851 4.70901 7.4145 6.83895 8.58598 8.19436C9.14625 8.84659 9.94082 9.57016 10.5622 10.202C11.0308 10.681 11.5095 11.1701 12.0087 11.6186L15.3907 8.21474C17.0817 6.26825 14.7693 3.64914 12.7014 4.96379C12.4875 5.09627 12.3245 5.34086 12.1615 5.44277C11.8763 5.61602 11.6929 5.25933 11.5095 5.10646C11.1021 4.77016 10.5418 4.56633 10.0121 4.6071M9.93063 4.06697C10.6844 4.01602 11.4382 4.30137 11.9781 4.8313C12.1106 4.73958 12.2226 4.61729 12.355 4.52557C14.8814 2.73194 18.0189 6.08481 15.6963 8.67334C14.9017 9.55997 13.934 10.4262 13.0783 11.2822C12.8033 11.5574 12.518 11.9447 12.2124 12.1893C12.0291 12.3319 11.9578 12.3319 11.7744 12.1893C10.6742 10.9358 9.26849 9.81474 8.17851 8.56124C6.71161 6.86952 7.68954 4.21984 9.93063 4.05678" fill="#C8D02D"/>
<path d="M9.08558 5.52448C9.27913 5.46333 9.47267 5.57543 9.47267 5.77925C9.47267 5.90155 9.23838 6.11556 9.17726 6.25823C9.07539 6.50282 9.04483 6.77798 9.11614 7.03276C9.17726 7.24677 9.49305 7.53212 9.24857 7.73594C8.86147 8.05187 8.56605 7.18562 8.53549 6.92066C8.49475 6.51301 8.6068 6.03403 8.87166 5.70792C8.90222 5.66715 9.03464 5.52448 9.07539 5.51429" fill="#C8D02D"/>
<path d="M10.6143 5.21562C10.7365 5.34811 10.6754 5.61308 10.5124 5.66403C10.3698 5.7048 9.94197 5.66403 9.89104 5.49078C9.74842 5.02199 10.4513 5.02199 10.6245 5.21562" fill="#C8D02D"/>
</g>
</g>
<defs>
<clipPath id="clip0_1424_2458">
<rect width="24" height="24" fill="white"/>
</clipPath>
</defs>
</svg>
