<svg width="24" height="24" viewBox="0 0 24 24" fill="none" xmlns="http://www.w3.org/2000/svg">
<g clip-path="url(#clip0_1424_2440)">
<rect width="24" height="24" rx="12" fill="#024739"/>
<mask id="mask0_1424_2440" style="mask-type:luminance" maskUnits="userSpaceOnUse" x="0" y="0" width="24" height="24">
<path d="M24 0H0V24H24V0Z" fill="white"/>
</mask>
<g mask="url(#mask0_1424_2440)">
<path d="M5.74442 12.8706C5.8361 11.6069 6.2945 11.2095 6.75291 10.1802C7.3743 8.80444 6.8344 7.3675 7.23168 5.96113C7.66971 4.38151 9.16717 3.15858 10.8073 3.04648C12.9669 2.90381 15.0755 2.93438 16.3387 4.94202C17.2147 6.32801 16.8582 7.41846 16.9499 8.91654C17.0314 10.2006 17.8361 10.812 18.1214 11.9432C18.3557 12.8706 18.2742 13.8897 17.8871 14.756C17.8056 14.9394 17.5509 15.4388 17.3981 15.5305C17.2453 15.6222 17.011 15.5407 16.9601 15.3776C16.8888 15.1534 17.2351 14.7254 17.337 14.491C17.7241 13.5942 17.7444 12.5751 17.3777 11.6681C17.1944 11.2095 16.8684 10.8018 16.6647 10.3432C15.9516 8.70253 16.7869 6.93947 15.8701 5.35986C14.8208 3.54584 12.8854 3.52546 11.0008 3.63756C9.30979 3.73947 7.89383 4.9624 7.6901 6.67451C7.5373 7.94839 7.86326 9.08979 7.34374 10.3229C7.15019 10.7917 6.80384 11.1891 6.62048 11.6681C6.12133 12.9318 6.35562 14.3687 7.23168 15.398C7.32337 15.4999 7.82252 15.9993 7.9142 16.0095C7.99569 16.0197 8.51522 15.8566 8.68839 15.8362C8.81063 15.826 8.94306 15.8362 9.0653 15.8362C9.78856 15.7547 10.2776 15.2553 10.2674 14.5114C9.3709 14.0936 8.59672 13.2783 8.25037 12.3407C7.82253 11.1993 8.05681 9.96623 7.99569 8.77387C7.99569 8.43756 8.51523 8.41718 8.58653 8.71272C8.65784 10.1904 8.32168 11.5866 9.2283 12.8706C10.573 14.7764 13.3947 14.7662 14.7495 12.8706C15.5849 11.6987 15.3607 10.4655 15.3811 9.11018C14.5866 9.11018 14.0467 8.51909 13.792 7.81591C12.7428 8.45795 11.5916 8.95731 10.3794 9.2019C10.1858 9.24266 9.6867 9.35476 9.52371 9.28342C9.24867 9.15094 9.34034 8.79425 9.62557 8.70253C10.0127 8.59043 10.4915 8.54967 10.8989 8.43756C11.8158 8.18279 12.6307 7.79553 13.4456 7.30635C13.6596 7.18406 13.8939 6.9089 14.1485 6.99043C14.3726 7.06177 14.3421 7.49998 14.4134 7.714C14.5254 8.07068 14.7903 8.37642 15.157 8.47833C15.4015 8.54967 15.8803 8.44776 15.9516 8.69234C15.921 9.78279 16.1146 11.0057 15.809 12.0655C15.1978 14.1547 12.9465 15.3675 10.8582 14.7662C10.8175 15.2655 10.5628 15.7139 10.1961 16.0503L11.9686 17.426C12.0602 17.4362 12.8446 16.7432 12.9974 16.6413C13.4151 16.3866 13.7003 16.784 13.4151 17.0999C13.2419 17.2936 12.4677 17.8643 12.2334 18.0171C12.0908 18.1089 12.0297 18.17 11.8463 18.0987L9.60521 16.3764C8.79027 16.4681 8.08737 16.4579 7.42523 17.0184C6.80384 17.5382 6.55936 18.1802 6.51861 18.9853C6.48805 19.5254 6.60011 20.2694 6.51861 20.7687C6.49824 20.891 6.42693 20.9318 6.34544 21.0031H6.10095C6.01946 20.891 5.94816 20.8604 5.92779 20.7076C5.85648 20.1471 5.88703 18.7407 6.01946 18.2006C6.13151 17.7216 6.40657 17.212 6.73254 16.8452C6.90572 16.6515 7.14 16.519 7.2928 16.3254C6.50842 15.6834 5.96853 14.756 5.79535 13.7573C5.76479 13.5738 5.7648 13.37 5.71387 13.1866C5.71387 13.0846 5.71387 12.9725 5.71387 12.8706" fill="white"/>
<path d="M17.6545 21.0041C17.573 20.9328 17.5017 20.892 17.4813 20.7697C17.3998 20.2805 17.5119 19.5468 17.4813 19.0168C17.4304 17.9875 16.9516 17.0601 15.9635 16.6423C15.1995 16.3264 14.517 16.6016 13.8039 16.0308C13.6002 15.8678 13.1927 15.4398 13.427 15.185C13.7326 14.8487 14.0076 15.399 14.2012 15.5621C14.6698 15.9391 15.1791 15.7965 15.7292 15.9289C16.8192 16.1837 17.7258 17.1111 17.9805 18.2016C18.1027 18.7519 18.1333 20.1379 18.0721 20.7086C18.0518 20.8512 18.0008 20.9226 17.899 21.0041H17.6545Z" fill="#C8D02D"/>
</g>
</g>
<defs>
<clipPath id="clip0_1424_2440">
<rect width="24" height="24" fill="white"/>
</clipPath>
</defs>
</svg>
