<svg width="24" height="24" viewBox="0 0 24 24" fill="none" xmlns="http://www.w3.org/2000/svg">
<g clip-path="url(#clip0_1424_2499)">
<rect width="24" height="24" rx="12" fill="#024739"/>
<mask id="mask0_1424_2499" style="mask-type:luminance" maskUnits="userSpaceOnUse" x="0" y="0" width="24" height="24">
<path d="M24 0H0V24H24V0Z" fill="white"/>
</mask>
<g mask="url(#mask0_1424_2499)">
<path d="M16.8695 17.418L16.2991 17.7951C16.0648 17.897 15.8203 17.9581 15.5656 17.9887C15.5147 18.162 15.4943 18.3352 15.4434 18.5085C15.26 19.1097 14.7609 19.4257 14.3738 19.8843C14.8729 19.6295 15.4128 19.3543 15.8814 19.0486C16.4722 18.6715 16.8899 18.1518 16.8797 17.4078M15.2193 14.4422C13.4264 14.646 13.5283 17.255 15.1683 17.4282C17.4909 17.6626 17.3381 14.1976 15.2193 14.4422ZM6.70314 14.1059C6.64202 14.5441 6.74388 15.0944 6.70314 15.5429H8.23115V14.4728C8.23115 14.4728 8.32283 14.3097 8.3432 14.2894C8.51638 14.1467 8.80161 14.2588 8.82198 14.483L8.85254 17.2244L10.2787 18.0499C10.4519 18.0702 10.6352 17.632 10.8695 17.632C11.0529 17.632 11.1751 17.8053 11.1446 17.9785C11.114 18.1212 10.8186 18.2843 10.8695 18.376L13.0597 19.6702C13.1819 19.7925 13.2736 19.9556 13.2838 20.139C13.8746 19.4664 14.8933 18.9059 14.9646 17.9276C14.384 17.8562 13.8237 17.4078 13.5486 16.8881C13.4977 16.7862 13.3755 16.3683 13.3347 16.3581C13.08 16.2664 12.5707 16.6231 12.3873 16.7862C12.2957 16.8677 12.0308 17.1836 11.9493 17.204C11.6946 17.2855 11.4909 17.0817 11.5724 16.8269C11.5826 16.7862 12.0919 16.2766 12.1632 16.2155C12.4892 15.9505 12.8967 15.7976 13.3143 15.7467C13.4875 13.9836 15.586 13.1989 16.8695 14.4422C16.9408 13.6881 16.35 12.9645 15.6064 12.8524C15.4434 12.832 14.822 12.8015 14.6997 12.8524C14.5877 12.883 13.7524 13.8206 13.5588 13.9836C12.7846 14.6257 11.6743 14.7785 10.7473 14.4015C9.98327 14.0957 9.51468 13.3925 8.92385 12.8626C8.30246 12.8015 7.69125 12.8015 7.20229 13.2397C7.00874 13.4129 6.75407 13.8409 6.71332 14.1059M13.0597 11.9556C12.2447 12.455 11.3381 12.4448 10.5232 11.9556C10.5843 12.5263 10.3398 12.8932 9.73879 12.8728C10.8186 14.4218 12.7643 14.4218 13.8441 12.8728C13.243 12.8932 12.9986 12.5365 13.0597 11.9556ZM8.49601 7.99121C8.20059 7.99121 8.25152 8.37847 8.30246 8.5823C8.36358 8.81669 8.61825 9.10204 8.87292 9.11223C8.80161 8.90841 8.87292 8.60268 8.80161 8.41924C8.74049 8.28675 8.46545 8.21542 8.49601 7.99121ZM14.6997 9.11223C15.3109 9.05108 15.6675 7.80777 14.771 7.95045L14.6997 9.11223ZM14.2108 8.06255C12.8152 8.36828 11.389 7.85873 10.4417 6.82943C10.2278 7.38994 9.83047 7.85873 9.40263 8.27656C9.44337 8.90841 9.37207 9.75427 9.64711 10.3352C9.94253 10.9671 10.9612 11.7008 11.6539 11.762C12.6115 11.8435 14.0376 10.7327 14.0885 9.7237L14.2006 8.06255H14.2108ZM12.7235 4.02688C12.7948 2.61032 10.7473 2.67147 10.8899 4.06765C11.4807 3.84344 12.1123 3.88421 12.7235 4.02688ZM6.1123 14.1263C6.23455 13.1989 7.1921 12.2511 8.14966 12.2511H9.92215V11.5581C9.92215 11.5581 9.5758 11.2116 9.51468 11.1505C9.17852 10.7429 8.92385 10.2537 8.91366 9.71351C7.99685 9.69312 7.2736 8.31733 7.94592 7.63452C8.08854 7.49185 8.41451 7.41032 8.4247 7.38994C8.44507 7.35937 8.45526 6.80905 8.47563 6.67656C8.59787 5.953 9.29057 4.353 10.2583 4.78102C10.2583 4.67911 10.3907 4.5772 10.4009 4.49567C10.4009 4.43452 10.3092 4.18994 10.2991 4.08803C10.0953 2.02943 13.2634 1.8358 13.3245 3.90459C13.3245 4.0065 13.2634 4.20013 13.3042 4.26128C13.3245 4.29185 13.8644 4.61796 13.9765 4.70968C14.0682 4.79121 14.3432 5.04599 14.3636 5.1479C14.4247 5.42306 14.2108 5.55554 13.9561 5.47401C13.8542 5.44344 13.4468 5.01542 13.2634 4.90331C12.5605 4.47529 10.9816 4.10841 10.6963 5.19886C10.6454 5.41287 10.6963 5.72879 10.3907 5.74917C10.0342 5.76956 10.1463 5.24981 9.91196 5.27019C9.78972 5.28038 9.52487 5.62688 9.45356 5.73898C9.04609 6.37083 8.95441 7.0944 9.02572 7.83835C9.39244 7.52242 9.66748 7.10459 9.90178 6.67656C10.0138 6.46255 10.1157 5.93261 10.4213 5.97338C10.6149 6.00395 10.8695 6.45236 11.0223 6.60523C11.6946 7.27784 12.7235 7.64472 13.6709 7.57338C13.8237 7.57338 14.4145 7.47147 14.496 7.38994C14.7914 7.10459 14.1395 6.18739 14.6896 6.08548C15.148 6.00395 15.148 7.0944 15.148 7.37975C16.4824 7.72624 15.8203 9.64217 14.659 9.70332C14.6386 10.2333 14.3941 10.7429 14.058 11.1403C13.9969 11.2116 13.6505 11.5276 13.6505 11.548V12.2409H15.423C16.4824 12.2409 17.389 13.2702 17.4604 14.2792C17.5215 15.1658 17.5215 16.5314 17.4604 17.4282C17.4094 18.1823 17.0733 18.8346 16.5028 19.3136C15.3415 19.9046 14.1293 20.8626 12.968 21.3823C12.8254 21.4435 12.5198 21.5454 12.3772 21.5658H11.1038C10.839 21.4843 10.6047 21.3722 10.3602 21.2499C9.99346 21.0664 9.24983 20.6588 8.94422 20.4244C8.62843 20.1798 8.83217 19.8129 9.16833 19.9046C10.1259 20.3225 11.2057 21.525 12.2855 20.7403C12.4179 20.6384 12.7948 20.2919 12.6828 20.1288L8.45526 17.6626C8.38395 17.6218 8.24134 17.4588 8.24134 17.3874V16.1339H6.71332V17.683C6.71332 18.0397 7.18191 18.6613 7.46714 18.8753C7.70144 19.0588 8.3432 19.2422 8.1904 19.6091C8.04779 19.9454 7.58938 19.6295 7.39584 19.5174C6.69295 19.0894 6.29567 18.4779 6.12249 17.6728V14.2282C6.12249 14.2282 6.12249 14.1569 6.12249 14.1161" fill="white"/>
<path d="M15.7385 15.3671C15.9524 15.3263 16.1663 15.6219 16.2172 15.8053C16.4006 16.5391 15.7181 17.1607 15.0152 16.8652C14.7707 16.7633 14.5161 16.4372 14.8217 16.2435C15.1171 16.0601 15.3208 16.5696 15.606 16.2843C15.8709 16.0091 15.3616 15.7544 15.5857 15.4792C15.6162 15.4384 15.6977 15.3875 15.7487 15.3773" fill="#C8D02D"/>
</g>
</g>
<defs>
<clipPath id="clip0_1424_2499">
<rect width="24" height="24" fill="white"/>
</clipPath>
</defs>
</svg>
