<svg width="24" height="24" viewBox="0 0 24 24" fill="none" xmlns="http://www.w3.org/2000/svg">
<g clip-path="url(#clip0_1424_2402)">
<rect width="24" height="24" rx="12" fill="#024739"/>
<mask id="mask0_1424_2402" style="mask-type:luminance" maskUnits="userSpaceOnUse" x="0" y="0" width="24" height="24">
<path d="M23.56 0H0V23.55H23.56V0Z" fill="white"/>
</mask>
<g mask="url(#mask0_1424_2402)">
<path d="M17.22 17.0877H18.53C18.66 17.0877 18.9 16.8477 18.93 16.7277C19.13 15.9577 18.08 16.0177 17.61 16.0777L17.21 17.0877H17.22ZM18.95 15.6577V14.5377C18.95 14.3977 18.64 14.1177 18.5 14.1177H11.67L11.62 14.1677V15.5177H12.32V14.9377C12.32 14.8677 12.47 14.7577 12.54 14.7577C12.62 14.7577 12.82 14.8477 12.82 14.9077V15.5277H13.35V14.9477C13.35 14.8777 13.5 14.7677 13.57 14.7677C13.65 14.7677 13.85 14.8577 13.85 14.9177V15.5377H14.38V14.9577C14.38 14.8777 14.54 14.7677 14.63 14.7677C14.72 14.7677 14.88 14.8777 14.88 14.9577V15.5377H15.41V14.9577C15.41 14.8777 15.57 14.7677 15.66 14.7677C15.75 14.7677 15.91 14.8777 15.91 14.9577V15.5377H16.44V14.9577C16.44 14.8777 16.6 14.7677 16.69 14.7677C16.78 14.7677 16.94 14.8777 16.94 14.9577V15.5377H17.47V14.9577C17.47 14.9077 17.6 14.7877 17.66 14.7777C18.07 14.6977 17.96 15.2977 17.97 15.5377C18.31 15.5177 18.62 15.5577 18.94 15.6677M17.29 13.6177C17.1 13.1277 16.8 12.6577 16.37 12.3477C15.34 12.6077 14.31 12.8777 13.24 12.9777C11.77 13.1277 10.39 12.9577 8.96003 12.6277C8.65003 12.5577 8.23003 12.3877 7.94003 12.3477C7.88003 12.3477 7.86003 12.3277 7.80003 12.3577C7.73003 12.3877 7.35003 12.8177 7.29003 12.9077C6.84003 13.5377 6.67003 14.3777 6.84003 15.1377C8.95003 15.0377 11 16.1177 12.12 17.9077C12.42 17.4077 12.82 16.9877 13.23 16.5877L13.96 16.0377H11.61C11.44 16.0377 11.18 15.7777 11.14 15.6077C11.06 15.3477 11.07 14.2577 11.14 13.9977C11.17 13.9077 11.22 13.8077 11.29 13.7477C11.32 13.7277 11.53 13.5977 11.54 13.5977H17.28L17.29 13.6177ZM8.66003 8.48772H7.01003C7.01003 8.48772 6.79003 8.60772 6.77003 8.62772C6.43003 8.96772 6.70003 9.46772 7.14003 9.51772C7.29003 9.53772 8.53003 9.54772 8.59003 9.50772C8.61003 9.48772 8.62003 9.46772 8.62003 9.43772L8.65003 8.48772H8.66003ZM13.26 7.95772H13.91L13.96 7.90772V6.60772L13.91 6.55772H7.05003C6.95003 6.55772 6.63003 6.83772 6.63003 6.93772V8.08772C6.74003 8.06772 6.94003 7.95772 7.05003 7.95772H7.60003C7.62003 7.70772 7.48003 7.14772 7.88003 7.18772C7.94003 7.18772 8.10003 7.30772 8.10003 7.33772V7.95772H8.63003V7.33772C8.63003 7.28772 8.80003 7.18772 8.88003 7.18772C8.96003 7.18772 9.13003 7.28772 9.13003 7.33772V7.95772H9.66003V7.33772C9.66003 7.28772 9.83003 7.18772 9.91003 7.18772C9.99003 7.18772 10.16 7.28772 10.16 7.33772V7.95772H10.69V7.33772C10.69 7.28772 10.86 7.18772 10.94 7.18772C11.02 7.18772 11.19 7.28772 11.19 7.33772V7.95772H11.72V7.33772C11.72 7.28772 11.89 7.18772 11.97 7.18772C12.05 7.18772 12.22 7.28772 12.22 7.33772V7.95772H12.75V7.33772C12.75 7.28772 12.92 7.18772 13 7.18772C13.08 7.18772 13.25 7.28772 13.25 7.33772V7.95772H13.26ZM11.99 20.6177C11.93 20.5277 11.87 20.5177 11.86 20.4077C11.79 19.8777 11.97 18.9677 11.85 18.4877C11.75 18.1177 10.94 17.2377 10.63 16.9677C9.62003 16.0977 8.33003 15.6477 7.00003 15.6477C7.12003 15.9977 7.25003 16.3377 7.38003 16.6777C7.47003 16.9077 7.77003 17.4277 7.79003 17.6277C7.84003 17.9577 7.51003 18.0677 7.33003 17.8177C7.08003 17.4677 6.66003 16.3077 6.52003 15.8677C6.15003 14.7077 6.12003 13.7277 6.82003 12.6877C7.12003 12.2377 7.56003 11.9077 7.87003 11.4477C8.16003 11.0277 8.39003 10.5177 8.49003 10.0177H6.98003C6.66003 10.0177 6.24003 9.56772 6.15003 9.27772C6.04003 8.90772 6.06003 7.53772 6.09003 7.09772C6.14003 6.52772 6.58003 6.01772 7.17003 6.01772H8.65003V5.18772H8.13003C7.72003 5.18772 7.23003 4.87772 7.02003 4.52772C6.88003 4.29772 6.60003 3.51772 7.10003 3.54772C7.36003 3.56772 7.32003 3.92772 7.38003 4.10772C7.46003 4.35772 7.73003 4.56772 7.98003 4.63772L12.89 4.65772C13.04 4.67772 13.17 4.74772 13.18 4.90772C13.18 5.03772 13.06 5.18772 12.93 5.18772H9.15003V6.01772H13.86C13.86 6.01772 14.08 6.06772 14.12 6.08772C14.24 6.13772 14.38 6.29772 14.42 6.41772C14.5 6.66772 14.5 7.83772 14.42 8.08772C14.36 8.27772 14.09 8.48772 13.89 8.48772H9.15003C9.19003 9.39772 9.04003 10.3077 8.65003 11.1277L8.19003 11.9177C8.54003 11.9677 8.88003 12.0877 9.22003 12.1677C10.81 12.5277 12.3 12.6277 13.92 12.3777C14.63 12.2677 15.31 12.0577 16.01 11.9177C16.06 11.8677 15.11 10.7777 15.63 10.6577C15.97 10.5777 16.04 10.9977 16.18 11.2277C16.62 11.9477 17.28 12.3877 17.65 13.1577C17.71 13.2977 17.75 13.4677 17.82 13.6077C18.59 13.5377 19.27 13.6877 19.48 14.5077V14.5377C19.42 14.5677 19.45 14.6677 19.45 14.7177C19.45 15.3377 19.5 16.0577 19.45 16.6677C19.42 16.9777 19.24 17.2477 18.98 17.4177C18.44 17.7577 17.6 17.5277 16.99 17.6177C16.64 18.2977 16.33 18.9977 15.98 19.6677C15.81 19.9877 15.65 20.3177 15.43 20.5977H15.23C15.12 20.5177 15.02 20.4177 15.08 20.2677C15.81 18.8877 16.52 17.4977 17.1 16.0377H15.09C14.89 16.0377 13.83 16.7677 13.63 16.9377C13.33 17.1977 12.44 18.1477 12.38 18.5177C12.3 19.0577 12.45 19.7977 12.38 20.3477C12.37 20.4677 12.31 20.5077 12.25 20.5977H12.02L11.99 20.6177Z" fill="white"/>
<path d="M9.00091 20.6172H8.80091C8.71091 20.5372 8.66091 20.4472 8.60091 20.3372C8.32091 19.8472 8.10091 19.3372 7.83091 18.8472C7.74091 18.5172 8.09091 18.3372 8.30091 18.6372C8.62091 19.1072 8.83091 19.7972 9.16091 20.2772C9.22091 20.4272 9.12091 20.5272 9.01091 20.6072" fill="#C8D02D"/>
<path d="M19.4793 16.6886H19.4493C19.4993 16.0786 19.4493 15.3586 19.4493 14.7386C19.4493 14.6786 19.4293 14.5886 19.4793 14.5586V16.6886Z" fill="#024739"/>
<path d="M14.1107 5.19711C13.7907 5.14711 13.7507 4.72711 14.1107 4.67711C14.6807 4.58711 15.9407 4.80711 16.3907 4.58711C16.5407 4.51711 16.7007 4.34711 16.7707 4.19711C16.8807 3.95711 16.7907 3.54711 17.1407 3.56711C17.5607 3.59711 17.3007 4.33711 17.1607 4.55711C16.9507 4.87711 16.4707 5.20711 16.0807 5.20711H15.5607C15.6007 6.43711 15.5007 7.69711 15.5607 8.91711C15.5707 9.18712 15.6707 9.57711 15.6607 9.81711C15.6607 10.0272 15.4407 10.1172 15.2707 10.0372C15.0707 9.94711 15.1307 9.46711 15.0607 9.27711V5.19711C14.7707 5.16711 14.3907 5.23711 14.1107 5.19711Z" fill="#C8D02D"/>
<path d="M11.9406 11.2227C11.8206 11.1027 11.8106 10.5727 12.0206 10.5027C12.6506 10.3127 12.4006 11.6727 11.9406 11.2227Z" fill="#C8D02D"/>
</g>
</g>
<defs>
<clipPath id="clip0_1424_2402">
<rect width="24" height="24" fill="white"/>
</clipPath>
</defs>
</svg>
