<svg width="24" height="24" viewBox="0 0 24 24" fill="none" xmlns="http://www.w3.org/2000/svg">
<g clip-path="url(#clip0_1424_2468)">
<rect width="24" height="24" rx="12" fill="#024739"/>
<mask id="mask0_1424_2468" style="mask-type:luminance" maskUnits="userSpaceOnUse" x="0" y="0" width="24" height="24">
<path d="M24 0H0V24H24V0Z" fill="white"/>
</mask>
<g mask="url(#mask0_1424_2468)">
<path d="M15.8298 17.9389C15.6464 17.9593 15.4427 17.9287 15.2593 17.9389C15.2797 18.3363 15.2593 18.7134 15.1065 19.0803C15.6464 18.8051 16.166 18.3363 16.4002 17.7656C16.2169 17.8166 16.0233 17.9185 15.8298 17.9389ZM14.8417 4.54785H12.9877C12.9877 4.54785 12.8247 4.47651 12.8043 4.45613C12.6108 4.32364 12.6413 4.17078 12.57 3.99753C12.3561 3.52874 11.6634 3.52874 11.4495 3.99753C11.368 4.17078 11.4087 4.32364 11.2152 4.45613C11.1846 4.47651 11.042 4.54785 11.0216 4.54785H9.16766V5.80135H9.77887C9.77887 5.80135 9.9113 5.92364 9.92148 5.94402C9.9826 6.07651 9.87055 6.32109 9.74831 6.32109H9.17785C9.17785 6.423 9.1371 6.62683 9.24916 6.68797H14.7704C14.913 6.6574 14.8519 6.44339 14.862 6.32109H10.8281C10.8281 6.32109 10.6855 6.22937 10.6651 6.1988C10.5938 6.07651 10.6549 5.80135 10.7873 5.80135H14.862V4.54785H14.8417ZM12.2033 3.12109C12.6719 3.2332 12.9877 3.52874 13.1201 3.98734C13.6906 4.0281 14.3323 3.92619 14.8824 3.98734C15.1371 4.00772 15.2186 4.18097 15.3714 4.20135C16.0946 4.29307 17.0318 4.09944 17.7653 4.20135C18.0607 4.24211 18.2441 4.50708 18.2339 4.80262V20.2726C18.2339 20.5784 18.0607 20.8637 17.7347 20.8841C13.8536 20.8637 9.96223 20.9249 6.09126 20.8535C5.93846 20.7822 5.80603 20.6497 5.79585 20.4663V16.4102C5.79585 16.2981 5.95883 16.2064 6.0607 16.2064C6.1422 16.2064 6.31537 16.3593 6.31537 16.4306V20.3644H17.6838V4.75167H15.4019V5.06759H16.9096C16.9096 5.06759 17.1744 5.20007 17.2152 5.24084C17.2967 5.33256 17.3578 5.48542 17.368 5.60772C17.4902 6.60644 17.2865 7.80899 17.368 8.8281C17.368 9.0625 17.1948 9.23574 16.9605 9.13383C16.9198 9.11345 16.8179 9.00135 16.8179 8.97078V5.6281H15.3918V6.64721C15.3918 6.64721 15.3205 6.86122 15.2899 6.90199C15.1778 7.10581 14.9741 7.20772 14.75 7.2281C12.9571 7.37078 10.9809 7.116 9.16766 7.2281C8.93337 7.2281 8.5972 6.8816 8.5972 6.6574V5.63829H7.17106V19.5185H13.6295C14.0675 19.5185 14.7194 18.9376 14.7194 18.4994V18H10.3697C10.1863 18 10.0539 17.5312 10.4104 17.4803C11.9996 17.4395 13.6091 17.5414 15.188 17.4395C16.0437 17.3886 16.6447 17.307 16.7975 16.3083V10.102C16.8485 9.80644 17.2763 9.78606 17.3374 10.102C17.2763 12.13 17.4495 14.2497 17.3374 16.2675C17.2356 18.2548 15.84 19.8038 13.8536 20.028C11.5514 20.0077 9.24916 20.0688 6.94695 19.9975C6.73303 19.9058 6.61079 19.6816 6.59041 19.4573V5.70963C6.54967 5.47523 6.82471 5.06759 7.059 5.06759H8.56664V4.75167H6.27462V15.3096C6.27462 15.3096 6.20332 15.4523 6.19313 15.4523C6.05051 15.5847 5.78566 15.5236 5.7551 15.3198V4.64976C5.73473 4.42555 5.97921 4.23192 6.19313 4.20135C6.91639 4.09944 7.86376 4.29307 8.58702 4.20135C8.72963 4.18097 8.82131 4.01791 9.06579 3.98734C9.61588 3.92619 10.2678 4.0281 10.8281 3.98734C10.9707 3.53893 11.2661 3.26377 11.7143 3.12109H12.1626H12.2033Z" fill="white"/>
<path d="M5.78586 4.64844H5.75586V15.3286H5.78586V4.64844Z" fill="white"/>
<path d="M5.78586 16.4062H5.75586V20.4623H5.78586V16.4062Z" fill="white"/>
<path d="M12.3059 8.08332H11.6846V8.8986C11.6846 8.96994 11.491 9.19414 11.4197 9.19414H10.5742V9.85656H11.3891C11.5012 9.85656 11.6846 10.091 11.6846 10.1827V10.9674H12.3059V10.1827C12.3059 10.0808 12.4893 9.85656 12.6014 9.85656H13.4163V9.19414H12.5708C12.5097 9.19414 12.3161 8.96994 12.3161 8.8986V8.08332H12.3059ZM12.8662 8.6744H13.7117C13.8543 8.6744 13.9562 8.94956 13.9766 9.07185C13.9969 9.28586 14.0071 9.86676 13.9766 10.0706C13.9664 10.1521 13.834 10.3763 13.7627 10.3763H12.8764V11.1916C12.8764 11.1916 12.7643 11.4056 12.7134 11.4362C12.4995 11.5483 11.6132 11.5483 11.3789 11.4668C11.2873 11.4362 11.1447 11.2731 11.1447 11.1814V10.3661H10.2584C10.1769 10.3661 10.0546 10.1419 10.0445 10.0604C10.0037 9.85656 10.0139 9.27567 10.0445 9.06166C10.0546 8.93937 10.1667 8.66421 10.3093 8.66421H11.1548V7.84892C11.1548 7.78777 11.3178 7.59414 11.3993 7.57376C11.5114 7.54319 12.4995 7.533 12.6217 7.57376C12.7134 7.59414 12.8866 7.78777 12.8866 7.85911V8.6744H12.8662Z" fill="#C8D02D"/>
<path d="M15.7602 15.4907C15.7602 15.4907 15.5768 15.5722 15.5157 15.5722H10.4937C10.0964 15.5315 10.1269 15.0627 10.4937 15.0117H15.5565C15.7908 15.0219 15.9436 15.3073 15.7704 15.4907" fill="#C8D02D"/>
<path d="M10.3913 12.6289H15.5865C15.9125 12.6493 15.9329 13.1181 15.5865 13.1385H10.4626C10.1569 13.1181 10.1264 12.7308 10.4015 12.6289" fill="#C8D02D"/>
<path d="M9.26034 17.3474H8.71026V17.9384H9.26034V17.3474ZM8.45559 16.8276C8.61857 16.797 9.27053 16.797 9.4437 16.8276C9.61688 16.848 9.75949 16.9805 9.77986 17.1537C9.81042 17.3576 9.81042 17.9181 9.77986 18.1219C9.75949 18.3155 9.64744 18.4276 9.45389 18.448C9.2909 18.4684 8.48615 18.4684 8.37409 18.4174C8.26204 18.3767 8.17036 18.2034 8.16017 18.0811C8.12961 17.8671 8.12961 17.0824 8.26204 16.9397C8.30278 16.899 8.40465 16.8378 8.46577 16.8276" fill="#C8D02D"/>
<path d="M9.25977 14.98H8.70969V15.5711H9.25977V14.98ZM9.6978 15.9787C9.6978 15.9787 9.56538 16.0704 9.53482 16.0806C9.3922 16.1214 8.67913 16.1214 8.51614 16.101C8.36334 16.0806 8.27166 16.0398 8.20035 15.8972C8.12904 15.7239 8.12904 15.0819 8.14942 14.8781C8.16979 14.7048 8.25128 14.5418 8.42446 14.4908C8.58745 14.45 9.22921 14.45 9.41257 14.4704C9.545 14.4806 9.6978 14.5621 9.74874 14.6844C9.79967 14.7965 9.78948 15.6016 9.7793 15.7647C9.7793 15.8258 9.73855 15.9277 9.6978 15.9787Z" fill="#C8D02D"/>
<path d="M9.2597 12.6247H8.70961V13.2158H9.2597V12.6247ZM8.45494 12.105C8.60774 12.0744 9.32082 12.0744 9.4838 12.105C9.62642 12.1253 9.75885 12.2884 9.77922 12.4311C9.79959 12.6247 9.80978 13.2464 9.77922 13.44C9.75885 13.5929 9.59586 13.7253 9.45324 13.7355C9.24951 13.7559 8.7198 13.7559 8.51606 13.7355C8.42438 13.7253 8.30214 13.6744 8.24102 13.5929C8.11878 13.44 8.12897 12.6757 8.15953 12.4718C8.1799 12.2986 8.28177 12.1457 8.45494 12.1152" fill="#C8D02D"/>
<path d="M11.9489 3.99233C12.1628 3.95157 12.3767 4.22673 12.1832 4.44074C11.847 4.80762 11.4803 4.07386 11.9489 3.99233Z" fill="white"/>
</g>
</g>
<defs>
<clipPath id="clip0_1424_2468">
<rect width="24" height="24" fill="white"/>
</clipPath>
</defs>
</svg>
