<svg width="24" height="24" viewBox="0 0 24 24" fill="none" xmlns="http://www.w3.org/2000/svg">
<g clip-path="url(#clip0_1424_2413)">
<rect width="24" height="24" rx="12" fill="#024739"/>
<mask id="mask0_1424_2413" style="mask-type:luminance" maskUnits="userSpaceOnUse" x="0" y="0" width="24" height="24">
<path d="M24 0H0V24H24V0Z" fill="white"/>
</mask>
<g mask="url(#mask0_1424_2413)">
<path d="M12.3868 16.5994C12.3868 16.5994 12.1118 16.7523 12.0405 16.7931C10.594 17.5676 8.52609 17.1294 7.22218 16.2733C6.98789 16.1205 6.77396 15.9268 6.54986 15.7638C6.19332 15.8351 4.86904 16.1408 4.71624 16.4364C4.61437 16.6504 5.1339 16.8338 5.29688 16.895C6.73322 17.4351 8.88262 17.5574 10.431 17.6084C12.6619 17.6797 16.1763 17.6695 18.2544 16.895C18.4276 16.8338 18.9573 16.6402 18.8147 16.416C18.7434 16.2937 18.1118 15.9778 17.9896 16.0491C17.9386 16.0797 17.7655 16.3243 17.6738 16.3956C17.032 16.9561 16.1152 17.109 15.3104 16.7829C15.1067 16.7014 14.9437 16.5791 14.7502 16.4771C14.5159 16.6912 14.3427 16.9561 14.0269 17.0886C13.4768 17.3128 12.6211 17.1701 12.3868 16.5892M17.1237 14.1536C17.032 14.5205 16.8181 14.8262 16.4514 14.9892C16.3189 15.0504 16.0948 15.0708 16.0235 15.1115C15.9318 15.1625 15.5142 15.6721 15.4123 15.7842C15.3512 15.8555 15.0762 16.0695 15.1271 16.151C15.1576 16.1918 15.4327 16.3345 15.4938 16.365C16.9403 16.9357 18.3563 15.5294 17.7043 14.174C17.6534 14.0721 17.4395 13.7154 17.3274 13.7459C17.1033 13.8071 17.1644 13.9803 17.1237 14.1536ZM12.1831 16.0389C10.2171 16.681 7.78245 15.8759 6.58042 14.2963L6.20351 13.5931C5.88772 14.867 7.25274 15.8861 8.34272 16.3243C9.37159 16.7421 11.0931 16.9867 12.0099 16.2326C12.0303 16.2122 12.2035 16.0695 12.1729 16.0389M12.4683 15.3357C12.5804 15.1523 12.3155 14.5816 12.2035 14.4084C11.3071 12.951 8.46497 12.044 6.88602 12.8797C6.84527 12.9001 6.65172 13.0122 6.65172 13.0224C6.5906 13.2466 6.83508 13.7867 6.96751 13.9803C7.88432 15.3867 10.5736 16.2631 12.1526 15.5192C12.1933 15.4988 12.4582 15.3459 12.4683 15.3256M14.0677 12.7472C13.5685 12.788 13.1814 13.0631 13.2425 13.5727C13.2935 14.0415 13.8843 14.0924 13.7621 14.7447C13.6806 15.1931 13.161 15.3969 12.9471 15.7128C12.9267 15.7434 12.7536 16.1205 12.7434 16.1408C12.7128 16.3039 12.886 16.5383 13.0184 16.6198C13.2629 16.7727 13.7621 16.7523 13.9862 16.5689L15.7587 14.6529C16.2476 14.6428 16.6857 14.3676 16.6245 13.858C16.6245 13.7663 16.5023 13.5625 16.5532 13.5014C16.5736 13.481 16.8181 13.4402 16.8792 13.4198C17.5006 13.2058 17.521 12.3599 16.8996 12.1357C16.7773 12.095 16.5329 12.1052 16.5329 11.9829C16.543 11.7587 16.6958 11.7179 16.5634 11.4122C16.2273 10.6173 15.1271 10.8822 15.1373 11.7077C14.8215 11.6568 14.6279 11.5549 14.3223 11.7077C13.9047 11.9014 13.8945 12.3803 14.0473 12.7574M17.1441 11.7077C17.1441 11.7077 17.2052 11.6873 17.2357 11.667C18.2544 10.923 18.4683 9.49628 17.3784 8.71156C16.8486 8.33449 16.2578 8.33449 15.616 8.38545C13.0795 8.59946 10.706 10.067 9.53458 12.2071C11.0218 12.574 12.5091 13.4402 12.9267 14.9281C12.9267 14.9587 12.9166 15.0198 12.9777 14.9892C13.0082 14.9892 13.1712 14.8058 13.1916 14.7752C13.3953 14.4593 13.1101 14.3574 12.9471 14.1434C12.5702 13.644 12.6721 12.9408 13.1712 12.5638C13.2323 12.523 13.4463 12.4109 13.4565 12.4007C13.4768 12.3701 13.4565 12.1867 13.4565 12.1154C13.5278 11.6262 13.9964 11.2185 14.5057 11.1472C14.577 11.137 14.7502 11.1574 14.7807 11.1472C14.7909 11.1472 14.8928 10.9332 14.9437 10.8721C15.7179 9.97526 17.1339 10.6478 17.1237 11.7179M10.5227 7.43768H7.62965V8.33449C7.03882 8.37526 6.49892 8.69118 6.27481 9.22112C6.23407 9.31284 6.15257 9.5778 6.15257 9.66952V12.8084C6.23407 12.7166 6.60079 12.523 6.62116 12.4313V9.61857C6.62116 9.61857 6.64154 9.51666 6.66191 9.51666H7.12031V12.2478C7.73152 12.095 8.37329 12.0236 9.00486 12.1357C9.667 10.9434 10.6144 9.91411 11.8062 9.18035C11.8571 9.10902 11.7349 8.96634 11.684 8.90519C11.5312 8.72175 11.2867 8.53831 11.0626 8.45679C10.9709 8.42621 10.5227 8.34468 10.5227 8.29373V7.43768ZM11.5312 6.9587V6.55105L11.4904 6.51029H6.65172V6.9587H11.5312ZM7.62965 5.28736C7.5889 5.48099 7.66021 5.81729 7.62965 6.03131H10.5227V5.25679C10.5227 5.20583 10.3902 5.1243 10.3291 5.13449C9.53457 5.19564 8.62795 5.06315 7.84357 5.13449C7.75189 5.13449 7.65003 5.19564 7.61946 5.28736M19.3342 16.63C18.9879 17.2924 17.9998 17.5064 17.2969 17.6593C15.1678 18.1179 12.7128 18.1587 10.543 18.0975C8.9743 18.0466 7.16106 17.9447 5.64323 17.5166C5.11352 17.374 4.02354 17.0173 4.21709 16.3243C4.36989 15.7842 5.66361 15.4377 6.18313 15.3663C6.20351 15.3459 5.94884 14.9791 5.91828 14.9281C5.80622 14.7243 5.7451 14.5001 5.68398 14.2759C5.69417 12.7982 5.54137 11.188 5.64323 9.73067C5.70435 8.88481 6.24425 8.18163 7.11013 7.94723V7.43768H6.48873C6.38687 7.43768 6.19332 7.22366 6.17294 7.12175C6.1322 6.98927 6.1322 6.58163 6.15257 6.43895C6.17294 6.27589 6.40724 6.03131 6.58042 6.03131H7.1305C7.1305 5.46061 7.01845 4.75742 7.79264 4.65551C8.61777 4.70647 9.5142 4.59437 10.3393 4.65551C10.5838 4.67589 10.757 4.75742 10.8996 4.94086C11.1339 5.2364 10.9913 5.68481 11.032 6.0415H11.5821C11.7145 6.0415 11.9386 6.20456 11.9794 6.33704C12.0201 6.45933 12.0303 7.00965 11.9896 7.14214C11.9692 7.23386 11.7451 7.44787 11.6636 7.44787H11.0728C11.0014 7.44787 11.032 7.87589 11.032 7.94723C11.5719 8.08991 12.0099 8.44659 12.285 8.90519C13.212 8.42621 14.2714 8.05933 15.3308 7.95742C16.2171 7.8657 17.032 7.83513 17.7553 8.40583C18.6517 9.10901 18.8758 10.3319 18.2646 11.2797C18.0914 11.5549 17.8164 11.7485 17.5923 11.9931C17.633 12.1256 17.7349 12.2275 17.7858 12.36C17.9284 12.7268 17.8877 13.0428 17.7043 13.3892C18.3054 13.96 18.5091 14.816 18.234 15.5803C18.6415 15.7842 19.1712 15.9166 19.324 16.3854V16.6402L19.3342 16.63Z" fill="white"/>
<path d="M10.4322 19.0477C9.08757 18.9968 5.54258 18.742 4.5239 17.9573C4.35073 17.8248 4.17755 17.6312 4.19793 17.4069H4.69708C4.69708 17.4069 4.69708 17.4885 4.78876 17.5598C5.32866 18.0286 7.67161 18.3343 8.4458 18.4159C10.3812 18.6095 12.5408 18.6197 14.4763 18.4668C15.3727 18.3955 18.113 18.0898 18.7548 17.5496C18.8159 17.4987 18.8566 17.3968 18.8566 17.3968C18.9687 17.3662 19.2132 17.4171 19.3456 17.3968V17.5394C19.2947 17.6413 19.2437 17.7229 19.1724 17.8044C18.5714 18.477 16.2896 18.7624 15.3727 18.8541L13.0502 19.0273C12.1843 19.0069 11.3082 19.0579 10.4424 19.0273" fill="white"/>
<path d="M15.4014 15.7868C15.5032 15.6747 15.9209 15.1652 16.0126 15.1142C16.0839 15.0734 16.308 15.0531 16.4404 14.9919C16.8071 14.8289 17.0312 14.5231 17.1127 14.1562C17.9786 15.2671 16.5627 16.5817 15.4014 15.7868Z" fill="#C8D02D"/>
<path d="M12.622 12.5546C12.6526 12.6056 12.4183 12.9623 12.3266 12.9419L10.6865 11.8412V11.7597L10.9616 11.4336L12.6322 12.5648L12.622 12.5546Z" fill="#C8D02D"/>
<path d="M13.3648 11.4007C13.3648 11.4007 13.1814 11.737 13.1406 11.7676C13.1101 11.788 13.0999 11.8084 13.0592 11.7982C12.8962 11.6861 11.6432 10.9421 11.6534 10.8606C11.6534 10.8198 11.8877 10.5039 11.9284 10.5039L13.3648 11.4007Z" fill="#C8D02D"/>
<path d="M14.3335 10.4773C14.3335 10.4773 14.1501 10.8136 14.1094 10.8442C14.0788 10.8646 14.0687 10.8849 14.0279 10.8646C13.8751 10.7423 12.6119 10.0187 12.6221 9.927C12.6221 9.88624 12.8564 9.57031 12.8972 9.57031L14.3335 10.4671V10.4773Z" fill="#C8D02D"/>
<path d="M14.3524 8.90863C14.4237 8.89844 15.4118 9.70353 15.5646 9.80544C15.585 9.82583 15.5748 9.83602 15.5646 9.8564C15.5646 9.87678 15.3303 10.1418 15.3099 10.1519C15.2997 10.1519 15.2896 10.1723 15.2692 10.1519L14.0773 9.25513C14.057 9.19398 14.3116 8.89844 14.3524 8.89844" fill="#C8D02D"/>
<path d="M16.1778 13.2582H15.6786C15.6786 13.2582 15.6786 12.9422 15.3424 13.0442C15.1591 13.0951 15.21 13.3499 15.1998 13.4926C15.0165 13.4722 14.721 13.4722 14.7007 13.7066C14.6803 13.9104 14.9655 13.9512 14.9655 13.9817V14.42C14.2728 14.42 13.9163 13.6149 14.4766 13.1868C14.5479 13.1257 14.6701 13.0951 14.7109 13.0442C14.7618 13.0034 14.7924 12.9015 14.8433 12.8301C15.2915 12.29 16.1574 12.5856 16.1778 13.2684" fill="#C8D02D"/>
<path d="M9.12742 13.2721C10.6146 13.0683 10.6554 15.1167 9.33115 15.1167C8.12912 15.1167 8.03744 13.4249 9.12742 13.2721Z" fill="#C8D02D"/>
</g>
</g>
<defs>
<clipPath id="clip0_1424_2413">
<rect width="24" height="24" fill="white"/>
</clipPath>
</defs>
</svg>
