<svg width="24" height="24" viewBox="0 0 24 24" fill="none" xmlns="http://www.w3.org/2000/svg">
<g clip-path="url(#clip0_1424_2428)">
<rect width="24" height="24" rx="12" fill="#024739"/>
<mask id="mask0_1424_2428" style="mask-type:luminance" maskUnits="userSpaceOnUse" x="0" y="0" width="24" height="24">
<path d="M24 0H0V24H24V0Z" fill="white"/>
</mask>
<g mask="url(#mask0_1424_2428)">
<path d="M10.5798 3.92797C8.32984 4.09797 7.00984 6.59797 8.18984 8.54797C9.47984 10.6779 12.6998 10.4379 13.6298 8.12797C14.4798 6.02797 12.8298 3.75797 10.5798 3.92797ZM11.1798 3.42797L12.0298 3.62797C13.3998 4.13797 14.3498 5.44797 14.3698 6.91797C15.0498 7.41797 15.5198 8.25797 15.8598 9.01797C16.5398 10.5279 17.2198 12.3679 17.7798 13.9479C18.0598 14.7479 18.1398 15.2879 17.3998 15.8579C16.8898 16.2479 16.4498 16.2779 15.8898 16.4579C15.2198 16.6879 14.6098 17.0079 13.8898 17.1979C13.6898 17.2479 13.1998 17.4479 13.1198 17.1779C12.9898 16.7779 13.6398 16.7579 13.9198 16.6679C14.7098 16.4179 15.4698 16.0979 16.2598 15.8479C16.7998 15.6779 17.6098 15.3279 17.4998 14.6279C16.7898 12.8879 16.2098 11.0479 15.4598 9.32797C15.1798 8.68797 14.8298 8.01797 14.3298 7.52797C14.2898 7.76797 14.2298 7.99797 14.1398 8.21797C14.0898 8.36797 13.7598 8.93797 13.7598 8.97797C13.7598 9.03797 13.9998 9.33797 14.0498 9.43797C14.4798 10.3079 14.0998 11.2579 14.2998 12.2279C14.3698 12.5579 14.7998 13.3479 14.1498 13.2179C13.0498 12.0179 11.4698 11.7579 9.96984 12.3579C9.54984 12.5279 9.18984 12.8679 8.74984 13.0679C8.52984 13.1679 7.86984 13.4879 7.79984 13.1179C7.71984 12.7379 8.41984 12.7279 8.63984 12.5679L9.22984 12.1879C8.35984 11.9879 7.47984 11.8779 6.58984 12.0379C6.25984 12.0979 5.74984 12.3979 5.58984 12.0279V11.9279C5.67984 11.7279 5.91984 11.6779 6.11984 11.6279C7.04984 11.3679 8.17984 11.4479 9.10984 11.6479C9.29984 11.6879 9.69984 11.8579 9.84984 11.8579C9.95984 11.8579 10.4198 11.6879 10.5898 11.6579C11.7398 11.4079 12.8598 11.5379 13.8098 12.2579C13.7998 12.1179 13.7498 11.9879 13.7398 11.8479C13.7098 11.2979 13.8198 10.6779 13.7698 10.1579C13.7398 9.88797 13.5898 9.60797 13.4298 9.38797C11.8698 11.0279 9.17984 10.8379 7.88984 8.95797C6.59984 7.06797 7.42984 4.48797 9.51984 3.65797L10.3698 3.41797H11.1798V3.42797Z" fill="white"/>
<path d="M5.57055 19.9313V19.8313C5.75055 19.5913 6.05055 19.4413 6.29055 19.2313C6.74055 18.8313 7.74055 17.8313 8.00055 17.3213C8.12055 17.0813 8.13055 16.7813 8.36055 16.6113C8.77055 16.3013 9.28055 16.7213 9.66055 16.8713C10.3105 17.1213 11.0605 17.1113 11.7505 17.1013C11.9305 17.1013 12.2405 16.9713 12.3505 17.1813C12.4405 17.3413 12.3605 17.5013 12.2005 17.5513C12.0805 17.5913 11.7005 17.6113 11.5505 17.6213C10.9005 17.6513 10.1205 17.5713 9.50055 17.3513C9.35055 17.3013 8.76055 16.9813 8.68055 17.0013C8.63055 17.0213 8.46055 17.5013 8.40055 17.6113C8.03055 18.2613 6.88055 19.4313 6.27055 19.8813C6.03055 20.0613 5.75055 20.3113 5.56055 19.9313" fill="white"/>
<path d="M6.90043 13.8007C7.13043 13.7507 7.32043 13.9507 7.20043 14.1607C6.85043 14.4807 6.54043 14.7607 6.28043 15.1607C6.21043 15.2707 6.13043 15.5207 6.03043 15.5907C5.86043 15.7307 5.59043 15.5907 5.61043 15.3707C5.63043 15.1607 6.06043 14.5807 6.21043 14.4107C6.31043 14.3007 6.79043 13.8207 6.90043 13.8007Z" fill="#C8D02D"/>
<path d="M15.5907 14.7918C15.6807 14.7118 16.0607 14.6518 16.1207 14.5518C16.2107 14.4018 15.9507 14.1418 16.1707 13.9818C16.5907 13.6718 16.8307 14.5718 16.4507 14.9418C16.3507 15.0418 15.8707 15.2518 15.7407 15.2318C15.5307 15.2118 15.4507 14.9218 15.6007 14.7818" fill="#C8D02D"/>
<path d="M9.10988 5.79239C9.27988 5.96239 9.01988 6.34239 8.96988 6.56239C8.55988 8.48239 11.0099 9.67239 12.2499 8.17239C13.4499 6.72239 12.0199 4.61239 10.2099 5.19239C9.98988 5.26239 9.63988 5.57239 9.45988 5.32239C9.20988 4.97239 9.96988 4.73239 10.2099 4.67239C12.3699 4.14239 14.0299 6.54239 12.7299 8.36239C11.3299 10.3224 8.18988 9.14239 8.43988 6.67239C8.45988 6.43239 8.71988 5.39239 9.10988 5.78239" fill="#C8D02D"/>
<path d="M11.2299 7.39952C11.3299 7.29952 11.4099 7.11952 11.4099 6.96952C11.3899 6.19952 10.1699 6.16952 10.2299 7.03952C10.2699 7.53952 10.8799 7.72952 11.2299 7.39952ZM10.6799 5.87952C12.1399 5.71952 12.3299 7.88952 10.9599 8.04952C9.4799 8.21952 9.2799 6.02952 10.6799 5.87952Z" fill="#C8D02D"/>
</g>
</g>
<defs>
<clipPath id="clip0_1424_2428">
<rect width="24" height="24" fill="white"/>
</clipPath>
</defs>
</svg>
