<svg width="24" height="24" viewBox="0 0 24 24" fill="none" xmlns="http://www.w3.org/2000/svg">
<g clip-path="url(#clip0_1424_2448)">
<rect width="24" height="24" rx="12" fill="#024739"/>
<mask id="mask0_1424_2448" style="mask-type:luminance" maskUnits="userSpaceOnUse" x="0" y="0" width="24" height="24">
<path d="M24 0H0V24H24V0Z" fill="white"/>
</mask>
<g mask="url(#mask0_1424_2448)">
<path d="M9.04527 15.1262C8.83135 15.1364 8.50537 14.8511 8.3322 14.9123C8.13865 14.9836 7.3339 16.0634 7.42558 16.1449C7.92473 16.1041 8.37294 15.9106 8.72948 15.5744L9.04527 15.116V15.1262ZM15.249 16.2264C15.0453 15.6763 14.648 15.2382 14.2202 14.841C14.1387 14.8002 13.5784 15.1466 13.4256 15.1262C13.7414 15.8596 14.536 16.0736 15.2388 16.2264M16.0844 17.8562C15.9315 17.5201 15.738 17.2247 15.4324 17.0107C14.9231 16.6338 14.3119 16.6848 13.7618 16.3384C13.1098 15.9309 12.9366 15.2281 12.1523 14.953C11.6531 14.7798 10.8484 14.7798 10.339 14.953C9.50368 15.2281 9.32031 15.9921 8.60724 16.3995C8.12846 16.6746 7.58856 16.6644 7.14035 16.9394C6.80418 17.1432 6.50877 17.4997 6.38653 17.8766H12.6922C12.8755 17.8766 12.9978 18.386 12.6107 18.4471H5.7142C5.4086 18.4471 5.18449 18.7221 5.24561 19.0277C5.27617 19.1601 5.53084 19.6593 5.61233 19.8019C6.05036 20.5557 6.76344 20.9734 7.6395 21.0345C9.99264 20.9021 12.5088 21.1975 14.8416 21.0345C15.6667 20.9734 16.3696 20.5455 16.7974 19.8427C16.8993 19.6797 17.1641 19.15 17.1947 18.987C17.2355 18.7323 17.0317 18.4776 16.7771 18.4573H13.6395C13.4664 18.3961 13.3747 18.2331 13.4562 18.0498C13.4664 18.0192 13.5784 17.8868 13.5988 17.8868H16.0844V17.8562ZM16.0436 13.4556H17.8467C18.0504 13.4556 18.3662 13.2213 18.4681 13.0481C18.7431 12.5693 18.2338 11.8053 18.2236 11.296C17.867 11.5099 17.4799 11.6016 17.0725 11.6219L16.7057 12.4674L16.0538 13.4657L16.0436 13.4556ZM4.62422 13.4556C5.1743 13.5269 5.85682 13.4046 6.42727 13.4556L5.97906 12.824C5.75495 12.4369 5.51047 12.0498 5.39841 11.6016C4.98075 11.6118 4.59366 11.5201 4.24731 11.296C4.18619 11.897 3.59536 12.7323 4.13525 13.2315C4.24731 13.3333 4.4816 13.4352 4.6344 13.4556M17.2558 11.0006C18.8246 10.9394 18.8246 8.5965 17.2558 8.53538C17.429 9.35032 17.3883 10.1856 17.2558 11.0006ZM5.1743 8.53538C3.60554 8.64743 3.62592 10.8783 5.19468 11.0413C5.23542 11.0413 5.103 10.3079 5.103 10.2264C5.07243 9.66611 5.12337 9.09565 5.18449 8.53538M8.04697 5.35711C7.45614 5.41823 6.82456 6.27392 6.52914 6.75269C4.78721 9.55405 5.74476 13.15 8.83135 14.4437C8.97396 14.5048 9.36106 14.6678 9.4833 14.6678C9.60554 14.6678 10.013 14.4233 10.1964 14.3622C10.7363 14.189 11.7346 14.189 12.2847 14.3622C12.4986 14.4335 12.8551 14.6882 13.0283 14.6576C13.3034 14.6169 13.9248 14.3214 14.1794 14.1788C16.1862 13.0786 17.1743 10.807 16.6752 8.56594C16.4103 7.37409 15.7176 7.61857 14.7397 7.50651C13.0894 7.32315 11.4596 6.93606 9.96208 6.22298C9.53423 6.01925 8.56649 5.35711 8.18958 5.34692C8.13865 5.34692 8.0979 5.34692 8.04697 5.35711ZM17.5512 5.8257C17.429 5.94794 17.2151 5.96831 17.2762 6.18223C17.3068 6.2841 17.5512 6.66101 17.6327 6.73232C18.0096 7.07867 18.356 6.66101 18.5699 6.34522C19.2015 5.42841 18.7635 5.23487 17.8161 5.15337C17.8161 5.37748 17.6837 5.66271 17.5411 5.8257M16.2983 4.40974C16.1455 4.4403 16.0029 4.66441 15.9723 4.80702C15.8908 5.32655 16.8382 5.87663 17.1743 5.35711C17.3679 5.0515 17.2355 4.80702 16.991 4.61347C16.7872 4.4403 16.5835 4.34862 16.2983 4.40974ZM15.4018 4.77646C15.4426 4.37918 15.6871 4.10414 16.0029 3.89021C15.9315 3.64573 15.5852 3.07527 15.3102 3.07527C14.9231 3.07527 14.2405 4.09395 14.4035 4.47086C14.4952 4.68478 15.1777 4.80702 15.4018 4.76628M3.32031 12.3961C3.4833 11.9581 3.68704 11.3673 3.69722 10.8987C3.69722 10.6338 3.4833 10.369 3.44255 10.0532C3.35087 9.34013 3.56479 9.27901 3.72778 8.72892C3.82965 8.39276 3.85002 7.99548 3.95189 7.62875C4.176 6.824 5.04187 5.03113 5.72439 4.55235C5.96887 4.37918 6.2541 4.61347 6.18279 4.85796C6.14204 4.99038 5.68364 5.46916 5.5614 5.64234C5.04187 6.35541 4.62422 7.24166 4.46123 8.11772C4.73627 7.9751 5.05206 7.91398 5.36785 7.92417C5.58177 7.13979 6.00962 6.38597 6.52914 5.76458C6.66157 5.60159 6.84493 5.39785 6.99773 5.25524C8.24052 4.1347 9.27957 5.2858 10.4613 5.81551C12.3153 6.65083 13.7923 6.77307 15.7686 6.98699C16.3288 7.04811 16.8687 7.39446 17.0827 7.92417C17.4086 7.9038 17.7142 7.99548 18.0198 8.09735C17.9689 8.00566 17.8772 7.47595 17.8263 7.44539C17.7957 7.42502 17.704 7.44539 17.6429 7.42502C17.2864 7.29259 17.0113 6.89531 16.828 6.56933C16.7872 6.48784 16.6752 6.17205 16.6548 6.16186C16.6242 6.14149 16.502 6.16186 16.4409 6.1313C16.2575 6.07018 15.9723 5.88682 15.8297 5.76458C15.7584 5.70346 15.5546 5.4386 15.5241 5.41823C15.412 5.36729 14.9027 5.34692 14.699 5.29599C13.6701 5.03113 13.5784 4.22638 14.1183 3.41144C11.8161 2.25015 8.8721 2.6678 6.88568 4.27731C6.54951 4.40974 6.33559 4.04302 6.51895 3.81891C6.56989 3.75779 6.99773 3.46237 7.0996 3.40125C9.25919 1.96492 12.1319 1.78156 14.4748 2.9021C15.3 2.19921 15.9112 2.53538 16.39 3.37069C16.4409 3.45218 16.5631 3.77816 16.5835 3.80872C16.6243 3.84947 16.8585 3.88003 16.94 3.92077C17.1234 4.00227 17.4188 4.21619 17.5614 4.35881C17.6124 4.41993 17.704 4.5931 17.7142 4.60329C17.7652 4.63385 17.9791 4.60329 18.0708 4.60329C19.4969 4.76628 19.8535 5.61178 18.9876 6.77307C18.8144 7.00736 18.6412 7.18054 18.3967 7.34353C18.6005 7.77137 18.5903 8.35201 18.7329 8.77986C18.9366 9.3605 19.1302 9.51331 18.9672 10.2162C18.9265 10.3792 18.7227 10.7357 18.7227 10.807C18.6718 11.5201 19.2626 12.2943 19.0793 13.0277C18.7023 14.5761 16.5835 13.9038 15.4426 14.0464C15.1879 14.1584 15.0046 14.4233 14.7397 14.4946C14.7193 14.5557 14.7499 14.5557 14.7804 14.5863C14.8823 14.7391 15.1166 14.9225 15.249 15.0956C15.7176 15.717 15.7686 16.1856 16.0742 16.807C16.1353 16.9191 16.2983 17.082 16.39 17.2145C16.4613 17.3367 16.665 17.7544 16.7363 17.8155C16.8076 17.8664 17.0419 17.8766 17.1641 17.9275C17.7448 18.1618 17.8874 18.8138 17.6735 19.3639C17.3577 20.1686 16.8484 20.8817 16.064 21.279L15.1268 21.5744H7.2524C6.04018 21.3299 5.19468 20.515 4.76683 19.3741C4.53254 18.7323 4.73627 18.0702 5.42897 17.8766C5.51047 17.8562 5.64289 17.8766 5.68364 17.8562C5.72439 17.8359 6.06055 17.1839 6.15223 17.0515C6.26429 16.8987 6.48839 16.7255 6.5597 16.6236C6.66157 16.481 6.76344 16.0634 6.8653 15.8596C7.0996 15.3809 7.43576 14.9734 7.78211 14.5761L7.00792 14.026C6.22354 13.9751 5.35766 14.0973 4.58347 14.026C3.9417 13.9649 3.4833 13.5269 3.32031 12.9258V12.3961Z" fill="white"/>
<path d="M10.4309 9.60455C10.6754 9.53324 10.7467 9.74716 10.9097 9.82866C11.0829 9.92034 11.2968 9.92034 11.4801 9.85922C11.6839 9.78791 11.9284 9.39063 12.1626 9.7166C12.4377 10.1037 11.6635 10.4705 11.3579 10.501C10.9912 10.5418 10.1152 10.2667 10.2577 9.77772C10.2679 9.73698 10.38 9.62492 10.4309 9.60455Z" fill="#C8D02D"/>
<path d="M14.1093 10.1169C13.9463 10.2799 13.6407 10.1882 13.6 9.94372C13.549 9.63812 13.5287 8.91486 14.038 9.12878C14.2621 9.23065 14.2519 9.97428 14.1093 10.1169Z" fill="#C8D02D"/>
<path d="M8.49617 9.10847C8.64897 9.07791 8.81196 9.14922 8.84252 9.31221C8.86289 9.41408 8.86289 9.88267 8.84252 9.98453C8.77121 10.28 8.33318 10.2596 8.28225 9.95397C8.25169 9.72987 8.21094 9.16959 8.49617 9.10847Z" fill="#C8D02D"/>
</g>
</g>
<defs>
<clipPath id="clip0_1424_2448">
<rect width="24" height="24" fill="white"/>
</clipPath>
</defs>
</svg>
