<svg width="127" height="47" viewBox="0 0 127 47" fill="none" xmlns="http://www.w3.org/2000/svg">
<g clip-path="url(#clip0_143_3419)">
<path d="M75.6495 0C79.8506 0 81.5905 2.45513 81.5905 5.76814C81.5905 9.08115 79.8506 11.5363 75.6495 11.5363C71.4485 11.5363 69.707 9.08115 69.707 5.76814C69.707 2.45513 71.447 0 75.6495 0Z" fill="#C8D02D"/>
<path d="M11.5829 45.7117H11.4642V41.7853C11.4642 38.4723 12.1238 25.4647 17.8845 25.4647C20.4058 25.4647 22.326 28.1028 22.326 33.0716C22.326 40.8044 17.5254 45.7117 11.5829 45.7117ZM11.4642 2.63813C17.5254 2.8826 19.7446 7.17646 19.7446 12.9446C19.7446 19.5106 16.9845 21.8428 14.884 24.7253C13.3244 26.873 12.2441 29.2667 11.4627 31.8448V2.63813H11.4642ZM67.005 38.1648C63.8241 42.2757 58.2423 45.0368 53.021 45.0368H50.8003V3.31303C50.8003 2.51515 51.2195 1.59429 51.6988 1.04387L52.1195 0.674927H39.336L39.6951 1.04387C40.236 1.59579 40.5951 2.51665 40.5951 3.31303V28.9067C38.5592 32.6727 35.8607 35.6197 32.9668 37.0385L32.2727 37.6744C32.4409 36.7985 32.5296 35.8762 32.5296 34.9118C32.5296 26.3841 25.8073 20.064 16.6855 24.4194L16.5037 24.3594C20.5861 19.5721 29.9483 17.5489 29.9483 9.75607C29.9483 4.41837 25.5068 1.34983 18.0047 1.34983H0L0.359103 1.71877C0.900011 2.27069 1.25911 3.19005 1.25911 3.98793V44.3604C1.25911 45.1583 0.900011 46.0792 0.359103 46.6311L0 46.9985H20.5275C26.3843 46.9985 30.6545 43.75 32.0443 38.6748L40.5966 33.4375V43.6855C40.5966 44.4834 40.2375 45.4043 39.6966 45.9562L39.3375 46.3236H68.0267L69.2873 35.2178L67.0065 38.1633L67.005 38.1648Z" fill="#00483A"/>
<path d="M80.7494 43.6855V13.7455H69.2852L69.6458 14.1129C70.1852 14.6648 70.5458 15.5242 70.5458 16.3221V43.687C70.5458 44.4849 70.1852 45.4058 69.6458 45.9577L69.2852 46.3251H82.0701L81.6494 45.9577C81.1701 45.4043 80.7494 44.4834 80.7494 43.687" fill="#00483A"/>
<path d="M109.327 26.9975C109.327 19.5736 111.668 14.3573 114.069 14.3573C117.61 14.3573 118.631 26.0166 111.128 36.5075C109.99 34.0539 109.327 30.8024 109.327 26.9975ZM117.43 41.1104C115.029 41.1104 113.109 39.8835 111.668 37.6129C116.109 35.8941 124.872 30.9239 124.872 22.3961C124.872 16.382 120.492 13.069 113.949 13.069C104.587 13.069 99.1248 19.881 99.1248 29.5141C99.1248 31.9542 99.4824 34.1904 100.127 36.1926C99.1023 41.5183 96.9747 45.6517 93.8375 45.6517C91.5566 45.6517 90.4763 43.564 90.4763 41.1718C90.4763 38.2263 92.096 35.4667 94.5572 33.2575V15.0352H103.381V13.7469H94.5572V3.31299L84.355 13.7439H82.0742V15.0322H84.355V32.5181C84.355 42.1512 87.2955 46.9985 94.2582 46.9985C97.8868 46.9985 101.362 45.6562 104.274 43.0271C106.902 45.5797 110.319 46.9985 114.013 46.9985C120.495 46.9985 125.416 42.5201 126.317 34.2369C123.856 39.2071 120.316 41.1089 117.435 41.1089" fill="#00483A"/>
</g>
<defs>
<clipPath id="clip0_143_3419">
<rect width="126.312" height="47" fill="white"/>
</clipPath>
</defs>
</svg>
