<svg width="49" height="48" viewBox="0 0 49 48" fill="none" xmlns="http://www.w3.org/2000/svg">
<path d="M40.3622 29.272C40.3597 29.2455 39.4997 26.2005 39.4422 26.037C39.1617 25.273 38.8752 24.5111 38.5827 23.7515C37.7642 21.6585 36.8657 19.3535 36.1462 16.165H37.8867V14.6905H35.8432C35.7053 13.9735 35.5832 13.2535 35.4772 12.531C34.4647 5.57753 36.3602 3.62653 36.3797 3.60703L35.8772 3.07003L35.3882 2.52003C35.1292 2.75003 32.8907 4.99053 34.0187 12.744C34.1182 13.4265 34.2257 14.0735 34.3392 14.6915H31.5882L32.7737 13.5065L31.7327 12.4635L29.2982 14.898C29.1602 15.0365 29.0826 15.224 29.0826 15.4195C29.0826 15.6151 29.1602 15.8026 29.2982 15.941L31.8992 18.543L32.9397 17.5L31.6057 16.166H34.6392C35.3902 19.6175 36.3437 22.071 37.2107 24.288L37.3627 24.681C34.6082 24.9615 30.0012 25.329 24.7622 25.329C19.2847 25.3645 13.9982 24.9145 11.5477 24.6755C11.5987 24.5455 11.6462 24.42 11.6977 24.288C12.5527 22.102 13.4922 19.691 14.2387 16.315H17.3202L16.1357 17.5L17.1767 18.543L19.6112 16.1085C19.7493 15.9701 19.8268 15.7826 19.8268 15.587C19.8268 15.3915 19.7493 15.204 19.6112 15.0655L17.0092 12.4635L15.9682 13.5065L17.3022 14.8405H14.5387C14.6632 14.176 14.7812 13.484 14.8892 12.744C16.0177 4.99053 13.7792 2.75003 13.5202 2.51953L12.5287 3.60753C12.5487 3.62753 14.4437 5.57803 13.4312 12.5315C13.3176 13.3043 13.1854 14.0742 13.0347 14.8405H11.0902V16.315H12.7262C12.0127 19.4235 11.1312 21.6925 10.3262 23.752C10.1557 24.188 8.89624 27.8305 8.85874 27.97C8.75641 28.3456 8.66437 28.7239 8.58274 29.1045C8.16224 31.094 8.00074 33.3615 8.32224 36.337C8.93924 42.044 10.7822 43.9755 10.8602 44.0545L11.9167 43.028C11.9007 43.012 10.3397 41.293 9.78574 36.179C9.52774 33.792 9.60474 31.9225 9.87374 30.261C15.7957 31.5595 20.9257 35.4895 23.7182 40.9445V44.1555H25.1907V40.929C27.9992 35.4555 33.1252 31.5275 39.0312 30.2445C39.3032 31.91 39.3812 33.784 39.1227 36.179C38.5697 41.293 37.0082 43.012 36.9982 43.0225L38.0482 44.0545C38.1262 43.9755 39.9702 42.044 40.5862 36.337C40.8992 33.4445 40.7557 31.2215 40.3622 29.272ZM24.4502 39.1975C21.3537 33.901 16.1372 30.089 10.1732 28.787C10.1952 28.6985 10.2157 28.608 10.2382 28.5205C10.3017 28.2765 10.9657 26.2195 11.0092 26.1005C13.2382 26.322 18.7257 26.801 24.4302 26.801C30.1112 26.7795 35.1162 26.398 37.9007 26.1045C37.9392 26.211 38.6822 28.5875 38.7282 28.771C32.7732 30.061 27.5572 33.8775 24.4502 39.1975Z" fill="#E83F3F"/>
<path d="M23.719 19.8105H25.1915V22.184H23.719V19.8105ZM9.3035 7.9465L9.31 8.1605C9.30924 8.40039 9.28782 8.63978 9.246 8.876C9.22879 8.97116 9.23054 9.06879 9.25116 9.16327C9.27177 9.25775 9.31084 9.34723 9.36612 9.42658C9.4214 9.50593 9.49181 9.57358 9.5733 9.62564C9.65479 9.67771 9.74577 9.71318 9.841 9.73C10.0333 9.76407 10.2313 9.72053 10.3915 9.60891C10.5518 9.49729 10.6613 9.32669 10.696 9.1345C10.7527 8.81325 10.7816 8.48771 10.7825 8.1615L10.7745 7.8665C10.753 7.46 10.4075 7.194 9.9995 7.1705C9.80443 7.18148 9.62167 7.2693 9.49122 7.41474C9.36077 7.56019 9.29327 7.75139 9.3035 7.9465ZM4.9465 34.075C5.0426 34.0647 5.13572 34.0355 5.22053 33.9891C5.30533 33.9427 5.38016 33.8801 5.44072 33.8047C5.50128 33.7294 5.54639 33.6429 5.57347 33.5501C5.60054 33.4573 5.60905 33.3601 5.5985 33.264C5.5602 32.9119 5.53169 32.5587 5.513 32.205C5.4925 31.7965 5.1515 31.5 4.739 31.507C4.54406 31.5171 4.36112 31.6042 4.23041 31.7492C4.0997 31.8941 4.03192 32.0851 4.042 32.28C4.062 32.6575 4.0925 33.039 4.1345 33.422C4.1449 33.5182 4.17416 33.6114 4.2206 33.6963C4.26705 33.7812 4.32977 33.8561 4.40518 33.9168C4.48059 33.9774 4.56721 34.0226 4.66009 34.0498C4.75297 34.0769 4.8503 34.0855 4.9465 34.075ZM8.2465 42.587C8.16386 42.416 8.0184 42.2835 7.84046 42.2172C7.66252 42.1508 7.46583 42.1557 7.29141 42.2308C7.11698 42.3059 6.97829 42.4455 6.90425 42.6204C6.83021 42.7953 6.82654 42.992 6.894 43.1695C7.044 43.5185 7.197 43.862 7.349 44.1945C7.473 44.464 7.74 44.6245 8.0195 44.6245C8.122 44.6245 8.2265 44.603 8.326 44.556C8.50347 44.4745 8.64134 44.3259 8.70931 44.1428C8.77727 43.9597 8.76979 43.7571 8.6885 43.5795C8.53748 43.2503 8.39013 42.9195 8.2465 42.587ZM7.3165 40.228C7.19376 39.8875 7.07575 39.5453 6.9625 39.2015C6.89966 39.0176 6.76675 38.866 6.5927 38.7797C6.41864 38.6933 6.21752 38.6792 6.03309 38.7403C5.84867 38.8015 5.69586 38.933 5.60791 39.1063C5.51997 39.2795 5.50401 39.4805 5.5635 39.6655C5.683 40.0235 5.8055 40.3795 5.932 40.728C6.04 41.0285 6.323 41.2155 6.6245 41.2155C6.707 41.2155 6.7915 41.201 6.8745 41.1705C6.96549 41.1378 7.04913 41.0874 7.12062 41.0223C7.19211 40.9571 7.25005 40.8785 7.29111 40.791C7.33217 40.7034 7.35555 40.6086 7.3599 40.512C7.36426 40.4154 7.34951 40.3189 7.3165 40.228ZM5.721 37.6745C6.115 37.574 6.353 37.1745 6.253 36.779C6.16427 36.4306 6.08209 36.0805 6.0065 35.729C5.92 35.3315 5.523 35.071 5.131 35.166C4.7335 35.2505 4.481 35.6425 4.5665 36.0415C4.6455 36.4065 4.733 36.775 4.8255 37.142C4.87382 37.3312 4.99525 37.4936 5.16313 37.5934C5.33101 37.6933 5.53164 37.7224 5.721 37.6745ZM6.3845 3.345C6.46221 3.40252 6.55048 3.44417 6.64429 3.46757C6.7381 3.49097 6.83559 3.49567 6.93121 3.48139C7.02684 3.46712 7.11871 3.43415 7.20159 3.38436C7.28447 3.33458 7.35673 3.26896 7.41425 3.19125C7.47177 3.11354 7.51342 3.02526 7.53682 2.93146C7.56022 2.83765 7.56492 2.74015 7.55064 2.64453C7.53636 2.54891 7.50339 2.45704 7.45361 2.37416C7.40383 2.29128 7.33821 2.21902 7.2605 2.1615L7.0345 2L6.6145 2.606L5.9105 2.39C5.815 2.6975 5.944 3.041 6.211 3.2225L6.3845 3.345ZM6.529 20.0135C6.5445 20.0135 6.5585 20.0115 6.574 20.0115C6.76881 19.9996 6.95099 19.9111 7.08061 19.7651C7.21022 19.6192 7.27671 19.4279 7.2655 19.233C7.24465 18.8797 7.23481 18.5259 7.236 18.172C7.236 17.7655 6.906 17.4795 6.4995 17.4795C6.093 17.4795 5.763 17.8555 5.763 18.2615C5.763 18.603 5.773 18.959 5.7945 19.319C5.80545 19.5065 5.88755 19.6828 6.02405 19.8119C6.16054 19.9409 6.34115 20.0131 6.529 20.0135ZM6.727 21.112C6.53915 21.1655 6.38024 21.2914 6.28518 21.4621C6.19011 21.6327 6.16667 21.8341 6.22 22.022C6.3405 22.4445 6.486 22.8365 6.6585 23.182C6.788 23.441 7.048 23.59 7.3185 23.59C7.429 23.59 7.5415 23.565 7.6465 23.511C7.82112 23.4239 7.95398 23.2709 8.01587 23.0858C8.07775 22.9007 8.06359 22.6987 7.9765 22.524C7.8354 22.2337 7.72158 21.9309 7.6365 21.6195C7.58318 21.4316 7.45741 21.2726 7.28685 21.1774C7.11628 21.0822 6.9149 21.0587 6.727 21.112ZM5.504 26.7945C5.591 26.8285 5.681 26.845 5.77 26.845C6.065 26.845 6.3435 26.665 6.457 26.374C6.592 26.025 6.732 25.7015 6.8705 25.4085C6.91199 25.3212 6.93587 25.2266 6.94076 25.1301C6.94565 25.0336 6.93145 24.937 6.89899 24.846C6.86653 24.755 6.81643 24.6713 6.75157 24.5996C6.68671 24.528 6.60836 24.4698 6.521 24.4285C6.43365 24.3866 6.33887 24.3624 6.24214 24.3574C6.1454 24.3524 6.04862 24.3666 5.9574 24.3992C5.86618 24.4317 5.78232 24.4821 5.71068 24.5473C5.63903 24.6125 5.58102 24.6912 5.54 24.779C5.37484 25.1274 5.22257 25.4818 5.0835 25.8415C5.01301 26.0236 5.0177 26.2263 5.09654 26.405C5.17539 26.5837 5.32194 26.7238 5.504 26.7945ZM8.6435 5.832C8.74044 6.00132 8.90052 6.12533 9.0887 6.17687C9.27687 6.22841 9.47781 6.20329 9.6475 6.107C9.73153 6.05906 9.80529 5.99502 9.86456 5.91854C9.92382 5.84206 9.96742 5.75465 9.99287 5.66131C10.0183 5.56797 10.0251 5.47052 10.0129 5.37455C10.0006 5.27858 9.96957 5.18596 9.9215 5.102C9.72065 4.75187 9.49508 4.41652 9.2465 4.0985C9.18698 4.02223 9.11302 3.95844 9.02884 3.91076C8.94466 3.86308 8.85192 3.83244 8.7559 3.8206C8.65989 3.80876 8.56248 3.81595 8.46924 3.84176C8.376 3.86756 8.28876 3.91148 8.2125 3.971C8.13623 4.03052 8.07244 4.10448 8.02476 4.18866C7.97707 4.27283 7.94644 4.36558 7.9346 4.46159C7.91069 4.65551 7.96479 4.85098 8.085 5.005C8.283 5.258 8.4735 5.535 8.6435 5.832ZM7.5155 13.927C7.42769 13.8863 7.33271 13.8634 7.23601 13.8595C7.13931 13.8557 7.0428 13.871 6.95205 13.9046C6.86129 13.9382 6.77807 13.9894 6.70719 14.0553C6.6363 14.1212 6.57914 14.2004 6.539 14.2885C6.37136 14.6456 6.22217 15.0111 6.092 15.3835C6.05417 15.4943 6.04335 15.6125 6.06045 15.7284C6.07755 15.8442 6.12207 15.9542 6.1903 16.0494C6.25854 16.1445 6.34851 16.222 6.45274 16.2753C6.55696 16.3286 6.67242 16.3563 6.7895 16.356C7.097 16.356 7.384 16.162 7.487 15.8545C7.5805 15.5775 7.7155 15.254 7.8765 14.9035C7.91707 14.8157 7.93991 14.7208 7.94372 14.6241C7.94753 14.5275 7.93223 14.431 7.89869 14.3403C7.86515 14.2496 7.81404 14.1664 7.74829 14.0955C7.68253 14.0245 7.60342 13.9673 7.5155 13.927ZM4.777 30.3975C4.97094 30.4208 5.16618 30.366 5.31977 30.2454C5.47336 30.1247 5.57272 29.9479 5.596 29.754C5.639 29.4 5.696 29.0565 5.763 28.722C5.80147 28.5304 5.76239 28.3314 5.65431 28.1686C5.54624 28.0057 5.378 27.8924 5.1865 27.8535C4.7875 27.7815 4.399 28.0315 4.319 28.4305C4.2419 28.8102 4.18018 29.1928 4.134 29.5775C4.12233 29.6736 4.12971 29.771 4.15572 29.8642C4.18172 29.9574 4.22585 30.0446 4.28556 30.1208C4.34528 30.1969 4.41941 30.2605 4.50374 30.308C4.58806 30.3555 4.68092 30.3859 4.777 30.3975ZM8.0375 12.9525C8.12143 13.0009 8.21412 13.0321 8.31021 13.0445C8.40629 13.0568 8.50387 13.05 8.59731 13.0245C8.69075 12.9989 8.7782 12.9551 8.85461 12.8955C8.93102 12.836 8.99488 12.7619 9.0425 12.6775C9.22299 12.3629 9.40734 12.0506 9.5955 11.7405C9.806 11.3935 9.6945 10.9405 9.3465 10.73C9.264 10.6791 9.17221 10.6452 9.07648 10.6301C8.98074 10.6151 8.88297 10.6192 8.78884 10.6423C8.69472 10.6654 8.60612 10.7069 8.52821 10.7646C8.45029 10.8222 8.38462 10.8948 8.335 10.978C8.14084 11.2987 7.9505 11.6218 7.764 11.947C7.66724 12.1167 7.6417 12.3178 7.69297 12.5063C7.74423 12.6947 7.86813 12.8552 8.0375 12.9525ZM42.771 40.7765C42.5865 40.7126 42.3841 40.7243 42.2082 40.8092C42.0323 40.8941 41.8972 41.0452 41.8325 41.2295C41.713 41.573 41.589 41.9145 41.461 42.247C41.4187 42.3586 41.4041 42.4788 41.4185 42.5972C41.4328 42.7157 41.4757 42.8289 41.5434 42.9272C41.611 43.0254 41.7016 43.1058 41.8071 43.1614C41.9127 43.217 42.0302 43.2462 42.1495 43.2465C42.446 43.2465 42.726 43.065 42.838 42.772C42.9695 42.425 43.0985 42.0725 43.2235 41.7145C43.2877 41.5301 43.2761 41.3278 43.1913 41.1519C43.1065 40.976 42.9553 40.841 42.771 40.7765ZM41.4675 44.2215C41.3793 44.1817 41.2841 44.1597 41.1873 44.1568C41.0906 44.1539 40.9942 44.1701 40.9038 44.2045C40.8133 44.239 40.7306 44.2909 40.6603 44.3574C40.5899 44.4239 40.5334 44.5036 40.494 44.592L40.3285 44.957C40.2774 45.0692 40.2553 45.1924 40.2641 45.3154C40.273 45.4384 40.3125 45.5571 40.3791 45.6609C40.4457 45.7646 40.5372 45.85 40.6454 45.9093C40.7535 45.9685 40.8747 45.9997 40.998 46C41.1393 46.0001 41.2777 45.9595 41.3966 45.8829C41.5154 45.8064 41.6096 45.6972 41.668 45.5685L41.837 45.1965C41.917 45.0182 41.923 44.8154 41.8537 44.6327C41.7844 44.4499 41.6456 44.302 41.4675 44.2215ZM43.7465 37.227C43.6524 37.2042 43.5548 37.2002 43.4591 37.2153C43.3635 37.2303 43.2718 37.2642 43.1893 37.3148C43.1069 37.3655 43.0352 37.432 42.9785 37.5104C42.9218 37.5889 42.8812 37.6778 42.859 37.772C42.7753 38.1217 42.6854 38.4699 42.5895 38.8165C42.5595 38.9259 42.5552 39.0408 42.5768 39.1522C42.5984 39.2636 42.6454 39.3685 42.7141 39.4588C42.7829 39.5491 42.8715 39.6223 42.9731 39.6728C43.0747 39.7233 43.1865 39.7497 43.3 39.75C43.6235 39.75 43.9195 39.536 44.0105 39.209C44.1105 38.8475 44.2055 38.481 44.293 38.114C44.3381 37.9239 44.3058 37.7237 44.2033 37.5574C44.1009 37.3911 43.9365 37.2722 43.7465 37.227ZM44.8265 30.531C44.8135 30.4347 44.7813 30.3421 44.7318 30.2585C44.6823 30.1749 44.6165 30.1021 44.5384 30.0444C44.4602 29.9868 44.3713 29.9454 44.2768 29.9227C44.1824 29.9 44.0843 29.8966 43.9885 29.9125C43.8928 29.9268 43.8009 29.9598 43.718 30.0097C43.6351 30.0596 43.5628 30.1253 43.5054 30.2032C43.4479 30.281 43.4064 30.3694 43.3832 30.4633C43.3599 30.5573 43.3554 30.6548 43.37 30.7505C43.4035 30.9715 43.431 31.1945 43.4545 31.43L43.488 31.795C43.5021 31.98 43.5854 32.153 43.7214 32.2793C43.8573 32.4056 44.0359 32.476 44.2215 32.4765C44.2405 32.4765 44.2595 32.4745 44.278 32.473C44.3744 32.4658 44.4685 32.4396 44.5548 32.396C44.6412 32.3525 44.7181 32.2923 44.7811 32.219C44.8442 32.1456 44.8922 32.0606 44.9223 31.9687C44.9525 31.8769 44.9643 31.7799 44.957 31.6835L44.919 31.277C44.8945 31.0255 44.863 30.777 44.8265 30.531ZM44.2565 33.5805C43.8575 33.539 43.493 33.843 43.457 34.2475C43.4252 34.6022 43.3844 34.9559 43.3345 35.3085C43.3072 35.5018 43.3578 35.698 43.4751 35.8541C43.5923 36.0102 43.7667 36.1134 43.96 36.141C43.995 36.1445 44.03 36.148 44.0645 36.148C44.426 36.148 44.7405 35.882 44.7925 35.5135C44.846 35.137 44.8898 34.7592 44.924 34.3805C44.9329 34.2841 44.9226 34.1869 44.8938 34.0945C44.8651 34.0021 44.8183 33.9162 44.7563 33.8419C44.6943 33.7676 44.6182 33.7063 44.5325 33.6614C44.4467 33.6165 44.3529 33.589 44.2565 33.5805ZM41.7675 20.1735C41.7506 20.5211 41.72 20.8678 41.676 21.213C41.6622 21.3095 41.6676 21.4077 41.692 21.502C41.7164 21.5964 41.7594 21.6849 41.8183 21.7625C41.8772 21.8402 41.9509 21.9053 42.0352 21.9542C42.1195 22.0031 42.2126 22.0348 42.3093 22.0474C42.4059 22.06 42.5041 22.0533 42.5981 22.0277C42.6921 22.002 42.7801 21.958 42.8569 21.8981C42.9338 21.8382 42.998 21.7636 43.0458 21.6787C43.0936 21.5938 43.1241 21.5003 43.1355 21.4035C43.186 21.0185 43.219 20.6285 43.238 20.2455C43.2428 20.1489 43.2286 20.0523 43.196 19.9612C43.1635 19.8701 43.1133 19.7863 43.0483 19.7146C42.9833 19.643 42.9048 19.5848 42.8174 19.5435C42.7299 19.5022 42.6351 19.4786 42.5385 19.474C42.165 19.503 41.7875 19.767 41.7675 20.1735ZM42.8845 26.4005C42.7022 26.4704 42.5551 26.6099 42.4755 26.7882C42.3959 26.9665 42.3903 27.1691 42.46 27.3515C42.5805 27.668 42.699 28.0025 42.8095 28.353C42.8681 28.5392 42.9983 28.6945 43.1713 28.7849C43.3444 28.8753 43.5462 28.8933 43.7325 28.835C43.8248 28.806 43.9105 28.759 43.9846 28.6969C44.0588 28.6347 44.1199 28.5586 44.1646 28.4727C44.2093 28.3869 44.2366 28.2931 44.245 28.1967C44.2534 28.1003 44.2427 28.0033 44.2135 27.911C44.0985 27.5457 43.9723 27.184 43.835 26.8265C43.7647 26.6446 43.6254 26.4977 43.4474 26.4179C43.2694 26.3382 43.0671 26.3319 42.8845 26.4005ZM39.166 8.108C39.262 8.151 39.363 8.171 39.4625 8.171C39.745 8.171 40.0155 8.0055 40.137 7.7305C40.273 7.423 40.4345 7.1335 40.609 6.864C40.7151 6.69998 40.7519 6.50062 40.7113 6.30954C40.6707 6.11847 40.5561 5.95126 40.3925 5.8445C40.2285 5.73857 40.0292 5.70197 39.8383 5.74275C39.6474 5.78352 39.4804 5.89832 39.374 6.062C39.1501 6.40408 38.9543 6.76376 38.7885 7.1375C38.6245 7.5095 38.7935 7.9445 39.166 8.108ZM41.6815 5.262C41.856 5.262 42.031 5.199 42.1715 5.075C42.612 4.681 42.9385 4.46 42.958 4.4475C43.0385 4.39386 43.1077 4.32487 43.1616 4.24449C43.2155 4.16411 43.253 4.07391 43.272 3.97903C43.291 3.88415 43.2911 3.78646 43.2724 3.69153C43.2537 3.59659 43.2164 3.50628 43.1627 3.42575C43.1091 3.34522 43.0401 3.27604 42.9597 3.22216C42.8794 3.16829 42.7892 3.13078 42.6943 3.11176C42.5994 3.09275 42.5017 3.09261 42.4068 3.11135C42.3118 3.1301 42.2215 3.16735 42.141 3.221C42.141 3.221 41.738 3.487 41.1915 3.9745C41.0802 4.07396 41.0016 4.20486 40.9663 4.3499C40.931 4.49495 40.9405 4.6473 40.9936 4.78683C41.0467 4.92635 41.1409 5.04647 41.2637 5.13132C41.3865 5.21616 41.5322 5.26173 41.6815 5.262ZM39.208 11.76C39.28 11.76 39.3535 11.749 39.4255 11.726C39.5179 11.6975 39.6038 11.6511 39.6782 11.5895C39.7527 11.5278 39.8143 11.452 39.8595 11.3665C39.9046 11.2811 39.9325 11.1875 39.9416 11.0913C39.9506 10.995 39.9405 10.8979 39.912 10.8055C39.8186 10.5063 39.7592 10.1975 39.735 9.885C39.7045 9.4785 39.3725 9.162 38.944 9.207C38.7494 9.22182 38.5687 9.31332 38.4415 9.46137C38.3144 9.60942 38.2512 9.80191 38.266 9.9965C38.2985 10.4155 38.3785 10.8325 38.5045 11.241C38.551 11.3913 38.6443 11.5228 38.7709 11.6162C38.8975 11.7096 39.0507 11.76 39.208 11.76ZM40.019 12.67C39.9355 12.7188 39.8625 12.7835 39.8041 12.8605C39.7456 12.9376 39.703 13.0253 39.6785 13.1189C39.654 13.2124 39.6482 13.3098 39.6614 13.4056C39.6746 13.5014 39.7066 13.5936 39.7555 13.677C39.936 13.9865 40.117 14.3025 40.2905 14.621C40.3844 14.7925 40.5427 14.9196 40.7303 14.9744C40.918 15.0292 41.1198 15.0072 41.2912 14.9132C41.4627 14.8193 41.5898 14.6611 41.6446 14.4734C41.6994 14.2857 41.6774 14.084 41.5835 13.9125C41.4028 13.5831 41.2173 13.2564 41.027 12.9325C40.9785 12.8486 40.9138 12.7752 40.8367 12.7165C40.7596 12.6579 40.6716 12.6151 40.5778 12.5906C40.4841 12.5662 40.3864 12.5607 40.2905 12.5743C40.1945 12.5879 40.1023 12.6204 40.019 12.67ZM41.0665 23.457L40.9765 23.6295C40.9131 23.7465 40.8825 23.8784 40.888 24.0113C40.8936 24.1443 40.935 24.2732 41.008 24.3845C41.017 24.397 41.1825 24.6525 41.4245 25.0985C41.5585 25.343 41.811 25.4835 42.0725 25.4835C42.2003 25.4833 42.3258 25.4499 42.4368 25.3865C42.5477 25.3232 42.6403 25.2321 42.7055 25.1222C42.7707 25.0123 42.8062 24.8874 42.8086 24.7596C42.8109 24.6319 42.7801 24.5057 42.719 24.3935C42.6322 24.2337 42.5425 24.0755 42.45 23.919C42.4787 23.7621 42.4556 23.6001 42.3843 23.4575C42.313 23.3148 42.1972 23.1992 42.0545 23.128C41.968 23.0847 41.8739 23.0588 41.7774 23.0519C41.681 23.045 41.5841 23.0572 41.4923 23.0877C41.4006 23.1183 41.3157 23.1666 41.2427 23.23C41.1696 23.2934 41.1097 23.3705 41.0665 23.457ZM42.756 16.304C42.6823 16.1234 42.5401 15.9793 42.3606 15.9031C42.181 15.827 41.9786 15.8249 41.7975 15.8975C41.6163 15.971 41.4718 16.1134 41.3955 16.2934C41.3193 16.4734 41.3177 16.6763 41.391 16.8575C41.446 16.994 41.4945 17.1235 41.534 17.2425C41.5805 17.383 41.621 17.559 41.6565 17.762C41.6728 17.8573 41.7077 17.9484 41.7593 18.0302C41.8108 18.112 41.8779 18.1828 41.9568 18.2386C42.0358 18.2944 42.1249 18.3342 42.2192 18.3556C42.3134 18.377 42.411 18.3796 42.5062 18.3633C42.6015 18.3469 42.6926 18.312 42.7744 18.2605C42.8562 18.2089 42.927 18.1418 42.9829 18.0629C43.0387 17.984 43.0784 17.8949 43.0998 17.8006C43.1212 17.7063 43.1238 17.6088 43.1075 17.5135C43.0673 17.2624 43.0082 17.0147 42.9305 16.7725C42.8805 16.6275 42.823 16.4695 42.756 16.304Z" fill="#E83F3F"/>
</svg>
