<svg width="121" height="60" viewBox="0 0 121 60" fill="none" xmlns="http://www.w3.org/2000/svg">
<path d="M71.5757 0C75.5496 0 77.1962 2.27138 77.1962 5.33913C77.1962 8.40689 75.5496 10.6763 71.5757 10.6763C67.6018 10.6763 65.9531 8.40489 65.9531 5.33913C65.9531 2.27337 67.5998 0 71.5757 0Z" fill="#C8D02D"/>
<path d="M10.9617 42.3056H10.8499V38.671C10.8499 35.6053 11.4746 23.5658 16.9256 23.5658C19.3107 23.5658 21.127 26.0068 21.127 30.6055C21.127 37.7609 16.5842 42.3036 10.9617 42.3036M10.8499 2.44277C16.5842 2.66831 18.684 6.64422 18.684 11.9814C18.684 18.057 16.0713 20.2166 14.0853 22.8832C12.6083 24.8711 11.5864 27.0846 10.8499 29.4718V2.44277ZM63.397 35.3199C60.3871 39.1241 55.1059 41.6809 50.1659 41.6809H48.0662V3.0675C48.0662 2.329 48.4634 1.47674 48.9164 0.967775L49.3136 0.626465H37.2183L37.5576 0.967775C38.0685 1.47873 38.4098 2.329 38.4098 3.0675V26.7533C36.4838 30.2382 33.9309 32.9666 31.1925 34.28L30.5359 34.8688C30.6935 34.0584 30.7794 33.2042 30.7794 32.312C30.7794 24.42 24.4183 18.5719 15.7879 22.6017L15.6162 22.5459C19.4784 18.1149 28.3363 16.2427 28.3363 9.03136C28.3363 4.09142 24.1349 1.25119 17.0353 1.25119H0L0.341298 1.5925C0.852258 2.10346 1.19357 2.95573 1.19357 3.69223V41.0562C1.19357 41.7947 0.854254 42.6469 0.341298 43.1579L0 43.4972H19.4205C24.9632 43.4972 29.003 40.4913 30.3163 35.7929L38.4078 30.9448V40.4295C38.4078 41.168 38.0665 42.0202 37.5556 42.5312L37.2163 42.8705H64.359L65.5506 32.5914L63.393 35.3179L63.397 35.3199Z" fill="white"/>
<path d="M76.4006 40.4318V12.7222H65.5547L65.896 13.0635C66.407 13.5744 66.7483 14.3688 66.7483 15.1073V40.4338C66.7483 41.1723 66.407 42.0245 65.896 42.5355L65.5547 42.8748H77.6501L77.2529 42.5355C76.7978 42.0245 76.4006 41.1723 76.4006 40.4338" fill="white"/>
<path d="M103.44 24.9853C103.44 18.1153 105.653 13.2871 107.927 13.2871C111.278 13.2871 112.242 24.0772 105.144 33.7854C104.067 31.514 103.44 28.5041 103.44 24.9853ZM111.106 38.0467C108.835 38.0467 107.019 36.911 105.653 34.8113C109.855 33.2205 118.146 28.6219 118.146 20.728C118.146 15.1613 114 12.0955 107.811 12.0955C98.953 12.0955 93.7855 18.4007 93.7855 27.3146C93.7855 29.574 94.1248 31.6418 94.7336 33.494C93.7636 38.422 91.7517 42.2482 88.7817 42.2482C86.6241 42.2482 85.6022 40.3161 85.6022 38.1026C85.6022 35.3762 87.1351 32.8214 89.4623 30.7775V13.9118H97.8113V12.7203H89.4623V3.06592L79.81 12.7203H77.6523V13.9118H79.81V30.0949C79.81 39.0088 82.5923 43.4956 89.1789 43.4956C92.6119 43.4956 95.9012 42.2542 98.6556 39.8191C101.143 42.1803 104.374 43.4956 107.869 43.4956C114 43.4956 118.657 39.3521 119.509 31.6857C117.182 36.2863 113.831 38.0467 111.104 38.0467" fill="white"/>
<path d="M5.44218 55.6386H2.1469V57.383H5.90325V58.6025H0.761719V51.8184H5.73759V53.0199H2.1469V54.461H5.44218V55.6386Z" fill="#F1F2F2"/>
<path d="M10.9639 56.0378L10.1176 53.3692L9.24341 56.0378H10.9639ZM11.3591 57.2074H8.86019L8.39114 58.6025H6.91016L9.33123 51.8184H10.932L13.3351 58.6025H11.7982L11.3611 57.2074H11.3591Z" fill="#F1F2F2"/>
<path d="M18.8034 51.8184V53.0199H16.7735V58.6025H15.3464V53.0199H13.3086V51.8184H18.8034Z" fill="#F1F2F2"/>
<path d="M23.0039 51.8184H24.421V57.383H27.7802V58.6025H23.0039V51.8184Z" fill="#F1F2F2"/>
<path d="M30.4404 51.8184H29.0312V58.6025H30.4404V51.8184Z" fill="#F1F2F2"/>
<path d="M36.2994 58.4372C35.9241 58.6667 35.4651 58.7825 34.9182 58.7825C34.018 58.7825 33.2835 58.4711 32.7087 57.8484C32.1099 57.2237 31.8125 56.3674 31.8125 55.2816C31.8125 54.1958 32.1139 53.3016 32.7187 52.639C33.3234 51.9763 34.1218 51.645 35.1158 51.645C35.978 51.645 36.6706 51.8626 37.1935 52.3017C37.7165 52.7388 38.0159 53.2837 38.0937 53.9383H36.6986C36.5908 53.4753 36.3293 53.152 35.9122 52.9683C35.6786 52.8665 35.4192 52.8166 35.1337 52.8166C34.5869 52.8166 34.1398 53.0222 33.7885 53.4354C33.4372 53.8485 33.2616 54.4693 33.2616 55.2976C33.2616 56.1259 33.4512 56.7227 33.8324 57.07C34.2116 57.4173 34.6447 57.5909 35.1297 57.5909C35.6148 57.5909 35.994 57.4532 36.2994 57.1798C36.6027 56.9043 36.7904 56.545 36.8602 56.1H35.2914V54.9683H38.1177V58.6088H37.1796L37.0379 57.7626C36.7644 58.0839 36.5189 58.3115 36.3014 58.4432" fill="#F1F2F2"/>
<path d="M43.8897 58.6025V55.5747H41.2391V58.6025H39.8359V51.8184H41.2391V54.4051H43.8897V51.8184H45.2988V58.6025H43.8897Z" fill="#F1F2F2"/>
<path d="M51.9558 51.8184V53.0199H49.9259V58.6025H48.4988V53.0199H46.4609V51.8184H51.9558Z" fill="#F1F2F2"/>
<path d="M53.2266 59.5687C53.4381 59.5307 53.5858 59.383 53.6737 59.1196C53.7196 58.9799 53.7435 58.8461 53.7435 58.7164C53.7435 58.6944 53.7435 58.6765 53.7415 58.6585C53.7415 58.6406 53.7355 58.6226 53.7295 58.6006H53.2286V57.5967H54.2126V58.5268C54.2126 58.892 54.1387 59.2114 53.991 59.4888C53.8433 59.7643 53.5878 59.9359 53.2266 59.9998V59.5667V59.5687Z" fill="#F1F2F2"/>
<path d="M59.1523 51.8423H60.0685V57.7962H63.4596V58.6025H59.1523V51.8423Z" fill="#F1F2F2"/>
<path d="M65.9066 51.8423H64.9805V58.6025H65.9066V51.8423Z" fill="#F1F2F2"/>
<path d="M68.3069 51.8423L70.249 57.5986L72.1671 51.8423H73.193L70.728 58.6025H69.756L67.293 51.8423H68.3069Z" fill="#F1F2F2"/>
<path d="M74.5195 51.8423H79.4255V52.6706H75.4117V54.7224H79.1202V55.5048H75.4117V57.7962H79.4934V58.6025H74.5195V51.8423Z" fill="#F1F2F2"/>
<path d="M86.9604 57.8201C87.5273 57.8201 87.9305 57.6584 88.174 57.3331C88.3257 57.1275 88.4015 56.878 88.4015 56.5866C88.4015 56.0956 88.1799 55.7603 87.7368 55.5827C87.5013 55.4869 87.19 55.441 86.8028 55.441H84.9685V57.8201H86.9604ZM86.6511 54.6985C87.0423 54.6985 87.3456 54.6446 87.5632 54.5368C87.9045 54.3671 88.0742 54.0638 88.0742 53.6247C88.0742 53.1855 87.8926 52.8842 87.5313 52.7325C87.3257 52.6467 87.0223 52.6027 86.6191 52.6027H84.9685V54.6965H86.6511V54.6985ZM84.0703 51.8423H86.9944C87.7907 51.8423 88.3576 52.0778 88.6949 52.5508C88.8925 52.8303 88.9923 53.1516 88.9923 53.5169C88.9923 53.944 88.8706 54.2933 88.6291 54.5667C88.5033 54.7105 88.3217 54.8422 88.0861 54.9619C88.4334 55.0937 88.6929 55.2414 88.8646 55.409C89.1679 55.7044 89.3196 56.1096 89.3196 56.6285C89.3196 57.0637 89.1819 57.4589 88.9085 57.8121C88.4973 58.3391 87.8446 58.6025 86.9505 58.6025H84.0743V51.8423H84.0703Z" fill="#F1F2F2"/>
<path d="M93.8412 54.938C94.2584 54.938 94.5897 54.8522 94.8332 54.6805C95.0767 54.5089 95.1985 54.1995 95.1985 53.7504C95.1985 53.2694 95.0288 52.9401 94.6875 52.7664C94.5059 52.6746 94.2624 52.6287 93.957 52.6287H91.7814V54.938H93.8412ZM90.8653 51.8423H93.939C94.444 51.8423 94.8631 51.9181 95.1905 52.0678C95.8132 52.3572 96.1266 52.8882 96.1266 53.6646C96.1266 54.0698 96.0427 54.4011 95.8751 54.6586C95.7074 54.916 95.4739 55.1236 95.1725 55.2793C95.436 55.3871 95.6356 55.5268 95.7673 55.7024C95.901 55.8781 95.9749 56.1615 95.9908 56.5547L96.0228 57.4609C96.0328 57.7183 96.0527 57.9099 96.0886 58.0357C96.1425 58.2493 96.2423 58.389 96.3821 58.4488V58.6005H95.2603C95.2304 58.5426 95.2045 58.4668 95.1865 58.375C95.1685 58.2832 95.1525 58.1055 95.1406 57.8421L95.0847 56.7144C95.0647 56.2733 94.9051 55.9759 94.6057 55.8262C94.436 55.7424 94.1686 55.7024 93.8053 55.7024H91.7794V58.6025H90.8633V51.8423H90.8653Z" fill="#F1F2F2"/>
<path d="M99.0746 51.8423H98.1484V58.6025H99.0746V51.8423Z" fill="#F1F2F2"/>
<path d="M105.432 52.0343C106.095 52.3876 106.5 53.0063 106.648 53.8885H105.742C105.634 53.3936 105.41 53.0343 105.071 52.8088C104.732 52.5832 104.303 52.4694 103.786 52.4694C103.173 52.4694 102.656 52.705 102.237 53.174C101.818 53.643 101.608 54.3436 101.608 55.2717C101.608 56.0761 101.782 56.7308 102.127 57.2357C102.472 57.7407 103.037 57.9922 103.818 57.9922C104.416 57.9922 104.911 57.8146 105.305 57.4613C105.698 57.106 105.897 56.5332 105.907 55.7428H103.79V54.9843H106.758V58.601H106.169L105.947 57.7307C105.642 58.072 105.372 58.3076 105.137 58.4393C104.742 58.6668 104.239 58.7806 103.63 58.7806C102.842 58.7806 102.165 58.5211 101.596 58.0022C100.977 57.3515 100.668 56.4593 100.668 55.3236C100.668 54.1879 100.971 53.2918 101.574 52.6211C102.149 51.9824 102.893 51.6631 103.806 51.6631C104.432 51.6631 104.973 51.7868 105.43 52.0303" fill="#F1F2F2"/>
<path d="M108.664 51.8423H109.588V54.6346H113.063V51.8423H113.989V58.6025H113.063V55.441H109.588V58.6025H108.664V51.8423Z" fill="#F1F2F2"/>
<path d="M120.743 51.8423V52.6467H118.465V58.6025H117.539V52.6467H115.262V51.8423H120.743Z" fill="#F1F2F2"/>
</svg>
