<svg width="66" height="66" viewBox="0 0 66 66" fill="none" xmlns="http://www.w3.org/2000/svg">
<circle cx="33" cy="33" r="33" fill="#024739"/>
<path d="M44.5067 36.5112C44.2705 36.579 44.0422 36.6435 43.8258 36.6889C43.8705 36.3625 43.8955 36.0566 43.9008 35.7717C44.3923 36.0323 45.145 36.0684 45.7733 35.8368C47.7669 35.1433 48.167 33.3491 47.6064 33.1787C47.4465 33.1155 47.2695 33.1576 47.1609 33.2905C46.2332 34.1452 44.841 32.9662 43.729 34.411C43.5718 33.9834 43.2027 33.0629 42.6592 33.4715C42.1203 34.0794 43.4895 34.0228 43.0237 36.7271C42.6066 36.6659 42.1184 36.4981 41.6802 36.3862V21.9625C41.6802 20.9387 40.8472 20.1064 39.824 20.1064H37.7633C37.5916 19.6833 37.2172 19.3694 36.7659 19.2773C36.7876 18.7069 36.329 18.2252 35.7565 18.2266H28.5493C27.9768 18.2252 27.5176 18.7069 27.54 19.2773C27.3184 19.3229 27.1114 19.4224 26.9375 19.567C26.7635 19.7116 26.6278 19.8968 26.5425 20.1064H24.4811C23.4573 20.1064 22.625 20.9393 22.625 21.9625V43.7416C22.625 44.7647 23.4573 45.597 24.4804 45.597C28.1545 45.5884 35.571 45.6029 39.2325 45.597C40.8248 47.2202 41.8407 46.9254 43.3257 46.8517C43.329 46.8517 43.6922 46.8484 44.6166 46.93C46.1437 47.0333 47.8715 45.5812 48.6019 43.735C49.7461 40.7571 49.5158 38.6075 47.8781 36.9685C46.7728 35.8632 45.5167 36.2224 44.5067 36.5112ZM45.4937 34.4156C45.9516 34.4729 46.3339 34.4459 46.6458 34.3795C46.1799 34.9664 44.8844 35.4526 44.2376 35.0598C44.414 34.7598 44.7936 34.3281 45.4937 34.4156ZM40.8899 21.9631V36.2329C40.5452 36.1961 40.1662 36.2066 39.7787 36.3316V24.1423C39.778 24.0817 39.7648 24.0212 39.7372 23.9673C39.7181 23.9271 39.6911 23.8923 39.6602 23.8607L37.8423 22.0723C37.8804 21.919 37.8567 21.0676 37.8627 20.8952H39.8227C40.4109 20.8952 40.8893 21.3736 40.8893 21.9618L40.8899 21.9631ZM37.5126 42.0157H25.3154V22.1533H26.4787C26.6208 22.7606 27.1649 23.2146 27.8137 23.2146H29.6211C30.0527 23.208 30.4685 23.3304 30.8587 23.5014C31.7739 23.8745 32.7898 23.8146 33.6827 23.4067C34.3643 23.0869 35.8427 23.256 36.5777 23.2119L36.5856 24.166C36.5862 24.2706 36.629 24.3706 36.7033 24.4443C36.7777 24.518 36.879 24.5588 36.9836 24.5574L38.9891 24.5403V36.7652C37.4968 38.0792 37.0211 39.7931 37.512 42.0151L37.5126 42.0157ZM37.4646 22.8086L38.4279 23.7561L37.3718 23.7653L37.3646 22.9C37.3995 22.8711 37.4324 22.8408 37.4639 22.8086H37.4646ZM28.3288 19.2365C28.3288 19.1155 28.4275 19.0168 28.5486 19.0168H35.7559C35.877 19.0168 35.9756 19.1155 35.9756 19.2365V20.6104C35.9756 20.7314 35.877 20.8301 35.7559 20.8301H28.5486C28.4275 20.8301 28.3288 20.7314 28.3288 20.6104V19.2365ZM27.5393 20.1083V20.6104C27.5393 21.167 27.992 21.6197 28.5486 21.6197H35.7559C36.3125 21.6197 36.7652 21.167 36.7652 20.6104V20.1083C36.9507 20.2044 37.0771 20.4077 37.0738 20.6235V21.8414C37.0804 22.1539 36.8047 22.4322 36.4902 22.4257H34.6834C34.1518 22.4197 33.6359 22.5579 33.1523 22.7691C31.6292 23.3731 31.0113 22.4138 29.6211 22.4257H27.8137C27.4919 22.4257 27.2307 22.1638 27.2307 21.8414V20.6235C27.2281 20.4064 27.3551 20.2044 27.5393 20.1083ZM23.4139 43.7422V21.9625C23.4139 21.3742 23.8922 20.8959 24.4804 20.8959H26.4412V21.3637H24.9206C24.7028 21.3637 24.5258 21.5407 24.5258 21.7585V42.4098C24.5258 42.6276 24.7028 42.8046 24.9206 42.8046H37.7192C37.9265 43.4823 38.1838 44.2034 38.5989 44.8075H24.4798C23.8922 44.8075 23.4139 44.3291 23.4139 43.7416V43.7422ZM47.865 43.4521C47.2327 45.0983 45.6641 46.2286 44.6864 46.1438C43.8001 46.0661 43.433 46.0628 43.3211 46.0628C42.0216 46.0826 41.1597 46.5181 39.6971 44.9384C39.0134 44.2166 38.6463 43.2178 38.3976 42.3065C37.8331 40.2419 38.1272 38.7233 39.322 37.5271C39.8313 37.0271 40.3517 36.9047 41.2031 37.0837C42.627 37.4482 43.2389 37.7772 44.7245 37.2705C45.7009 36.9916 46.5438 36.7507 47.3208 37.5271C48.7302 38.9371 48.898 40.7643 47.8656 43.4521H47.865Z" fill="white"/>
<path d="M29.1796 28.3777L28.2084 29.4521C27.9735 29.2126 27.6886 28.756 27.3162 29.0777C27.2784 29.1132 27.2479 29.1557 27.2265 29.203C27.2051 29.2502 27.1933 29.3012 27.1916 29.353C27.19 29.4048 27.1985 29.4565 27.2169 29.505C27.2352 29.5535 27.2629 29.5979 27.2985 29.6357L27.9261 30.3048C28.0762 30.4719 28.3604 30.4693 28.5071 30.2996L29.7658 28.9067C30.1099 28.5224 29.5283 27.9954 29.1802 28.3777H29.1796ZM29.1796 34.9349L28.2084 36.0093C27.9735 35.7698 27.6886 35.3125 27.3162 35.6343C27.2784 35.6697 27.2479 35.7123 27.2265 35.7595C27.2051 35.8068 27.1933 35.8577 27.1916 35.9096C27.19 35.9614 27.1985 36.013 27.2169 36.0615C27.2352 36.11 27.2629 36.1545 27.2985 36.1922L27.9261 36.862C28.0762 37.0292 28.3604 37.0265 28.5071 36.8568L29.7658 35.4639C30.1099 35.0796 29.5283 34.5526 29.1802 34.9349H29.1796ZM34.1011 26.8479C34.1011 26.6301 33.9241 26.4531 33.7063 26.4531H30.5994C30.3816 26.4531 30.2047 26.6301 30.2047 26.8479C30.2047 27.0657 30.3816 27.2427 30.5994 27.2427H33.7063C33.9241 27.2427 34.1011 27.0657 34.1011 26.8479ZM36.0296 29.1587H31.2291C31.0113 29.1587 30.8343 29.3356 30.8343 29.5534C30.8343 29.7712 31.0113 29.9482 31.2291 29.9482H36.0296C36.5467 29.9397 36.5494 29.1679 36.0296 29.1587ZM36.0296 30.9259H31.2291C31.0113 30.9259 30.8343 31.1029 30.8343 31.3207C30.8343 31.5385 31.0113 31.7155 31.2291 31.7155H36.0296C36.5467 31.7069 36.5494 30.9351 36.0296 30.9259ZM31.2291 33.4834H33.5168C34.0353 33.4749 34.036 32.7024 33.5168 32.6939H31.2291C30.7106 32.7024 30.71 33.4749 31.2291 33.4834ZM36.0296 35.7205H31.2291C31.0113 35.7205 30.8343 35.8975 30.8343 36.1153C30.8343 36.333 31.0113 36.51 31.2291 36.51H36.0296C36.5467 36.5015 36.5494 35.7297 36.0296 35.7205ZM36.0296 37.4884H31.2291C31.0113 37.4884 30.8343 37.6654 30.8343 37.8832C30.8343 38.101 31.0113 38.278 31.2291 38.278H36.0296C36.5467 38.2694 36.5494 37.4976 36.0296 37.4884ZM33.5168 39.2563H31.2291C30.7106 39.2649 30.71 40.0373 31.2291 40.0459H33.5168C34.0353 40.0373 34.036 39.2649 33.5168 39.2563Z" fill="white"/>
</svg>
