<svg width="60" height="60" viewBox="0 0 60 60" fill="none" xmlns="http://www.w3.org/2000/svg">
<circle cx="30" cy="30" r="30" fill="#00483A"/>
<circle cx="30" cy="30" r="30" fill="#024739"/>
<path d="M21.4614 29.0228C19.7528 32.9861 20.1143 37.4984 20.6598 41.6486C20.7272 42.1027 21.4092 42.0195 21.3571 41.5578C21.0131 38.9234 20.8133 36.6986 20.951 34.5037C24.309 34.6877 26.6481 37.9349 29.2303 39.5673C29.1753 40.3027 29.0674 40.9086 29.0645 41.6035C29.0645 41.7974 29.2221 41.955 29.4161 41.955C29.61 41.955 29.7676 41.7974 29.7676 41.6035C29.7676 41.058 29.8567 40.4802 29.9088 39.8867C30.4409 40.0695 30.8862 40.0695 31.4182 39.8867C31.4704 40.4797 31.56 41.058 31.5594 41.6035C31.5594 41.7974 31.7171 41.955 31.911 41.955C32.1049 41.955 32.2626 41.7974 32.2626 41.6035C32.2596 40.908 32.1512 40.3033 32.0967 39.5673C34.6796 37.9343 37.0174 34.6877 40.3766 34.5037C40.5143 36.6963 40.3145 38.9216 39.9706 41.5578C39.9161 42.0066 40.5981 42.1138 40.6678 41.6486C41.0352 38.8302 41.2421 36.4713 41.054 34.1047C40.911 32.3574 40.6204 31.0513 40.0421 29.4072C39.5505 28.308 38.9288 27.2591 38.4225 24.8334C37.901 22.2365 37.9878 19.5148 38.6803 16.7457C38.7028 16.6552 38.6885 16.5594 38.6405 16.4794C38.5925 16.3995 38.5147 16.3418 38.4243 16.3191C38.3338 16.2966 38.238 16.3109 38.158 16.3589C38.0781 16.4069 38.0204 16.4847 37.9977 16.5752C36.8036 20.4617 37.5055 26.3621 39.2317 29.3275C33.5182 31.4345 27.8094 31.4339 22.0954 29.3275C23.8245 26.3445 24.5223 20.4798 23.3288 16.5752C23.2819 16.3865 23.0909 16.2722 22.9028 16.3191C22.7147 16.366 22.5999 16.557 22.6467 16.7457C23.7975 20.5015 23.1319 26.1406 21.462 29.0228H21.4614ZM39.4942 29.9797C39.9366 31.2922 40.1821 32.4072 40.3204 33.8023C36.6313 34.022 34.2852 37.407 31.5694 39.0552C31.2266 39.2328 30.9284 39.3207 30.663 39.3201C30.3975 39.3201 30.0993 39.2328 29.7565 39.0552C27.0407 37.407 24.6952 34.0226 21.0055 33.8029C21.1444 32.4066 21.3887 31.2933 21.8317 29.9802C27.7139 32.1541 33.612 32.1547 39.4942 29.9802V29.9797Z" fill="white"/>
<path d="M25.8064 24.4516C25.8064 24.8237 25.8485 25.1946 25.9317 25.5538C26.046 26.0032 26.7134 25.8456 26.6167 25.395C25.7384 21.805 29.878 18.918 32.9384 20.9788L31.9733 21.1346C31.9278 21.142 31.8841 21.1583 31.8449 21.1826C31.8056 21.2068 31.7715 21.2386 31.7445 21.276C31.7175 21.3134 31.6982 21.3558 31.6876 21.4007C31.677 21.4457 31.6753 21.4922 31.6827 21.5378C31.7126 21.7305 31.8983 21.8606 32.0858 21.829L33.8325 21.5466C34.003 21.519 34.1278 21.3702 34.1278 21.1979C34.1278 21.1733 34.1255 21.1493 34.1202 21.1259L33.8413 19.3973C33.8103 19.2057 33.6292 19.0751 33.4382 19.1061C33.2466 19.1372 33.1159 19.3177 33.147 19.5093L33.2853 20.3653C30.1997 18.2718 25.7056 20.7052 25.8064 24.4528V24.4516ZM30.805 28.6774C29.9864 28.6774 29.2001 28.4395 28.528 27.9977L29.4931 27.8419C29.6847 27.8108 29.8153 27.6303 29.7843 27.4387C29.7532 27.2471 29.5733 27.1165 29.3812 27.1475L27.6345 27.4294C27.5308 27.4464 27.4347 27.5114 27.386 27.6057C27.345 27.6749 27.3339 27.7575 27.3439 27.8366L27.6251 29.5798C27.6384 29.6622 27.6806 29.7373 27.7441 29.7915C27.8077 29.8457 27.8884 29.8755 27.972 29.8757C28.1858 29.8774 28.3558 29.6794 28.3194 29.4678L28.1812 28.6118C31.7659 30.9731 36.5554 27.5993 35.5341 23.4221C35.4901 23.2329 35.3015 23.1151 35.1122 23.1591C34.923 23.203 34.8052 23.3917 34.8491 23.5809C34.9206 23.8903 34.9566 24.2068 34.9564 24.5243C34.9564 26.8141 33.0937 28.6774 30.8038 28.6774H30.805Z" fill="white"/>
</svg>
