<svg width="60" height="60" viewBox="0 0 60 60" fill="none" xmlns="http://www.w3.org/2000/svg">
<circle cx="30" cy="30" r="30" fill="#024739"/>
<path d="M17.6367 35.5584C17.6367 36.4168 18.099 37.2172 18.8426 37.6467L28.432 43.1833C29.1756 43.6127 30.0996 43.6127 30.8432 43.1833L40.4326 37.6467C41.1762 37.2172 41.6379 36.4168 41.6379 35.5584V24.4854C41.6379 23.627 41.1762 22.8266 40.4326 22.3971L30.8432 16.8612C30.099 16.4317 29.1756 16.4317 28.432 16.8612L18.8426 22.3977C18.099 22.8272 17.6367 23.627 17.6367 24.486V35.559V35.5584ZM18.3398 24.4854C18.3398 23.8772 18.6674 23.3106 19.1941 23.0065L28.7836 17.47C29.3104 17.1659 29.9648 17.1659 30.4916 17.47L40.0811 23.0065C40.6078 23.3106 40.9348 23.8778 40.9348 24.486V35.559C40.9348 36.1672 40.6078 36.7338 40.0811 37.0379L30.4916 42.5745C29.9643 42.8786 29.3098 42.8786 28.7836 42.5745L19.1941 37.0379C18.6674 36.7338 18.3398 36.1672 18.3398 35.559V24.486V24.4854Z" fill="white"/>
<path d="M23.4625 35.8377C24.6953 37.4567 25.3668 38.785 25.3047 39.4805C25.2713 39.7536 25.511 40.0137 25.7799 40.0049C25.8425 40.005 25.9045 39.9928 25.9623 39.9689C26.0201 39.9449 26.0726 39.9098 26.1168 39.8655L27.2647 38.7176C28.7442 37.319 25.3774 33.7407 24.1399 31.6325C25.992 32.5096 27.8336 34.8036 29.8498 34.9524C30.2055 34.9524 30.5301 34.8405 30.8008 34.5698L32.4069 32.9637C33.7926 31.4561 30.9948 28.8083 30.008 27.2163C31.3405 28.0735 33.1686 29.7862 34.4998 29.8114C34.8215 29.8114 35.1133 29.7059 35.3635 29.4557L36.969 27.8502C38.718 26.1762 33.3051 21.9323 34.2666 20.6409C34.586 20.3127 34.1055 19.8223 33.7692 20.144L32.1637 21.7489C31.2573 22.4813 32.503 24.6663 33.9239 26.4006C32.6828 25.6137 30.2436 23.2084 28.9059 24.4565C28.9053 24.4565 27.3022 26.0608 27.3016 26.0614C25.8631 27.5831 28.8186 30.31 29.7994 31.9659C27.9994 30.7735 24.8506 27.8368 23.4315 29.3198C23.4309 29.3198 21.8266 30.9252 21.826 30.9258C20.6324 32.1206 22.2684 34.2692 23.4631 35.8377H23.4625ZM26.7672 38.2208L25.9768 39.0112C25.9317 37.0577 21.0754 32.6854 22.3229 31.4227C22.3229 31.4227 23.0424 30.7032 23.0424 30.7026C23.2774 32.6461 27.8489 36.9985 26.7672 38.2208ZM32.6606 22.2469L33.5172 21.3909C33.6778 22.1122 34.2028 23.0549 35.0899 24.2122C35.776 25.1069 37.0533 26.7727 36.4715 27.3545C36.3332 27.4928 36.0631 27.6299 35.326 27.2772C34.5983 25.9295 31.9756 23.0081 32.6606 22.2475V22.2469ZM32.6453 26.3438C33.6959 27.0698 34.4746 27.7969 35.6729 28.1526L34.866 28.9594C33.9608 29.7932 30.6526 26.4915 29.3518 26.0174C29.1039 25.3629 29.2592 25.0975 29.4028 24.954C29.9688 24.3879 31.5157 25.5182 32.6448 26.3432L32.6453 26.3438ZM27.7985 26.5594L28.559 25.7989C28.8244 26.9327 29.5932 27.8584 30.3766 28.9237C31.4371 30.3194 32.5182 31.8592 31.9088 32.468C31.8297 32.5471 31.5989 32.7762 30.9192 32.5442C30.4024 30.9956 26.841 27.7524 27.7985 26.56V26.5594ZM25.5426 29.9274C27.4744 30.8051 29.0465 32.7961 31.0662 33.3106L30.3033 34.0735C29.0957 35.0819 25.3821 31.0131 23.7584 30.6997C23.5276 29.5155 24.4662 29.3995 25.5426 29.928V29.9274Z" fill="white"/>
</svg>
