<svg width="60" height="60" viewBox="0 0 60 60" fill="none" xmlns="http://www.w3.org/2000/svg">
<circle cx="30" cy="30" r="30" fill="#00483A"/>
<circle cx="30" cy="30" r="30" fill="#024739"/>
<path d="M32.424 37.6719C32.6437 37.6719 32.8213 37.8494 32.8213 38.0691C32.8213 38.2889 32.6437 38.4658 32.424 38.4658C32.2043 38.4658 32.0273 38.2883 32.0273 38.0691C32.0273 37.85 32.2049 37.6719 32.424 37.6719Z" fill="white"/>
<path d="M32.4223 37.6721C32.642 37.6721 32.8196 37.8496 32.8196 38.0693C32.8196 38.2891 32.642 38.466 32.4223 38.466C32.2026 38.466 32.0256 38.2885 32.0256 38.0693C32.0256 37.8502 32.2031 37.6721 32.4223 37.6721ZM30.3024 29.3576C29.9824 29.2182 28.7373 31.5244 28.7742 32.0752C28.7742 32.9178 29.4598 33.6033 30.3024 33.6033C31.1449 33.6033 31.8311 32.9178 31.8311 32.0752C31.8311 31.3527 30.7992 29.8117 30.5924 29.5106C30.5601 29.4635 30.5168 29.4249 30.4663 29.3983C30.4157 29.3716 30.3595 29.3577 30.3024 29.3576ZM30.3024 32.9002C29.8477 32.9002 29.4774 32.5299 29.4774 32.0752C29.4774 31.7764 29.8975 30.9965 30.3024 30.3508C30.7078 30.9965 31.128 31.7764 31.128 32.0752C31.128 32.5299 30.7576 32.9002 30.3024 32.9002Z" fill="white"/>
<path d="M38.5159 32.4416C37.1876 31.6195 35.9014 31.4326 34.8801 31.9113V27.2221C34.9065 26.1439 34.2204 25.3418 33.5061 24.5736C32.8352 23.8266 32.0752 22.9799 32.0752 22.2234V16.1367C32.0752 15.9428 31.9176 15.7852 31.7237 15.7852H28.8954C28.7014 15.7852 28.5438 15.9428 28.5438 16.1367V22.2229C28.5297 23.3086 27.035 24.5262 26.3389 25.4754C25.9417 25.9986 25.7319 26.6021 25.7319 27.2215V35.192C24.7786 35.4674 24.0579 35.4311 23.4795 35.0807C23.251 34.9318 22.9247 35.1258 22.9463 35.3977C22.9639 35.7785 22.9903 36.1295 23.0184 36.467C22.085 36.0094 20.8768 34.8721 20.295 33.7904C20.7497 33.3193 21.1264 32.7205 21.3924 32.0414C21.717 31.2141 21.8893 30.2496 21.9045 29.1762C21.9056 29.0925 21.8769 29.0112 21.8236 28.9468C21.7702 28.8824 21.6957 28.8391 21.6133 28.8246C21.5308 28.8103 21.446 28.8259 21.374 28.8687C21.302 28.9115 21.2477 28.9785 21.2208 29.0578C21.0292 29.6197 20.1391 30.3445 19.4565 30.3445C18.7739 30.3445 17.8844 29.6197 17.6922 29.0578C17.636 28.8943 17.4696 28.7953 17.2991 28.8252C17.1286 28.8551 17.0049 29.0039 17.0079 29.1768C17.0301 31.1566 17.6307 33.1002 19.1272 34.2398C19.6709 37.0857 21.3514 40.0951 23.4461 41.7527C22.6598 41.9531 21.9409 41.925 20.9987 41.8477C20.8639 41.8365 20.7344 41.9027 20.6659 42.0193C20.5973 42.1359 20.6014 42.2813 20.6764 42.3938C21.9461 44.2881 24.8038 44.3238 26.6788 43.1027C29.5235 43.7719 32.6102 42.8514 34.6305 40.7449C35.9243 42.457 38.101 43.0875 39.9895 42.0955C44.1819 39.8684 41.7942 34.377 38.517 32.441L38.5159 32.4416ZM33.0075 36.0873C32.1069 35.6848 31.2432 35.5154 30.4071 35.5881C30.1346 35.1182 29.8721 34.3002 29.3518 34.0465C28.9323 33.8572 28.5221 34.0465 28.2086 34.1813C27.6268 34.4338 27.0315 34.7215 26.4356 34.9518V27.8191C26.9553 27.9504 27.5512 27.8695 27.9743 27.5725C28.2995 27.3334 28.9346 27.3334 29.2598 27.5725C29.82 27.9809 30.7926 27.9809 31.3528 27.5725C31.678 27.3334 32.3126 27.3334 32.6377 27.5725C33.0415 27.8637 33.6725 27.9551 34.177 27.8191V32.3912C33.3614 33.1629 32.9407 34.5035 33.0075 36.0873ZM31.3721 16.4889V17.26H29.2469V16.4889H31.3721ZM27.6333 25.04C28.3897 24.1986 29.2469 23.2447 29.2469 22.2234V17.9625H31.3721V22.2229C31.3762 23.6068 32.8903 24.8133 33.7153 25.9031C33.9872 26.2547 34.1436 26.659 34.1723 27.0809C33.8418 27.232 33.3251 27.2021 33.0415 26.9959C32.4813 26.5875 31.5098 26.5875 30.9491 26.9959C30.6239 27.235 29.9887 27.235 29.6635 26.9959C29.3799 26.7967 29.0079 26.6871 28.617 26.6871C28.2262 26.6871 27.8547 26.7967 27.5711 26.9959C27.2758 27.2027 26.7895 27.2309 26.4415 27.0809C26.4848 26.25 27.0772 25.6629 27.6338 25.0395L27.6333 25.04ZM26.1866 35.7879C26.9752 35.5295 27.7358 35.1527 28.4881 34.8258C28.685 34.7402 28.9352 34.6266 29.0588 34.6852C29.3295 34.9107 29.4883 35.3824 29.6741 35.6936C28.7887 35.8758 27.9028 36.0539 27.0368 36.3123C25.9622 36.5994 24.9133 36.9592 23.7456 36.726C23.7239 36.4717 23.7016 36.2127 23.6829 35.9414C24.5887 36.2332 25.5192 36.007 26.1866 35.7879ZM18.1751 31.7848C18.004 31.3482 17.8792 30.866 17.8024 30.3439C18.8313 31.2639 20.0823 31.2633 21.1106 30.3439C20.9612 31.3711 20.6026 32.3514 19.9627 33.109C19.8251 32.7826 19.7084 32.441 19.6159 32.0877C19.5145 31.6893 18.9081 31.7772 18.9245 32.1885C18.935 32.5213 18.9549 32.8389 18.9825 33.1453C18.6549 32.7662 18.3784 32.3033 18.1751 31.7854V31.7848ZM24.584 43.1777C23.5815 43.3664 22.5549 43.1355 21.8407 42.6041C22.6088 42.6311 23.4889 42.5484 24.2108 42.2314C24.6303 42.457 25.1559 42.6721 25.6704 42.8338C25.3077 42.9949 24.9479 43.1086 24.5846 43.1771L24.584 43.1777ZM31.6375 41.9754C30.7223 41.4938 30.1153 40.343 30.2618 39.2883C30.287 39.0955 30.1516 38.9191 29.9588 38.8939C29.3348 38.8359 29.5551 39.9527 29.6208 40.3348C29.7954 41.107 30.2331 41.8002 30.8284 42.2777C28.7459 42.9416 26.3084 42.5654 24.3995 41.533C22.2374 40.2703 20.4573 37.0066 19.8877 34.4813C20.7145 35.7539 22.078 36.9627 23.3143 37.3406C25.3006 37.8691 26.8657 36.9557 28.6868 36.6193C29.2956 36.5016 29.8973 36.3311 30.5049 36.2842C31.7131 36.1582 33.2459 36.8461 34.3135 37.6963C34.6778 37.9772 35.0221 38.2831 35.3442 38.6115C34.5333 40.1004 33.1938 41.2945 31.637 41.9754H31.6375ZM39.6684 41.4697C38.0559 42.2953 36.2911 41.799 35.1081 40.2117C35.4918 39.7453 35.8211 39.2402 36.0877 38.7082C36.1534 38.577 36.1305 38.4182 36.0303 38.3109C35.36 37.5943 34.5743 36.948 33.7381 36.4623C33.3895 33.273 35.2399 31.2064 38.1461 33.0393C40.8409 34.6365 43.3903 39.4313 39.6684 41.4697Z" fill="white"/>
<path d="M39.9038 36.23C39.2727 36.5552 40.563 37.4604 40.1358 39.029C40.0175 39.4737 40.6772 39.6647 40.8126 39.22C41.0493 38.3827 40.8987 37.4013 40.3772 36.3829C40.3562 36.3418 40.3273 36.3052 40.2922 36.2753C40.2571 36.2454 40.2164 36.2227 40.1725 36.2085C40.1286 36.1942 40.0823 36.1888 40.0363 36.1925C39.9903 36.1962 39.9455 36.2089 39.9044 36.23H39.9038Z" fill="white"/>
</svg>
