<svg width="36" height="37" viewBox="0 0 36 37" fill="none" xmlns="http://www.w3.org/2000/svg">
<path d="M18.0083 8.33984C15.4555 8.33984 13.0284 9.57017 11.5161 11.6309C11.4408 11.733 11.3954 11.8542 11.3851 11.9807C11.3748 12.1072 11.3999 12.2341 11.4577 12.3471C11.5148 12.4607 11.6025 12.5561 11.7108 12.6226C11.8191 12.6892 11.9438 12.7242 12.0709 12.7239H12.0717L23.9352 12.7086C24.0624 12.7088 24.1872 12.6735 24.2955 12.6067C24.4039 12.5399 24.4914 12.4442 24.5483 12.3304C24.6059 12.2172 24.6307 12.0902 24.6201 11.9637C24.6094 11.8372 24.5637 11.7162 24.4881 11.6142C22.9755 9.56398 20.5531 8.33984 18.0083 8.33984ZM12.8429 11.6707C14.1606 10.2322 16.0415 9.39207 18.0083 9.39207C19.9681 9.39207 21.8444 10.2273 23.1614 11.6574L12.8429 11.6707ZM11.4577 23.9211C11.3999 24.0341 11.3748 24.161 11.3851 24.2875C11.3954 24.4141 11.4408 24.5352 11.5161 24.6374C13.0284 26.6981 15.4554 27.9283 18.0083 27.9283C20.5531 27.9283 22.9755 26.7043 24.4881 24.654C24.5637 24.552 24.6094 24.431 24.6201 24.3045C24.6307 24.1779 24.6059 24.0509 24.5483 23.9378C24.4914 23.8239 24.4039 23.7283 24.2956 23.6615C24.1873 23.5946 24.0625 23.5594 23.9353 23.5595L12.0717 23.5442H12.0709C11.9438 23.5439 11.8191 23.579 11.7108 23.6456C11.6025 23.7121 11.5148 23.8075 11.4577 23.9211ZM23.1614 24.6109C21.8445 26.0409 19.9681 26.8762 18.0083 26.8762C16.0415 26.8762 14.1605 26.036 12.8428 24.5976L23.1614 24.6109Z" fill="#2B675B"/>
<path d="M34.7941 13.7598H32.615C32.6313 13.6764 32.658 13.5954 32.6945 13.5187C33.2705 12.3089 33.2149 10.8948 32.5458 9.73594C32.2159 9.16487 31.7521 8.68257 31.1943 8.33063C30.6366 7.97869 30.0016 7.76766 29.3441 7.71573C29.1046 7.69761 28.8795 7.59424 28.7096 7.42436C28.5397 7.25448 28.4363 7.02934 28.4182 6.78978C28.3662 6.13234 28.1552 5.4974 27.8033 4.93965C27.4513 4.38191 26.9691 3.91809 26.3981 3.58817C25.8268 3.25855 25.184 3.07278 24.525 3.04687C23.866 3.02097 23.2106 3.1557 22.6153 3.43946C22.3988 3.54352 22.1521 3.56655 21.92 3.50436C21.6879 3.44217 21.4858 3.29889 21.3503 3.10048C20.5906 1.99679 19.3381 1.33789 18 1.33789C16.6619 1.33789 15.4094 1.99672 14.6497 3.10041C14.5142 3.29883 14.3121 3.44212 14.08 3.50431C13.8479 3.5665 13.6012 3.54347 13.3847 3.43939C12.7894 3.15563 12.1339 3.0209 11.475 3.0468C10.816 3.07271 10.1732 3.25848 9.60195 3.5881C9.0309 3.91801 8.54863 4.38182 8.1967 4.93956C7.84478 5.49731 7.63375 6.13227 7.5818 6.78971C7.56368 7.02927 7.46031 7.25441 7.29043 7.42429C7.12055 7.59417 6.89541 7.69754 6.65585 7.71566C5.3202 7.82176 4.12327 8.57698 3.45424 9.73588C2.78508 10.8947 2.72953 12.3088 3.30553 13.5186C3.34174 13.5954 3.3682 13.6764 3.38428 13.7597H1.20593C0.540984 13.7598 0 14.3008 0 14.9657V21.3021C0 21.9671 0.540984 22.5081 1.20593 22.5081H3.38463C3.36846 22.5914 3.34188 22.6724 3.30553 22.7492C2.72953 23.959 2.78508 25.3731 3.45424 26.5319C3.78412 27.103 4.24792 27.5853 4.80567 27.9372C5.36342 28.2892 5.99839 28.5002 6.65585 28.5521C6.89541 28.5703 7.12055 28.6736 7.29043 28.8435C7.46031 29.0134 7.56368 29.2385 7.5818 29.4781C7.63377 30.1355 7.84481 30.7705 8.19673 31.3282C8.54866 31.886 9.03091 32.3498 9.60195 32.6797C10.1732 33.0093 10.816 33.195 11.475 33.2209C12.1339 33.2469 12.7893 33.1121 13.3847 32.8284C13.6012 32.7243 13.8479 32.7013 14.08 32.7635C14.3121 32.8257 14.5142 32.969 14.6497 33.1674C15.4094 34.2711 16.6618 34.9299 18 34.9299C19.3382 34.9299 20.5906 34.271 21.3503 33.1674C21.4859 32.969 21.688 32.8258 21.92 32.7636C22.1521 32.7014 22.3988 32.7244 22.6153 32.8284C23.2106 33.1122 23.866 33.2469 24.525 33.221C25.184 33.1951 25.8268 33.0093 26.3981 32.6797C26.9691 32.3498 27.4514 31.886 27.8033 31.3282C28.1552 30.7705 28.3663 30.1355 28.4182 29.4781C28.4363 29.2385 28.5397 29.0134 28.7096 28.8435C28.8795 28.6736 29.1046 28.5703 29.3441 28.5521C30.6798 28.446 31.8767 27.6908 32.5458 26.5319C33.2149 25.3731 33.2705 23.959 32.6945 22.7492C32.6582 22.6724 32.6317 22.5914 32.6156 22.5081H34.794C35.4589 22.5081 35.9999 21.9671 35.9999 21.3021V14.9657C36 14.3008 35.459 13.7598 34.7941 13.7598ZM4.36549 10.262C4.61009 9.83868 4.95397 9.48116 5.36749 9.22029C5.781 8.95942 6.25176 8.80302 6.73917 8.76458C7.75462 8.68393 8.55014 7.88841 8.63079 6.87296C8.66926 6.38556 8.82566 5.91483 9.08652 5.50132C9.34737 5.0878 9.70485 4.74391 10.1282 4.49928C10.5517 4.255 11.0282 4.11735 11.5168 4.0982C12.0053 4.07904 12.4912 4.17895 12.9325 4.38931C13.8525 4.82736 14.939 4.53598 15.5165 3.69702C16.0798 2.87858 17.0083 2.39005 18.0001 2.39005C18.9918 2.39005 19.9203 2.87865 20.4836 3.69702C21.0612 4.53598 22.148 4.82729 23.0676 4.38931C23.509 4.17893 23.9948 4.07901 24.4834 4.09817C24.9719 4.11733 25.4485 4.25498 25.872 4.49928C26.2953 4.74391 26.6528 5.0878 26.9136 5.50132C27.1745 5.91483 27.3309 6.38556 27.3694 6.87296C27.4499 7.88841 28.2455 8.68393 29.261 8.76458C29.7484 8.80303 30.2191 8.95943 30.6327 9.2203C31.0462 9.48117 31.39 9.83868 31.6346 10.262C32.1306 11.1209 32.1716 12.1692 31.7446 13.0664C31.6407 13.2845 31.5758 13.5192 31.5529 13.7598H29.2696C28.5859 11.9994 27.493 10.4026 26.0561 9.11797C26.0047 9.07148 25.9446 9.03561 25.8793 9.01243C25.8139 8.98925 25.7446 8.97922 25.6754 8.9829C25.6062 8.98658 25.5384 9.00391 25.4759 9.03388C25.4134 9.06386 25.3574 9.1059 25.3112 9.15758C25.265 9.20926 25.2294 9.26956 25.2066 9.33502C25.1838 9.40049 25.1741 9.46981 25.1782 9.53902C25.1822 9.60822 25.1999 9.67595 25.2302 9.73829C25.2606 9.80064 25.3029 9.85638 25.3548 9.9023C26.5622 10.9818 27.5025 12.3032 28.1315 13.7598H7.86635C9.56355 9.84289 13.4666 7.09543 18 7.09543C19.9195 7.09543 21.8097 7.59549 23.4663 8.54169C23.5875 8.61089 23.7311 8.62913 23.8658 8.59239C24.0004 8.55566 24.1149 8.46695 24.1841 8.3458C24.2533 8.22464 24.2715 8.08096 24.2348 7.94635C24.198 7.81175 24.1093 7.69725 23.9882 7.62805C22.1729 6.59129 20.1023 6.0432 18 6.0432C12.875 6.0432 8.4851 9.24861 6.72841 13.7598H4.44748C4.42443 13.5192 4.35947 13.2845 4.25552 13.0664C4.04511 12.625 3.94518 12.1392 3.96433 11.6506C3.98349 11.1621 4.12117 10.6855 4.36549 10.262ZM31.6345 26.0058C31.3899 26.4292 31.046 26.7867 30.6325 27.0476C30.219 27.3084 29.7482 27.4648 29.2608 27.5033C28.2454 27.5839 27.4499 28.3794 27.3692 29.3949C27.3307 29.8823 27.1743 30.353 26.9135 30.7665C26.6526 31.1801 26.2951 31.5239 25.8718 31.7686C25.4483 32.0128 24.9718 32.1505 24.4832 32.1696C23.9947 32.1888 23.5088 32.0889 23.0675 31.8785C22.1477 31.4407 21.0611 31.7319 20.4835 32.5708C19.9202 33.3893 18.9917 33.8778 17.9999 33.8778C17.0082 33.8778 16.0797 33.3893 15.5164 32.5708C15.1192 31.994 14.4814 31.6761 13.8227 31.6761C13.5233 31.6761 13.2197 31.7417 12.9324 31.8785C12.491 32.0889 12.0052 32.1889 11.5166 32.1697C11.0281 32.1506 10.5515 32.0129 10.128 31.7686C9.70471 31.5239 9.34723 31.1801 9.08638 30.7665C8.82552 30.353 8.66912 29.8823 8.63065 29.3949C8.55007 28.3794 7.75448 27.5839 6.73903 27.5033C6.25162 27.4648 5.78087 27.3084 5.36735 27.0476C4.95383 26.7867 4.60995 26.4292 4.36535 26.0058C3.86937 25.147 3.82838 24.0986 4.25538 23.2015C4.3594 22.9833 4.42444 22.7487 4.44755 22.5081H6.72898C8.48588 27.019 12.8751 30.2246 18 30.2246C23.125 30.2246 27.5148 27.0191 29.2714 22.5081H31.5521C31.5753 22.7487 31.6404 22.9833 31.7445 23.2015C31.9549 23.6428 32.0548 24.1287 32.0357 24.6172C32.0165 25.1058 31.8788 25.5823 31.6345 26.0058ZM34.9478 21.3021C34.9477 21.3429 34.9315 21.382 34.9027 21.4108C34.8739 21.4396 34.8348 21.4558 34.7941 21.4558H12.2771C12.1375 21.4558 12.0037 21.5113 11.9051 21.6099C11.8064 21.7086 11.751 21.8424 11.751 21.9819C11.751 22.1214 11.8064 22.2553 11.9051 22.3539C12.0037 22.4526 12.1375 22.508 12.2771 22.508H28.1333C26.4361 26.4249 22.5333 29.1724 18 29.1724C13.4665 29.1724 9.5632 26.425 7.86607 22.5081H9.80944C9.94896 22.5081 10.0828 22.4526 10.1814 22.354C10.2801 22.2553 10.3355 22.1215 10.3355 21.982C10.3355 21.8425 10.2801 21.7087 10.1814 21.61C10.0828 21.5113 9.94896 21.4559 9.80944 21.4559H1.20593C1.16518 21.4559 1.12612 21.4396 1.09731 21.4108C1.06849 21.382 1.05228 21.343 1.05223 21.3022V14.9658C1.05223 14.8811 1.1212 14.8121 1.20593 14.8121H34.7941C34.8788 14.8121 34.9478 14.8811 34.9478 14.9658V21.3021Z" fill="#2B675B"/>
<path d="M19.7129 15.5294C19.5734 15.5294 19.4396 15.5848 19.3409 15.6835C19.2422 15.7821 19.1868 15.9159 19.1868 16.0554V20.213C19.1868 20.3526 19.2422 20.4864 19.3409 20.585C19.4396 20.6837 19.5734 20.7391 19.7129 20.7391C19.8524 20.7391 19.9862 20.6837 20.0849 20.585C20.1836 20.4864 20.239 20.3526 20.239 20.213V16.0554C20.239 15.9864 20.2254 15.918 20.1989 15.8541C20.1725 15.7903 20.1337 15.7323 20.0849 15.6835C20.036 15.6346 19.978 15.5959 19.9142 15.5694C19.8504 15.543 19.782 15.5294 19.7129 15.5294ZM25.1732 15.5294C25.0337 15.5294 24.8999 15.5848 24.8012 15.6835C24.7026 15.7821 24.6471 15.9159 24.6471 16.0554V20.213C24.6471 20.3526 24.7026 20.4864 24.8012 20.585C24.8999 20.6837 25.0337 20.7391 25.1732 20.7391C25.3128 20.7391 25.4466 20.6837 25.5452 20.585C25.6439 20.4864 25.6993 20.3526 25.6993 20.213V16.0554C25.6993 15.9864 25.6857 15.9179 25.6593 15.8541C25.6329 15.7903 25.5941 15.7323 25.5453 15.6834C25.4964 15.6346 25.4384 15.5958 25.3746 15.5694C25.3107 15.5429 25.2423 15.5294 25.1732 15.5294ZM23.372 16.612C23.5116 16.612 23.6454 16.5566 23.744 16.458C23.8427 16.3593 23.8981 16.2255 23.8981 16.086C23.8981 15.9464 23.8427 15.8126 23.744 15.714C23.6454 15.6153 23.5116 15.5599 23.372 15.5599H21.6994C21.6303 15.5599 21.5619 15.5735 21.498 15.5999C21.4342 15.6263 21.3762 15.6651 21.3274 15.714C21.2785 15.7628 21.2397 15.8208 21.2133 15.8846C21.1869 15.9485 21.1733 16.0169 21.1733 16.086V20.213C21.1733 20.5036 21.4088 20.7391 21.6994 20.7391C21.99 20.7391 22.2254 20.5036 22.2254 20.213V18.6365H23.2391C23.5297 18.6365 23.7652 18.401 23.7652 18.1104C23.7652 17.8198 23.5297 17.5843 23.2391 17.5843H22.2254V16.6121H23.372V16.612ZM9.81191 16.6195C9.95144 16.6195 10.0852 16.5641 10.1839 16.4654C10.2826 16.3668 10.338 16.2329 10.338 16.0934C10.338 15.9539 10.2826 15.8201 10.1839 15.7214C10.0852 15.6228 9.95144 15.5673 9.81191 15.5673H8.07604C8.00695 15.5673 7.93854 15.5809 7.87471 15.6074C7.81088 15.6338 7.75288 15.6726 7.70402 15.7214C7.65517 15.7703 7.61642 15.8283 7.58999 15.8921C7.56355 15.9559 7.54995 16.0243 7.54996 16.0934V20.213C7.54996 20.2821 7.56357 20.3505 7.59001 20.4143C7.61644 20.4782 7.65519 20.5362 7.70405 20.585C7.7529 20.6339 7.81089 20.6726 7.87472 20.6991C7.93854 20.7255 8.00695 20.7391 8.07604 20.7391H9.81191C9.881 20.7391 9.94941 20.7255 10.0132 20.6991C10.0771 20.6726 10.1351 20.6339 10.1839 20.585C10.2328 20.5362 10.2715 20.4782 10.2979 20.4143C10.3244 20.3505 10.338 20.2821 10.338 20.213C10.338 20.0735 10.2826 19.9397 10.1839 19.841C10.0852 19.7424 9.95144 19.6869 9.81191 19.6869H8.60219V18.6794H9.68395C9.75304 18.6794 9.82146 18.6658 9.88529 18.6393C9.94913 18.6129 10.0071 18.5741 10.056 18.5253C10.1048 18.4764 10.1436 18.4184 10.17 18.3546C10.1964 18.2907 10.21 18.2223 10.21 18.1532C10.21 18.0137 10.1546 17.8799 10.0559 17.7812C9.95728 17.6826 9.82347 17.6271 9.68395 17.6271H8.60219V16.6195H9.81191ZM28.7103 16.6195C28.8498 16.6195 28.9836 16.5641 29.0823 16.4654C29.1809 16.3668 29.2364 16.2329 29.2364 16.0934C29.2364 15.9539 29.1809 15.8201 29.0823 15.7214C28.9836 15.6228 28.8498 15.5673 28.7103 15.5673H26.9745C26.9054 15.5673 26.837 15.5809 26.7732 15.6074C26.7093 15.6338 26.6513 15.6726 26.6025 15.7214C26.5536 15.7703 26.5149 15.8283 26.4884 15.8921C26.462 15.9559 26.4484 16.0243 26.4484 16.0934V20.213C26.4484 20.2821 26.462 20.3505 26.4885 20.4143C26.5149 20.4782 26.5536 20.5362 26.6025 20.585C26.6514 20.6339 26.7093 20.6726 26.7732 20.6991C26.837 20.7255 26.9054 20.7391 26.9745 20.7391H28.7103C28.8498 20.7391 28.9836 20.6837 29.0823 20.585C29.1809 20.4864 29.2364 20.3526 29.2364 20.213C29.2364 20.0735 29.1809 19.9397 29.0823 19.841C28.9836 19.7424 28.8498 19.6869 28.7103 19.6869H27.5006V18.6794H28.5823C28.6514 18.6794 28.7198 18.6658 28.7837 18.6393C28.8475 18.6129 28.9055 18.5741 28.9544 18.5253C29.0032 18.4764 29.042 18.4184 29.0684 18.3546C29.0948 18.2907 29.1084 18.2223 29.1084 18.1532C29.1084 18.0137 29.053 17.8799 28.9543 17.7812C28.8557 17.6826 28.7219 17.6271 28.5823 17.6271H27.5006V16.6195H28.7103ZM31.6543 15.6523H30.5116C30.4424 15.6523 30.3739 15.666 30.31 15.6925C30.2461 15.719 30.1881 15.7578 30.1392 15.8068C30.0903 15.8558 30.0516 15.9139 30.0252 15.9778C29.9988 16.0418 29.9853 16.1103 29.9855 16.1795V16.1826C29.9855 16.1826 29.9891 20.2163 29.9955 20.2492C30.0042 20.3766 30.0588 20.4964 30.1492 20.5864C30.2478 20.6842 30.381 20.7391 30.5199 20.7391H30.5218C30.5564 20.739 31.3712 20.7358 31.697 20.7301C32.9212 20.7087 33.8097 19.6428 33.8097 18.1957C33.8096 16.6745 32.9435 15.6523 31.6543 15.6523ZM31.6785 19.6781C31.5324 19.6806 31.2778 19.6827 31.0441 19.6842C31.0424 19.1866 31.0412 18.689 31.0406 18.1913C31.0406 17.9057 31.0394 17.1997 31.0386 16.7046H31.6543C32.6779 16.7046 32.7574 17.846 32.7574 18.1958C32.7574 19.2067 32.2155 19.6687 31.6785 19.6781ZM6.44781 19.223C6.39486 19.1786 6.33369 19.145 6.26778 19.1243C6.20187 19.1035 6.13253 19.096 6.0637 19.102C5.99487 19.1081 5.9279 19.1276 5.86663 19.1596C5.80535 19.1915 5.75097 19.2352 5.70658 19.2881C5.67105 19.3306 5.63246 19.3705 5.59113 19.4073C5.38286 19.5928 5.11673 19.6869 4.80018 19.6869C3.94398 19.6869 3.24754 18.9904 3.24754 18.1342C3.24754 17.2781 3.94398 16.5815 4.80018 16.5815C5.11131 16.5815 5.41141 16.6731 5.66791 16.8465C5.78355 16.9229 5.9247 16.9506 6.06068 16.9236C6.19665 16.8966 6.31646 16.817 6.39406 16.7021C6.47166 16.5872 6.50079 16.4463 6.47511 16.3101C6.44943 16.1739 6.37102 16.0533 6.25691 15.9745C5.82689 15.6836 5.31939 15.5285 4.80018 15.5293C3.36384 15.5293 2.19531 16.6978 2.19531 18.1342C2.19531 19.5706 3.36384 20.7391 4.80018 20.7391C5.37442 20.7391 5.88995 20.5503 6.29095 20.1931C6.37039 20.1222 6.4446 20.0457 6.51299 19.9641C6.6026 19.8572 6.64608 19.719 6.63386 19.58C6.62163 19.4411 6.55471 19.3126 6.44781 19.223ZM17.8825 15.5294H15.5865C15.447 15.5294 15.3132 15.5848 15.2145 15.6835C15.1159 15.7821 15.0605 15.9159 15.0605 16.0554C15.0605 16.195 15.1159 16.3288 15.2145 16.4274C15.3132 16.5261 15.447 16.5815 15.5865 16.5815H16.2037V20.213C16.2037 20.3525 16.2592 20.4863 16.3578 20.585C16.4565 20.6836 16.5903 20.739 16.7298 20.739C16.8693 20.739 17.0032 20.6836 17.1018 20.585C17.2005 20.4863 17.2559 20.3525 17.2559 20.213V16.5815H17.8825C18.1731 16.5815 18.4085 16.346 18.4085 16.0554C18.4085 15.7649 18.1731 15.5294 17.8825 15.5294ZM14.5521 17.1359C14.5521 16.2501 13.8039 15.5293 12.8843 15.5293H11.7781C11.709 15.5293 11.6406 15.5429 11.5768 15.5693C11.513 15.5958 11.455 15.6345 11.4061 15.6834C11.3572 15.7322 11.3185 15.7902 11.292 15.854C11.2656 15.9179 11.252 15.9863 11.252 16.0554V20.213C11.252 20.5036 11.4875 20.739 11.7781 20.739C12.0687 20.739 12.3042 20.5035 12.3042 20.213V19.0531L13.631 20.5606C13.6803 20.6168 13.7411 20.6618 13.8093 20.6926C13.8774 20.7234 13.9514 20.7392 14.0262 20.7391C14.1274 20.7391 14.2264 20.7098 14.3114 20.655C14.3964 20.6001 14.4637 20.5218 14.5054 20.4296C14.5471 20.3374 14.5612 20.2351 14.5462 20.135C14.5312 20.035 14.4877 19.9414 14.4208 19.8654L13.371 18.6726C14.0539 18.4715 14.5521 17.8588 14.5521 17.1359ZM12.8843 17.6904C12.75 17.6904 12.5232 17.6913 12.3103 17.6923C12.3092 17.4848 12.3078 16.7991 12.3072 16.5815H12.8843C13.218 16.5815 13.4999 16.8354 13.4999 17.1359C13.4999 17.4365 13.218 17.6904 12.8843 17.6904Z" fill="#2B675B"/>
</svg>
