<svg width="36" height="37" viewBox="0 0 36 37" fill="none" xmlns="http://www.w3.org/2000/svg">
<path d="M33.1238 24.2396C32.3096 24.8067 31.3741 25.1753 30.3919 25.3159C29.4098 25.4566 28.4084 25.3654 27.4678 25.0496C27.3826 25.0192 27.2913 25.0099 27.2017 25.0223C27.1121 25.0347 27.0268 25.0686 26.9531 25.121L24.4219 26.916L25.0733 27.8334L27.3699 26.2021C28.4434 26.5157 29.5732 26.5859 30.6772 26.4075C31.7812 26.2291 32.8314 25.8067 33.7515 25.1711C34.083 24.9471 34.3972 24.6985 34.6914 24.4275L33.9287 23.6006C33.6769 23.8336 33.4078 24.0473 33.1238 24.2396Z" fill="#2B675B"/>
<path d="M27.4575 15.8447C26.6524 16.3591 26.0074 17.0887 25.5958 17.9509C25.1841 18.813 25.0221 19.7732 25.1281 20.7227L17.9973 25.2936L10.8654 20.7255C10.9738 19.7757 10.8126 18.8146 10.4002 17.9521C9.98789 17.0897 9.34109 16.3607 8.53384 15.8486C7.46227 15.1101 6.15923 14.7851 4.86634 14.934C4.25648 14.9937 3.66732 15.1873 3.14093 15.501C2.61455 15.8147 2.16391 16.2408 1.82121 16.7488C1.47851 17.2568 1.25219 17.8341 1.15841 18.4397C1.06463 19.0453 1.10571 19.664 1.27871 20.2519C1.62528 21.5058 2.41493 22.5915 3.50115 23.3074C4.2789 23.8649 5.19805 24.1919 6.15317 24.2509C7.10829 24.3099 8.06069 24.0985 8.90115 23.641L14.4367 27.5711L9.1689 30.949C8.9199 31.1072 8.70519 31.3138 8.53749 31.5565C8.36979 31.7992 8.25252 32.0731 8.19261 32.3619C8.13271 32.6508 8.1314 32.9488 8.18876 33.2381C8.24611 33.5275 8.36097 33.8025 8.52652 34.0466C8.69144 34.2903 8.90338 34.4985 9.1499 34.6591C9.39642 34.8198 9.67254 34.9295 9.96206 34.9819C10.2516 35.0343 10.5486 35.0283 10.8358 34.9643C11.123 34.9003 11.3945 34.7795 11.6343 34.6091L17.9973 30.0968L24.3603 34.6125C24.6005 34.7882 24.8736 34.9136 25.1633 34.9812C25.4531 35.0487 25.7535 35.0572 26.0465 35.0059C26.3396 34.9546 26.6193 34.8447 26.8689 34.6828C27.1184 34.5208 27.3328 34.3101 27.499 34.0634C27.6652 33.8166 27.7799 33.5389 27.8362 33.2467C27.8925 32.9546 27.8893 32.6541 27.8267 32.3632C27.7641 32.0724 27.6434 31.7971 27.4719 31.554C27.3004 31.3109 27.0816 31.1049 26.8286 30.9484L21.5546 27.5734L27.0941 23.6415C27.9344 24.0992 28.8868 24.3108 29.8419 24.252C30.797 24.1932 31.7162 23.8664 32.4941 23.3091C34.806 21.7487 35.5608 18.8046 34.1754 16.7458C32.79 14.6871 29.7744 14.2843 27.4575 15.8447ZM10.983 33.694C10.7426 33.8557 10.4486 33.9172 10.1636 33.8651C9.87854 33.8131 9.62515 33.6518 9.45746 33.4155C9.37629 33.2958 9.31999 33.1609 9.29189 33.019C9.2638 32.8771 9.26449 32.731 9.29392 32.5894C9.32335 32.4477 9.38092 32.3134 9.46322 32.1945C9.54552 32.0755 9.65087 31.9743 9.77302 31.8968L15.4256 28.272L17.0225 29.4049L10.983 33.694ZM26.6992 32.5898C26.7433 32.8032 26.7221 33.0249 26.6384 33.2262C26.5547 33.4274 26.4124 33.5988 26.23 33.718C26.0476 33.8372 25.8335 33.8988 25.6156 33.8947C25.3978 33.8906 25.1861 33.8211 25.0083 33.6951L9.2364 22.5013C9.14023 22.4331 9.02506 22.3969 8.90717 22.3977C8.78928 22.3985 8.67462 22.4363 8.5794 22.5058C7.91303 22.9407 7.12954 23.1613 6.33416 23.1378C5.53879 23.1144 4.76963 22.8481 4.13002 22.3748C3.26945 21.8103 2.64273 20.9529 2.36602 19.9616C2.23362 19.5286 2.1997 19.0715 2.26676 18.6236C2.33382 18.1758 2.50015 17.7487 2.75359 17.3734C3.00703 16.9982 3.34116 16.6843 3.73153 16.4549C4.1219 16.2254 4.55863 16.0861 5.00977 16.0472C6.03242 15.9324 7.06201 16.1922 7.90777 16.7785C8.58576 17.1946 9.1202 17.8082 9.43935 18.5369C9.75849 19.2655 9.84705 20.0744 9.69315 20.8549C9.66423 20.9693 9.67203 21.0899 9.71544 21.1996C9.75885 21.3094 9.83567 21.4027 9.93502 21.4663L26.2216 31.8962C26.3438 31.9737 26.4491 32.0751 26.5311 32.1943C26.6132 32.3135 26.6704 32.448 26.6992 32.5898ZM31.863 22.3736C31.2231 22.8469 30.4538 23.113 29.6584 23.1362C28.8629 23.1594 28.0794 22.9387 27.413 22.5036C27.3178 22.4341 27.2031 22.3962 27.0852 22.3954C26.9674 22.3946 26.8522 22.4309 26.756 22.4991L20.5331 26.917L19.0413 25.9607L26.058 21.4607C26.1571 21.3971 26.2338 21.304 26.2772 21.1945C26.3206 21.085 26.3285 20.9646 26.2998 20.8504C26.149 20.0698 26.2392 19.2618 26.5585 18.5336C26.8778 17.8055 27.4111 17.1918 28.0875 16.774C29.8875 15.5606 32.2016 15.8284 33.2416 17.3691C34.2817 18.9098 33.6624 21.1603 31.863 22.3736ZM7.26877 2.42345L6.64609 1.48633C5.28731 2.38667 4.2683 3.71519 3.75089 5.26089C3.23348 6.80659 3.24734 8.48084 3.79027 10.0178L4.85059 9.64202C4.39149 8.34134 4.38016 6.92457 4.81838 5.61671C5.25661 4.30886 6.11927 3.18494 7.26934 2.42345H7.26877ZM6.04421 11.6681C5.77337 11.3609 5.53334 11.0278 5.32759 10.6736L4.3539 11.2361C4.59683 11.6548 4.88039 12.0486 5.20046 12.4118L6.04421 11.6681Z" fill="#2B675B"/>
<path d="M24.1728 20.63L25.7743 12.6234C27.0762 12.5101 28.284 11.8977 29.1448 10.9143C30.0055 9.93089 30.4527 8.6527 30.3926 7.34717C30.3325 6.04164 29.7698 4.80993 28.8223 3.90976C27.8748 3.0096 26.616 2.51072 25.3091 2.51752C24.1716 2.5135 23.0669 2.89744 22.1771 3.60596C21.7136 2.92405 21.0904 2.36586 20.3617 1.98007C19.633 1.59427 18.8211 1.39258 17.9966 1.39258C17.1721 1.39258 16.3601 1.59427 15.6314 1.98007C14.9028 2.36586 14.2795 2.92405 13.8161 3.60596C12.9263 2.89744 11.8215 2.5135 10.6841 2.51752C9.38164 2.5174 8.12927 3.01925 7.18733 3.91874C6.24539 4.81822 5.68636 6.04613 5.62646 7.34718C5.56655 8.64824 6.01039 9.92232 6.86569 10.9046C7.72099 11.8868 8.92195 12.5016 10.2189 12.6211L11.8203 20.63L12.9228 20.4095L12.6078 18.83H23.3853L23.0703 20.405L24.1728 20.63ZM21.4576 17.705L21.9284 14.4099L20.8147 14.2501L20.3214 17.705H18.5591V11.5175H17.4341V17.705H15.6718L15.1784 14.2501L14.0647 14.4099L14.5355 17.705H12.3828L11.2353 11.9675C11.2094 11.8405 11.1403 11.7263 11.0399 11.6443C10.9394 11.5623 10.8137 11.5175 10.6841 11.5175C9.63978 11.5175 8.63826 11.1027 7.89983 10.3643C7.16141 9.62583 6.74657 8.62431 6.74657 7.58002C6.74657 6.53573 7.16141 5.53422 7.89983 4.79579C8.63826 4.05737 9.63978 3.64252 10.6841 3.64252C11.2201 3.64115 11.7507 3.75034 12.2426 3.96326C12.7346 4.17618 13.1774 4.48827 13.5433 4.88002C13.6058 4.94614 13.6834 4.9961 13.7695 5.02562C13.8555 5.05514 13.9475 5.06333 14.0374 5.04951C14.1274 5.03568 14.2126 5.00024 14.2858 4.94623C14.3591 4.89221 14.4181 4.82124 14.4579 4.7394C14.7792 4.07392 15.2817 3.51254 15.9076 3.1197C16.5335 2.72685 17.2576 2.51847 17.9966 2.51847C18.7356 2.51847 19.4596 2.72685 20.0855 3.1197C20.7114 3.51254 21.2139 4.07392 21.5353 4.7394C21.575 4.82124 21.6341 4.89221 21.7073 4.94623C21.7805 5.00024 21.8658 5.03568 21.9557 5.04951C22.0456 5.06333 22.1376 5.05514 22.2237 5.02562C22.3097 4.9961 22.3874 4.94614 22.4499 4.88002C22.8158 4.48827 23.2585 4.17618 23.7505 3.96326C24.2424 3.75034 24.773 3.64115 25.3091 3.64252C26.3534 3.64252 27.3549 4.05737 28.0933 4.79579C28.8317 5.53422 29.2466 6.53573 29.2466 7.58002C29.2466 8.62431 28.8317 9.62583 28.0933 10.3643C27.3549 11.1027 26.3534 11.5175 25.3091 11.5175C25.1794 11.5175 25.0537 11.5623 24.9532 11.6443C24.8528 11.7263 24.7838 11.8405 24.7578 11.9675L23.6103 17.705H21.4576Z" fill="#2B675B"/>
</svg>
