<svg width="36" height="37" viewBox="0 0 36 37" fill="none" xmlns="http://www.w3.org/2000/svg">
<path d="M10.8692 14.3614C12.5532 14.3614 13.9229 12.9917 13.9229 11.3077C13.9229 9.62375 12.5532 8.25406 10.8692 8.25406C9.1852 8.25406 7.81551 9.62375 7.81551 11.3077C7.81551 12.9917 9.1852 14.3614 10.8692 14.3614ZM10.8692 9.09781C12.0877 9.09781 13.0791 10.0892 13.0791 11.3077C13.0791 12.5262 12.0877 13.5177 10.8692 13.5177C9.65066 13.5177 8.65926 12.5262 8.65926 11.3077C8.65926 10.0892 9.65066 9.09781 10.8692 9.09781ZM19.7658 17.112C19.7658 17.3448 19.5767 17.5339 19.3439 17.5339H17.885C17.6522 17.5339 17.4631 17.3448 17.4631 17.112C17.4631 16.8793 17.6522 16.6902 17.885 16.6902H19.3439C19.5767 16.6902 19.7658 16.8786 19.7658 17.112ZM34.5237 1.58984H20.1919C19.9592 1.58984 19.77 1.77898 19.77 2.01172V14.663H14.5711C14.3384 14.663 14.1493 14.8522 14.1493 15.0849V19.3838H13.5516L11.971 16.3555C11.637 15.3444 10.6702 14.642 9.60637 14.642C8.23387 14.642 7.1173 15.7585 7.1173 17.1317V24.8063L6.60121 27.9507L1.87199 30.9073C1.05848 31.4164 0.810274 32.4922 1.31863 33.3057C1.56402 33.6987 1.94934 33.973 2.40356 34.0777C2.53574 34.108 2.66863 34.1234 2.80012 34.1234C3.12215 34.1234 3.43785 34.0334 3.71699 33.8591L9.16059 30.4559C9.56629 30.2021 9.82152 29.8189 9.89957 29.3464L10.216 27.4184L11.7017 28.5645L12.8597 34.0967C12.9546 34.5502 13.2218 34.9405 13.6121 35.1957C13.8996 35.3841 14.228 35.4812 14.5627 35.4812C14.6815 35.4812 14.8018 35.4692 14.9206 35.4439C15.86 35.247 16.4639 34.3231 16.2678 33.3837L14.9691 27.1801C14.8882 26.7941 14.6893 26.4755 14.3771 26.2337L12.0961 24.4646V22.6259H14.1493V24.2227C14.1493 24.4555 14.3384 24.6446 14.5711 24.6446H19.77V30.913C19.77 31.1457 19.9592 31.3348 20.1919 31.3348H34.5237C34.7564 31.3348 34.9456 31.1457 34.9456 30.913V2.01172C34.9456 1.77898 34.7564 1.58984 34.5237 1.58984ZM9.06707 29.21C9.0291 29.442 8.91309 29.6157 8.7134 29.7409L3.26981 33.144C3.06801 33.2698 2.82754 33.3099 2.5934 33.2558C2.35926 33.2016 2.16027 33.061 2.03441 32.8585C1.77215 32.4394 1.90012 31.8847 2.31918 31.6224L7.21012 28.5652C7.26101 28.5334 7.30452 28.4912 7.33774 28.4412C7.37097 28.3912 7.39314 28.3348 7.40277 28.2755L7.84363 25.5882L9.4573 26.8327L9.06707 29.21ZM14.1422 27.3523L15.4409 33.556C15.5421 34.0398 15.2307 34.5165 14.7469 34.6177C14.5142 34.6662 14.2744 34.6205 14.0733 34.4891C13.8722 34.3576 13.7344 34.1565 13.6852 33.9237L12.4955 28.239C12.4749 28.1406 12.4198 28.0528 12.3401 27.9915L7.96035 24.6137V17.1317C7.96035 16.224 8.69863 15.4857 9.60566 15.4857C10.3179 15.4857 10.9641 15.9624 11.1771 16.6445C11.1849 16.6684 11.194 16.6916 11.206 16.7141L12.9209 19.9998C12.9566 20.0681 13.0103 20.1254 13.0762 20.1653C13.1422 20.2052 13.2179 20.2263 13.295 20.2262H16.6967C17.1256 20.2262 17.4736 20.5749 17.4736 21.0038C17.4736 21.4327 17.1249 21.7815 16.6967 21.7815H12.0174L10.0831 17.9234C9.97902 17.7153 9.7252 17.6309 9.51707 17.7357C9.30895 17.8405 9.22457 18.0936 9.32934 18.3017L11.251 22.1352V23.919C11.1244 23.9183 10.9986 23.9738 10.9142 24.0821C10.8457 24.1706 10.8151 24.2825 10.8291 24.3935C10.8431 24.5045 10.9005 24.6054 10.9887 24.6741L13.8582 26.8995C14.0129 27.0184 14.1029 27.1625 14.1422 27.3523ZM14.9923 22.6252H16.6974C17.5911 22.6252 18.3181 21.8982 18.3181 21.0038C18.3181 20.1102 17.5911 19.3824 16.6974 19.3824H14.9923V15.5054H22.2359V23.7994H14.9923V22.6252ZM22.6578 24.6446C22.8905 24.6446 23.0796 24.4555 23.0796 24.2227V15.0849C23.0796 14.8522 22.8905 14.663 22.6578 14.663H20.6138V2.55805L30.8372 5.23414V27.3854L20.6138 30.3512V24.6446H22.6578ZM34.1018 30.4911H23.1605L31.3765 28.1075C31.4643 28.0821 31.5414 28.0288 31.5963 27.9558C31.6512 27.8828 31.6809 27.7939 31.681 27.7025V4.90859C31.681 4.71664 31.5516 4.5493 31.366 4.50078L23.4692 2.43359H34.1018V30.4911ZM28.5029 17.6436V15.2811C28.5029 15.0484 28.692 14.8592 28.9247 14.8592C29.1575 14.8592 29.3466 15.0484 29.3466 15.2811V17.6436C29.3466 17.8763 29.1575 18.0655 28.9247 18.0655C28.692 18.0655 28.5029 17.8763 28.5029 17.6436Z" fill="#2B675B"/>
</svg>
