<svg width="49" height="48" viewBox="0 0 49 48" fill="none" xmlns="http://www.w3.org/2000/svg">
<g clip-path="url(#clip0_272_1852)">
<path d="M9.56941 20.6525H39.4386C39.9584 20.6521 40.3753 20.2252 40.3753 19.715V19.7141C40.3673 10.9346 33.2496 3.8457 24.5036 3.8457C15.7961 3.8457 8.62544 10.9181 8.63181 19.7155C8.63228 20.2331 9.052 20.6525 9.56941 20.6525ZM24.9703 16.9167C25.4825 16.9167 25.8992 17.3334 25.8992 17.8457V18.7745H24.0412V17.8456C24.0412 17.3334 24.458 16.9167 24.9703 16.9167ZM16.7118 8.09361L17.626 9.67705C17.8858 10.127 18.4597 10.2783 18.9066 10.0202C19.355 9.76123 19.5087 9.18786 19.2498 8.73955L18.3367 7.15827C19.9731 6.35796 21.7489 5.88207 23.5662 5.75689V7.58286C23.5662 8.10055 23.986 8.52036 24.5037 8.52036C25.0214 8.52036 25.4412 8.10055 25.4412 7.58286V5.75436C27.26 5.87327 29.0376 6.34903 30.6727 7.15452L29.7576 8.73955C29.4987 9.18795 29.6523 9.76123 30.1007 10.0202C30.5487 10.2787 31.1223 10.1261 31.3814 9.67705L32.2967 8.09173C33.825 9.11764 35.1175 10.4267 36.1209 11.9249L34.5412 12.8369C34.0928 13.0957 33.9392 13.6691 34.1981 14.1175C34.4576 14.5669 35.0311 14.719 35.4787 14.4606L37.0584 13.5486C37.8539 15.166 38.3418 16.9399 38.4677 18.7771L27.7741 18.7775V17.8458C27.7741 16.6283 26.994 15.5901 25.9077 15.2035V13.1796C25.9077 12.662 25.4879 12.2421 24.9702 12.2421C24.4525 12.2421 24.0327 12.662 24.0327 13.1796V15.2034C22.9463 15.59 22.1662 16.6282 22.1662 17.8456V18.7774L10.5384 18.777C10.6617 16.9583 11.139 15.1811 11.9435 13.5454L13.5286 14.4605C13.9765 14.7191 14.5499 14.5665 14.8092 14.1174C15.0681 13.669 14.9145 13.0957 14.4661 12.8368L12.8816 11.922C13.8947 10.4069 15.1962 9.10602 16.7118 8.09361ZM18.7218 27.9506C17.4649 24.8395 13.93 23.3398 10.8198 24.5965C7.71634 25.8502 6.21175 29.3951 7.46556 32.4985L10.2622 39.4205C11.519 42.5316 15.0541 44.0315 18.1643 42.7747C21.2755 41.518 22.7753 37.9831 21.5185 34.8726L18.7218 27.9506ZM17.4619 41.0363C17.4619 41.0364 17.4619 41.0364 17.4619 41.0363C15.3117 41.9047 12.8693 40.8682 12.0007 38.7182L9.20397 31.7961C8.33547 29.6462 9.37234 27.2035 11.5222 26.3349C13.6804 25.463 16.1184 26.5118 16.9835 28.6531L19.7802 35.5751C20.6488 37.7252 19.6118 40.1679 17.4619 41.0363ZM38.0458 24.5965C34.9348 23.3395 31.4002 24.8404 30.1438 27.9506L27.347 34.8726C26.09 37.9837 27.5908 41.5183 30.7012 42.7747C33.8255 44.0371 37.3519 42.5182 38.6032 39.4205L41.4 32.4985C42.6569 29.3875 41.1564 25.853 38.0458 24.5965ZM39.6617 31.7961L36.8648 38.7182C35.9963 40.8683 33.5535 41.9047 31.4037 41.0364V41.0363C29.2534 40.1678 28.2169 37.725 29.0854 35.5751L31.8822 28.6531C32.7424 26.5239 35.1738 25.4584 37.3434 26.3349C39.4936 27.2036 40.53 29.6462 39.6617 31.7961Z" fill="#2CB058"/>
<path d="M40.242 0.09375H8.75797C4.25619 0.09375 0.59375 3.75619 0.59375 8.25797V39.742C0.59375 44.2438 4.25619 47.9062 8.75797 47.9062H40.242C44.7438 47.9062 48.4062 44.2438 48.4062 39.742V8.25797C48.4062 3.75619 44.7438 0.09375 40.242 0.09375ZM46.5312 39.742C46.5312 43.2099 43.7099 46.0312 40.242 46.0312H8.75797C5.29006 46.0312 2.46875 43.2099 2.46875 39.742V8.25797C2.46875 4.79006 5.29006 1.96875 8.75797 1.96875H40.242C43.7099 1.96875 46.5312 4.79006 46.5312 8.25797V39.742Z" fill="#2CB058"/>
</g>
<defs>
<clipPath id="clip0_272_1852">
<rect width="48" height="48" fill="white" transform="translate(0.5)"/>
</clipPath>
</defs>
</svg>
