<svg width="49" height="48" viewBox="0 0 49 48" fill="none" xmlns="http://www.w3.org/2000/svg">
<g clip-path="url(#clip0_272_1876)">
<path d="M2.56506 7.62806C1.71138 8.84025 1.21094 10.313 1.21094 11.9012V37.6334M8.80394 4.40625C7.25481 4.40625 5.81406 4.86413 4.61303 5.65031M25.3689 4.40625C29.5623 4.40625 32.9618 7.76184 32.9618 11.9012L32.9708 28.4518M5.49119 20.2807V25.7564H28.7192V20.2966" stroke="#868686" stroke-width="1.40625" stroke-miterlimit="10" stroke-linecap="round" stroke-linejoin="round"/>
<path d="M11.9123 4.40681H8.59178L5.52578 12.7534C4.60741 13.7461 4.04706 15.067 4.04706 16.5173C4.04706 17.9675 4.60741 19.2884 5.52578 20.2811V20.2972H5.54125C6.57503 21.4058 8.05694 22.101 9.70384 22.101M11.9123 4.40681C13.1346 4.21978 14.3198 3.44175 14.3198 2.03034V0.703125M11.9123 4.40681V11.1041C11.9123 13.9355 14.2376 16.2308 17.106 16.2308C19.9743 16.2308 22.2996 13.9355 22.2996 11.1041V4.40681M24.5081 22.101C26.1549 22.101 27.6369 21.4058 28.6707 20.2972H28.6862V20.2811C29.6045 19.2884 30.1649 17.9675 30.1649 16.5173C30.1649 15.067 29.6045 13.7461 28.6862 12.7534L25.6202 4.40681H22.2996M22.2996 4.40681C21.0513 4.25766 19.8003 3.47813 19.8003 2.03044V0.703125M30.6178 28.4523C30.1046 27.5296 29.48 26.6167 28.72 25.757H5.49194C0.810999 31.6955 1.21169 37.634 1.21169 37.634M1.21169 37.634H20.5054M1.21169 37.634H17.153H17.0955M1.21169 37.634C1.21169 37.634 1.06806 42.3734 3.12306 47.2969M14.7909 44.1783L14.8153 44.1908C15.5234 44.5537 16.3076 44.7431 17.1033 44.7431C17.899 44.7431 18.6833 44.5537 19.3914 44.1908L19.4158 44.1783M17.1033 45.3655L17.2027 47.2969" stroke="#868686" stroke-width="1.40625" stroke-miterlimit="10" stroke-linecap="round" stroke-linejoin="round"/>
<path d="M43.8906 42.0911L47.2742 36.9534C48.2037 35.5421 47.8646 33.6367 46.4857 32.6598C42.5534 29.8743 37.7622 28.4375 33.666 28.4375C29.5698 28.4375 24.7786 29.8743 20.8463 32.6598C19.4674 33.6367 19.1283 35.5421 20.0578 36.9534L25.9745 45.9373C26.2167 46.3054 26.5466 46.6076 26.9345 46.8168C27.3223 47.026 27.756 47.1356 28.1967 47.1359H39.1355C39.5761 47.1356 40.0099 47.026 40.3977 46.8168C40.7856 46.6076 41.1154 46.3054 41.3577 45.9373L42.3531 44.4259" stroke="#868686" stroke-width="1.40625" stroke-miterlimit="10" stroke-linecap="round" stroke-linejoin="round"/>
<path d="M33.4414 43.8021L40.0894 33.0393C40.5197 32.5315 41.3092 33.0978 40.9662 33.6682L36.1315 45.1848" stroke="#868686" stroke-width="1.40625" stroke-miterlimit="10" stroke-linecap="round" stroke-linejoin="round"/>
<path d="M33.6654 31.9648V33.6518M30.157 32.3082L30.45 33.9695M26.7615 33.2554L27.3385 34.8407M23.582 34.778L24.4256 36.239M37.1738 32.3082L36.8808 33.9695M43.7488 34.778L42.9052 36.239M30.5206 47.1363C30.5206 45.3994 31.9286 43.9915 33.6654 43.9915C35.4022 43.9915 36.8103 45.3995 36.8103 47.1363H30.5206Z" stroke="#868686" stroke-width="1.40625" stroke-miterlimit="10" stroke-linecap="round" stroke-linejoin="round"/>
</g>
<defs>
<clipPath id="clip0_272_1876">
<rect width="48" height="48" fill="white" transform="translate(0.5)"/>
</clipPath>
</defs>
</svg>
